<svg id="Layer_1" data-name="Layer 1" xmlns="http://www.w3.org/2000/svg" viewBox="0 0 500 450"><defs><style>.cls-1{fill:#acacac;}.cls-1,.cls-4{opacity:0.1;}.cls-2,.cls-3,.cls-5{fill:none;stroke-linecap:round;stroke-linejoin:round;stroke-width:3px;}.cls-2{stroke:#fe6757;}.cls-3{stroke:#acacac;}.cls-4{fill:#005d9a;}.cls-5{stroke:#005d9a;}</style></defs><title>Eventnet-</title><path class="cls-1" d="M95.54,189.83c14,10.32,33,16.26,53,19.8-21-.66-39.84.52-60.86-.13-3-.1-8.53-2.15-10.7-4.24s-4-9.63-4.21-12.59c-.53-8.06.7-11.82.61-19.9-.06-6.2-.39-15-.09-22.17C77.29,166.27,83,180.56,95.54,189.83Z"/><path class="cls-2" d="M151.44,177.48H124.15a5.06,5.06,0,0,1-5-5V118.19a5.05,5.05,0,0,1,5-5h70.42a5,5,0,0,1,5,5v24.57"/><path class="cls-2" d="M151.66,168.6H129.55a1,1,0,0,1-1-1V123a1,1,0,0,1,1-1H147"/><path class="cls-2" d="M172.4,122h16.78a1,1,0,0,1,1,1v20"/><path class="cls-3" d="M386.51,177.48H316.08a5.06,5.06,0,0,1-5-5V118.19a5.05,5.05,0,0,1,5-5h10.1"/><path class="cls-3" d="M370.14,168.6H321.48a1,1,0,0,1-1-1V123a1,1,0,0,1,1-1h17.44"/><path class="cls-3" d="M151.94,209.63H89.72a17,17,0,0,1-17-17V140.44"/><path class="cls-3" d="M377.15,209.63H236.66"/><path class="cls-3" d="M72.76,120.3V98a17,17,0,0,1,17-17H329.37"/><line class="cls-3" x1="247.03" y1="113.15" x2="270.09" y2="113.15"/><line class="cls-3" x1="247.03" y1="145.31" x2="270.09" y2="145.31"/><line class="cls-3" x1="247.03" y1="177.48" x2="270.09" y2="177.48"/><path class="cls-4" d="M224.56,158.91h-53.1a3.76,3.76,0,0,0-3.76,3.76v74.12a3.76,3.76,0,0,0,3.76,3.76h3.38v22.54A12.18,12.18,0,0,0,187,275.23H209a12.18,12.18,0,0,0,12.14-12.14V240.55h3.38a3.76,3.76,0,0,0,3.76-3.76V162.67A3.76,3.76,0,0,0,224.56,158.91Z"/><path class="cls-5" d="M215.81,241.34v15.79a12.17,12.17,0,0,1-12.14,12.14h-22a12.17,12.17,0,0,1-12.14-12.14V238.91"/><line class="cls-5" x1="405.31" y1="369" x2="427.37" y2="369"/><line class="cls-5" x1="389.78" y1="369" x2="397.57" y2="369"/><path class="cls-5" d="M303.12,264.16a30,30,0,0,1,9.71,22.07v52.09A30.69,30.69,0,0,0,343.51,369h38.14"/><path class="cls-5" d="M192.64,275.23V339A30.14,30.14,0,0,0,222.69,369h0A30.14,30.14,0,0,0,252.74,339V286.23a30.13,30.13,0,0,1,30-30.05h0a29.84,29.84,0,0,1,13.7,3.32"/><rect class="cls-5" x="162.33" y="152.94" width="60.62" height="81.65" rx="3.77"/><polyline class="cls-5" points="206.36 152.94 206.36 202.35 178.93 202.35 178.93 152.94"/><line class="cls-5" x1="172.31" y1="152.94" x2="172.31" y2="172.3"/><line class="cls-5" x1="185.87" y1="152.94" x2="185.87" y2="172.3"/><line class="cls-5" x1="192.64" y1="152.94" x2="192.64" y2="172.3"/><line class="cls-5" x1="199.42" y1="152.94" x2="199.42" y2="172.3"/><line class="cls-5" x1="212.98" y1="152.94" x2="212.98" y2="172.3"/><line class="cls-5" x1="169.48" y1="249.99" x2="195.09" y2="249.99"/><line class="cls-5" x1="169.48" y1="256.15" x2="188.93" y2="256.15"/><line class="cls-5" x1="169.48" y1="243.82" x2="201.26" y2="243.82"/></svg>