<svg width="200" height="200" viewBox="0 0 200 200" fill="none" xmlns="http://www.w3.org/2000/svg">
<g id="Thinking face-bro 1">
<g id="freepik--background-simple--inject-41">
<path id="Vector" d="M24.572 82.5455C24.572 82.5455 8.40001 106.966 19.892 143.798C31.384 180.63 64.868 190.026 84.724 179.798C104.58 169.57 107.476 156.258 123.524 146.598C139.572 136.938 172.664 137.278 185.408 110.702C198.152 84.1255 171.724 46.8775 141.808 25.4255C111.892 3.97354 46.86 29.3455 24.572 82.5455Z" fill="#3498DB"/>
<path id="Vector_2" opacity="0.7" d="M24.572 82.5455C24.572 82.5455 8.40001 106.966 19.892 143.798C31.384 180.63 64.868 190.026 84.724 179.798C104.58 169.57 107.476 156.258 123.524 146.598C139.572 136.938 172.664 137.278 185.408 110.702C198.152 84.1255 171.724 46.8775 141.808 25.4255C111.892 3.97354 46.86 29.3455 24.572 82.5455Z" fill="white"/>
</g>
<g id="freepik--Plant--inject-41">
<path id="Vector_3" d="M127.512 135.241C128.944 135.865 132.436 135.785 132.44 135.785C132.444 135.785 131.688 133.497 131.62 133.357C130.856 131.757 128.42 129.105 126.46 129.357C126.134 129.41 125.822 129.531 125.546 129.713C125.269 129.894 125.034 130.132 124.856 130.411C124.677 130.689 124.559 131.002 124.51 131.329C124.46 131.656 124.48 131.99 124.568 132.309C124.896 133.693 126.296 134.709 127.512 135.241Z" fill="#263238"/>
<path id="Vector_4" d="M128.72 145.359C130.2 145.575 133.32 144.671 133.568 144.599C134.082 146.383 134.714 148.131 135.46 149.831C135.888 150.823 136.352 151.811 136.828 152.795C136.544 152.395 136.284 151.995 136.244 151.959C135.08 150.615 132.044 148.699 130.212 149.479C129.911 149.617 129.643 149.816 129.424 150.065C129.205 150.313 129.041 150.605 128.943 150.92C128.845 151.236 128.814 151.569 128.852 151.898C128.891 152.226 128.999 152.543 129.168 152.827C129.844 154.059 131.464 154.667 132.768 154.859C134.072 155.051 136.768 154.335 137.48 154.135C137.664 154.511 137.848 154.887 138.036 155.263C138.94 157.059 139.848 158.863 140.684 160.635C140.98 161.263 141.248 161.891 141.52 162.519C141.268 162.151 141.052 161.843 141.012 161.799C139.848 160.455 136.812 158.539 134.98 159.319C134.679 159.456 134.411 159.656 134.192 159.903C133.974 160.151 133.81 160.443 133.711 160.758C133.613 161.074 133.582 161.406 133.621 161.735C133.659 162.063 133.767 162.379 133.936 162.663C134.612 163.895 136.232 164.507 137.536 164.695C138.84 164.883 141.28 164.243 142.12 164.007C142.376 164.663 142.636 165.315 142.856 165.959C142.996 166.403 143.164 166.819 143.28 167.271C143.396 167.723 143.528 168.159 143.648 168.595C143.852 169.447 144.068 170.323 144.248 171.155C144.376 171.735 144.488 172.291 144.6 172.851C144.316 172.223 143.728 171.003 143.664 170.907C142.72 169.399 140.008 167.047 138.064 167.539C137.746 167.63 137.45 167.786 137.196 167.998C136.942 168.211 136.736 168.474 136.59 168.772C136.445 169.069 136.364 169.394 136.353 169.724C136.341 170.055 136.4 170.385 136.524 170.691C137.008 172.011 138.524 172.859 139.784 173.247C141.184 173.671 144.276 173.283 144.664 173.247C144.848 174.171 145.02 175.075 145.168 175.927C145.248 176.379 145.32 176.803 145.388 177.227H146.62C146.528 176.739 146.432 176.235 146.328 175.711C146.144 174.771 145.928 173.771 145.696 172.743C146.629 172.371 147.538 171.944 148.42 171.463C149.44 172.567 152.048 173.863 152.388 174.023C152.032 174.895 151.676 175.743 151.332 176.535C151.228 176.775 151.124 176.999 151.024 177.227H152.32L152.416 176.995C152.784 176.111 153.152 175.155 153.528 174.171C153.9 174.251 156.964 174.875 158.392 174.551C159.688 174.259 161.256 173.527 161.836 172.247C161.983 171.951 162.065 171.627 162.078 171.296C162.091 170.966 162.035 170.636 161.912 170.329C161.79 170.022 161.604 169.744 161.367 169.514C161.129 169.283 160.846 169.105 160.536 168.991C158.648 168.355 155.768 170.499 154.712 171.931C154.652 172.015 154.076 173.003 153.728 173.635C153.876 173.235 154.028 172.835 154.176 172.435C154.476 171.635 154.752 170.787 155.056 169.899C155.184 169.463 155.316 169.023 155.456 168.579C155.596 168.135 155.692 167.663 155.812 167.203C156.068 166.123 156.276 165.019 156.46 163.903C157.18 164.163 159.748 165.059 161.076 164.963C162.404 164.867 164.064 164.383 164.832 163.207C165.021 162.936 165.151 162.627 165.213 162.303C165.275 161.978 165.268 161.643 165.193 161.321C165.117 160.999 164.975 160.696 164.775 160.433C164.575 160.169 164.322 159.951 164.032 159.791C162.26 158.879 159.088 160.559 157.828 161.815C157.752 161.891 156.948 162.895 156.516 163.451C156.624 162.779 156.732 162.111 156.816 161.427C157.06 159.451 157.248 157.447 157.444 155.447C157.504 154.835 157.568 154.223 157.632 153.615C157.888 153.711 160.92 154.839 162.408 154.735C163.732 154.639 165.396 154.155 166.16 152.975C166.35 152.704 166.48 152.396 166.542 152.071C166.605 151.746 166.598 151.411 166.523 151.089C166.447 150.766 166.305 150.464 166.104 150.2C165.904 149.937 165.65 149.718 165.36 149.559C163.592 148.647 160.42 150.331 159.16 151.583C159.064 151.679 157.912 153.123 157.636 153.503C157.78 152.159 157.932 150.819 158.14 149.503C158.407 147.727 158.791 145.97 159.288 144.243C159.404 144.291 162.56 145.479 164.088 145.375C165.412 145.279 167.072 144.795 167.84 143.615C168.03 143.344 168.16 143.036 168.222 142.711C168.285 142.386 168.278 142.051 168.203 141.729C168.127 141.406 167.985 141.104 167.784 140.84C167.584 140.577 167.33 140.358 167.04 140.199C165.272 139.287 162.1 140.971 160.84 142.223C160.74 142.323 159.5 143.875 159.296 144.175C159.324 144.075 159.344 143.967 159.376 143.867C159.922 142.15 160.619 140.485 161.46 138.891C161.912 138.007 162.392 137.187 162.88 136.395C163.448 136.679 166.044 137.939 167.428 137.995C168.812 138.051 170.46 137.747 171.352 136.663C171.571 136.415 171.735 136.124 171.834 135.809C171.933 135.493 171.965 135.161 171.927 134.832C171.89 134.504 171.783 134.187 171.615 133.902C171.447 133.617 171.221 133.371 170.952 133.179C169.292 132.079 165.956 133.403 164.552 134.511C164.476 134.571 163.776 135.267 163.276 135.783C163.5 135.431 163.724 135.063 163.948 134.727C164.78 133.475 165.62 132.379 166.372 131.411C166.804 130.867 167.204 130.383 167.572 129.931C168.272 129.931 171.088 129.835 172.32 129.255C173.552 128.675 174.896 127.655 175.188 126.263C175.267 125.942 175.277 125.608 175.218 125.283C175.16 124.957 175.033 124.648 174.847 124.374C174.661 124.101 174.42 123.87 174.139 123.696C173.858 123.521 173.544 123.408 173.216 123.363C171.24 123.151 168.888 125.863 168.164 127.487C168.1 127.627 167.364 129.935 167.412 129.935H167.456C167.08 130.359 166.684 130.819 166.256 131.331C165.48 132.283 164.616 133.363 163.752 134.603C162.808 135.931 161.941 137.312 161.156 138.739C160.271 140.334 159.529 142.005 158.94 143.731C158.94 143.751 158.94 143.775 158.94 143.795C158.94 143.211 158.94 141.579 158.908 141.455C158.68 139.691 157.204 136.419 155.244 136.059C154.917 136.008 154.584 136.027 154.264 136.113C153.945 136.2 153.648 136.353 153.392 136.562C153.136 136.771 152.926 137.031 152.778 137.327C152.629 137.622 152.544 137.945 152.528 138.275C152.416 139.675 153.428 141.075 154.42 141.963C155.536 142.959 158.636 143.923 158.884 143.999C158.328 145.771 157.89 147.578 157.572 149.407C157.384 150.475 157.224 151.551 157.08 152.635C157.08 152.131 157.08 151.679 157.056 151.619C156.824 149.855 155.348 146.583 153.392 146.219C153.065 146.168 152.731 146.186 152.411 146.272C152.092 146.358 151.794 146.511 151.537 146.72C151.281 146.929 151.071 147.19 150.922 147.485C150.773 147.781 150.688 148.105 150.672 148.435C150.56 149.835 151.576 151.235 152.564 152.123C153.552 153.011 156.196 153.899 156.892 154.123C156.844 154.523 156.788 154.955 156.736 155.371C156.496 157.371 156.268 159.371 155.984 161.315C155.884 161.999 155.76 162.675 155.636 163.347C155.636 162.899 155.636 162.523 155.612 162.463C155.384 160.703 153.908 157.431 151.952 157.067C151.625 157.016 151.291 157.034 150.971 157.12C150.652 157.206 150.354 157.359 150.097 157.568C149.841 157.777 149.631 158.038 149.482 158.333C149.333 158.629 149.248 158.953 149.232 159.283C149.12 160.683 150.132 162.083 151.124 162.971C152.116 163.859 154.5 164.659 155.328 164.927C155.184 165.611 155.04 166.299 154.868 166.959C154.74 167.407 154.648 167.843 154.496 168.287C154.344 168.731 154.212 169.163 154.072 169.595C153.772 170.419 153.468 171.267 153.156 172.063C152.944 172.615 152.732 173.139 152.52 173.663C152.628 172.983 152.808 171.639 152.812 171.527C152.791 169.964 152.368 168.432 151.584 167.079C151.591 166.904 151.581 166.728 151.552 166.555C151.511 166.227 151.402 165.911 151.231 165.627C151.06 165.344 150.831 165.1 150.559 164.911C150.287 164.722 149.979 164.593 149.654 164.532C149.328 164.471 148.994 164.479 148.672 164.555C146.748 165.067 145.528 168.443 145.436 170.219C145.436 170.323 145.5 171.467 145.556 172.187C145.46 171.767 145.368 171.359 145.264 170.931C145.064 170.079 144.836 169.235 144.596 168.327C144.464 167.895 144.332 167.455 144.196 167.011C144.06 166.567 143.884 166.119 143.728 165.667C143.348 164.627 142.928 163.591 142.452 162.555C143.196 162.379 145.832 161.707 146.888 160.895C147.944 160.083 149.06 158.763 149.048 157.359C149.056 157.03 148.994 156.702 148.867 156.398C148.74 156.093 148.551 155.819 148.311 155.593C148.071 155.366 147.786 155.193 147.475 155.084C147.163 154.975 146.833 154.932 146.504 154.959C144.524 155.175 142.808 158.327 142.448 160.067C142.428 160.175 142.308 161.455 142.256 162.159C141.976 161.539 141.696 160.919 141.388 160.303C140.504 158.519 139.556 156.747 138.612 154.971C138.324 154.427 138.044 153.879 137.76 153.335C138.028 153.275 141.176 152.535 142.36 151.635C143.416 150.835 144.532 149.503 144.52 148.099C144.528 147.77 144.466 147.442 144.339 147.138C144.212 146.833 144.023 146.559 143.783 146.333C143.543 146.106 143.258 145.933 142.947 145.824C142.635 145.715 142.305 145.672 141.976 145.699C140 145.915 138.28 149.067 137.92 150.807C137.896 150.939 137.728 152.779 137.708 153.247C137.084 152.047 136.476 150.847 135.924 149.647C135.166 148.019 134.516 146.342 133.98 144.627C134.104 144.599 137.392 143.851 138.608 142.923C139.66 142.123 140.78 140.791 140.768 139.387C140.775 139.058 140.713 138.73 140.586 138.426C140.459 138.122 140.269 137.848 140.029 137.622C139.79 137.396 139.505 137.222 139.194 137.113C138.883 137.004 138.553 136.961 138.224 136.987C136.244 137.199 134.528 140.355 134.168 142.095C134.14 142.231 133.964 144.211 133.956 144.571C133.924 144.471 133.884 144.371 133.852 144.271C133.361 142.539 133.024 140.767 132.844 138.975C132.736 137.987 132.684 137.035 132.656 136.107C133.284 136.031 136.144 135.651 137.328 134.931C138.512 134.211 139.728 133.055 139.864 131.655C139.91 131.328 139.886 130.994 139.794 130.676C139.702 130.359 139.544 130.064 139.33 129.811C139.116 129.559 138.852 129.354 138.554 129.211C138.256 129.067 137.931 128.988 137.6 128.979C135.6 128.979 133.556 131.919 133.008 133.611C132.98 133.703 132.78 134.671 132.644 135.379C132.644 134.959 132.624 134.527 132.624 134.127C132.624 132.623 132.724 131.243 132.816 130.023C132.876 129.331 132.944 128.703 133.012 128.119C133.588 127.719 135.892 126.119 136.612 124.939C137.332 123.759 137.868 122.167 137.352 120.859C137.241 120.548 137.066 120.263 136.838 120.023C136.609 119.784 136.333 119.595 136.027 119.47C135.721 119.344 135.392 119.284 135.061 119.294C134.731 119.304 134.406 119.383 134.108 119.527C132.34 120.443 131.876 124.003 132.168 125.755C132.192 125.907 132.86 128.231 132.892 128.211L132.924 128.187C132.848 128.747 132.772 129.351 132.7 130.011C132.58 131.231 132.452 132.611 132.42 134.123C132.363 135.751 132.402 137.38 132.536 139.003C132.676 140.823 132.978 142.626 133.44 144.391C133.445 144.413 133.452 144.434 133.46 144.455C133.144 143.963 132.224 142.615 132.14 142.519C130.98 141.175 127.94 139.263 126.108 140.039C125.807 140.177 125.539 140.376 125.32 140.625C125.101 140.873 124.937 141.165 124.839 141.48C124.741 141.796 124.71 142.129 124.748 142.458C124.787 142.786 124.895 143.103 125.064 143.387C125.788 144.559 127.408 145.167 128.72 145.359Z" fill="#263238"/>
<path id="Vector_5" d="M162.856 136.001C162.888 136.021 163.492 133.677 163.512 133.525C163.76 131.765 163.196 128.217 161.404 127.353C161.103 127.219 160.776 127.149 160.446 127.148C160.116 127.148 159.79 127.217 159.488 127.351C159.186 127.485 158.916 127.681 158.695 127.926C158.474 128.171 158.306 128.459 158.204 128.773C157.724 130.093 158.332 131.713 159.052 132.829C159.896 134.145 162.856 136.001 162.856 136.001Z" fill="#263238"/>
</g>
<g id="freepik--Picture--inject-41">
<path id="Vector_6" d="M77.528 109.062H24.52V40.3984H77.528V109.062ZM24.92 108.662H77.128V40.7984H24.92V108.662Z" fill="#263238"/>
<path id="Vector_7" d="M76.032 107.128H26V42.3281H76.032V107.128ZM26.432 106.728H75.632V42.7281H26.4L26.432 106.728Z" fill="#263238"/>
<path id="Vector_8" d="M63.5999 90.9844H38.4519V58.4844H63.5999V90.9844ZM38.8599 90.5844H63.1999V58.8844H38.8519L38.8599 90.5844Z" fill="#263238"/>
</g>
<g id="freepik--Symbol--inject-41">
<path id="Vector_9" d="M134.712 79.9986L126.076 78.7786L127.276 70.2026L135.916 71.4026L134.712 79.9986ZM126.528 78.4386L134.372 79.5466L135.472 71.7626L127.624 70.6546L126.528 78.4386ZM136.088 67.1426L128.188 66.0266L129.332 57.9226L129.408 57.8746C131.501 56.5919 133.491 55.1489 135.36 53.5586C137.109 52.0848 138.631 50.3609 139.876 48.4426C141.054 46.6142 141.821 44.5521 142.124 42.3986C142.36 40.7306 142.168 39.3666 141.552 38.3346C140.936 37.3026 139.92 36.7066 138.516 36.5066C137.981 36.401 137.43 36.4024 136.895 36.5109C136.36 36.6194 135.852 36.8327 135.4 37.1386C134.978 37.4655 134.628 37.8763 134.373 38.3452C134.117 38.814 133.962 39.3307 133.916 39.8626C133.838 40.3843 133.824 40.9137 133.876 41.4386C133.928 41.9546 133.996 42.5106 134.08 43.0906L134.108 43.3026L125.856 43.9146L125.824 43.7426C125.653 42.9016 125.55 42.0482 125.516 41.1906C125.485 40.3565 125.528 39.5212 125.644 38.6946C126.136 35.2106 127.62 32.5426 130.044 30.7626C132.468 28.9826 135.724 28.3626 139.696 28.9306C143.752 29.5026 146.784 31.0706 148.716 33.5866C150.648 36.1026 151.34 39.4386 150.768 43.4946C150.438 46.0108 149.611 48.4363 148.336 50.6306C147.048 52.7829 145.418 54.7119 143.512 56.3426C141.466 58.0968 139.266 59.6644 136.94 61.0266L136.088 67.1426ZM128.64 65.6866L135.748 66.6906L136.584 60.7626L136.668 60.7146C139.003 59.353 141.209 57.7826 143.26 56.0226C145.133 54.4157 146.734 52.5165 148 50.3986C149.255 48.2542 150.071 45.8815 150.4 43.4186C150.956 39.4746 150.292 36.2426 148.428 33.8186C146.564 31.3946 143.628 29.8746 139.668 29.3146C135.804 28.7706 132.652 29.3626 130.308 31.0746C127.964 32.7866 126.516 35.3586 126.04 38.7306C125.927 39.5334 125.886 40.3445 125.916 41.1546C125.947 41.9321 126.035 42.7062 126.18 43.4706L133.652 42.9146C133.584 42.4066 133.524 41.9186 133.476 41.4586C133.422 40.9016 133.436 40.34 133.52 39.7866C133.573 39.202 133.746 38.6345 134.029 38.1202C134.312 37.6059 134.698 37.1559 135.164 36.7986C135.657 36.4606 136.212 36.224 136.797 36.1024C137.382 35.9809 137.985 35.9769 138.572 36.0906C140.104 36.3066 141.22 36.9866 141.892 38.0906C142.564 39.1946 142.768 40.6546 142.52 42.4146C142.212 44.631 141.424 46.7535 140.212 48.6346C138.945 50.5843 137.398 52.3365 135.62 53.8346C133.758 55.4164 131.779 56.8552 129.7 58.1386L128.64 65.6866Z" fill="#263238"/>
</g>
<g id="freepik--Character--inject-41">
<path id="Vector_10" d="M84.3639 99.5976C84.3639 99.5976 58.6879 99.9376 57.8879 101.766C57.0879 103.594 53.4359 125.734 53.2079 133.366C52.9799 140.998 52.8679 146.034 53.6639 146.946C54.4599 147.858 66.9039 155.05 66.9039 155.05C66.9039 155.05 61.0839 175.478 62.9039 176.166C64.7239 176.854 75.9159 179.702 83.1039 179.818C90.2919 179.934 97.3719 179.93 97.9439 179.93C98.5159 179.93 116.888 180.614 123.28 179.13C129.672 177.646 131.608 177.53 131.608 175.022C131.608 172.514 130.008 169.422 129.896 168.862C129.784 168.302 134.236 125.034 131.724 114.422C129.212 103.81 125.904 99.6976 123.392 99.0136C120.88 98.3296 102.964 98.7856 102.964 98.7856L84.3639 99.5976Z" fill="#91BC25"/>
<path id="Vector_11" d="M107.796 180.311C104.996 180.311 101.872 180.267 98.504 180.171H97.948C96.668 180.171 89.948 180.171 83.108 180.059C75.8 179.943 64.616 177.059 62.84 176.391C62.44 176.247 61.532 175.903 64.04 165.347C65.136 160.699 66.44 156.071 66.68 155.187C65.26 154.367 54.3 148.007 53.528 147.119C52.684 146.155 52.78 141.519 53.02 133.403C53.252 125.671 56.964 103.439 57.716 101.715C58.516 99.8631 80.056 99.4831 84.372 99.4271L102.972 98.6271C103.708 98.6071 120.972 98.1791 123.46 98.8631C125.004 99.2631 128.912 101.639 131.936 114.415C134.004 123.159 131.404 153.511 130.424 164.935C130.236 167.131 130.1 168.719 130.112 168.875C130.202 169.154 130.306 169.427 130.424 169.695C130.912 170.895 131.824 173.151 131.824 175.063C131.824 177.463 130.196 177.815 125.356 178.907L123.356 179.367C120.596 179.999 115.2 180.311 107.796 180.311ZM114.336 98.8631C108.9 98.8631 103.076 99.0071 102.972 99.0111L84.372 99.8111C74.492 99.9431 58.62 100.611 58.076 101.859C57.328 103.567 53.644 125.695 53.412 133.399C53.212 140.131 53.036 145.947 53.812 146.843C54.448 147.571 63.548 152.907 67.012 154.903C67.0505 154.925 67.0805 154.96 67.0972 155.001C67.1138 155.043 67.1162 155.088 67.104 155.131C64.26 165.087 61.944 175.599 62.98 175.999C64.744 176.659 75.852 179.523 83.112 179.639C89.956 179.747 96.668 179.751 97.948 179.751H98.516C110.72 180.095 119.5 179.811 123.236 178.951C123.968 178.779 124.64 178.631 125.256 178.491C129.984 177.423 131.412 177.099 131.412 175.035C131.412 173.203 130.52 170.999 130.04 169.815C129.909 169.521 129.797 169.219 129.704 168.911C129.684 168.795 129.74 168.091 130.016 164.871C130.992 153.463 133.588 123.163 131.532 114.471C128.56 101.903 124.816 99.6151 123.344 99.2111C122.292 98.9471 118.424 98.8631 114.336 98.8631Z" fill="#263238"/>
<path id="Vector_12" d="M95.372 110.336C95.3328 110.337 95.2944 110.326 95.2616 110.305C95.2288 110.283 95.2032 110.253 95.188 110.216C95.1774 110.192 95.1717 110.166 95.1712 110.14C95.1707 110.114 95.1754 110.087 95.1851 110.063C95.1947 110.038 95.2092 110.016 95.2275 109.997C95.2459 109.978 95.2678 109.963 95.292 109.952C96.2015 109.564 97.0859 109.119 97.94 108.62C97.9628 108.607 97.988 108.599 98.0142 108.595C98.0403 108.592 98.0669 108.594 98.0923 108.601C98.1178 108.608 98.1416 108.619 98.1625 108.635C98.1834 108.652 98.2009 108.672 98.214 108.694C98.2271 108.717 98.2356 108.743 98.239 108.769C98.2424 108.795 98.2406 108.821 98.2337 108.847C98.2269 108.872 98.215 108.896 98.199 108.917C98.1829 108.938 98.1628 108.955 98.14 108.968C97.2716 109.475 96.3725 109.926 95.448 110.32C95.4242 110.331 95.3982 110.337 95.372 110.336Z" fill="#263238"/>
<path id="Vector_13" d="M99.2479 108.246C99.215 108.246 99.1825 108.238 99.1533 108.222C99.1241 108.207 99.099 108.185 99.08 108.158C99.0514 108.113 99.0417 108.059 99.0529 108.008C99.0642 107.956 99.0955 107.911 99.14 107.882C102.32 105.764 105.111 103.115 107.392 100.05C107.407 100.028 107.426 100.01 107.449 99.9959C107.471 99.9818 107.496 99.9722 107.522 99.9677C107.548 99.9633 107.575 99.964 107.6 99.9699C107.626 99.9758 107.65 99.9867 107.672 100.002C107.693 100.017 107.712 100.036 107.726 100.058C107.74 100.08 107.75 100.104 107.754 100.13C107.758 100.156 107.758 100.182 107.752 100.207C107.746 100.233 107.735 100.257 107.72 100.278C105.408 103.383 102.581 106.067 99.3599 108.214C99.3268 108.236 99.2877 108.247 99.2479 108.246Z" fill="#263238"/>
<path id="Vector_14" d="M101.6 109.366C101.564 109.365 101.529 109.356 101.498 109.337C101.467 109.319 101.442 109.293 101.424 109.262C101.411 109.239 101.403 109.213 101.401 109.187C101.398 109.161 101.4 109.134 101.408 109.109C101.415 109.084 101.427 109.06 101.444 109.04C101.46 109.019 101.481 109.002 101.504 108.99C103.504 107.918 105.844 104.65 105.868 104.618C105.882 104.594 105.901 104.573 105.924 104.557C105.946 104.541 105.972 104.53 105.999 104.524C106.026 104.518 106.054 104.518 106.081 104.524C106.108 104.53 106.134 104.541 106.157 104.557C106.179 104.573 106.198 104.594 106.212 104.618C106.226 104.641 106.235 104.668 106.239 104.695C106.242 104.723 106.24 104.751 106.232 104.777C106.224 104.804 106.21 104.829 106.192 104.85C106.096 104.986 103.792 108.226 101.692 109.342C101.664 109.358 101.632 109.366 101.6 109.366Z" fill="#263238"/>
<path id="Vector_15" d="M89.7159 141.502C89.6738 141.501 89.633 141.487 89.5992 141.462C89.5655 141.437 89.5405 141.402 89.5279 141.362L88.8559 139.274C88.8472 139.249 88.8436 139.222 88.8454 139.196C88.8472 139.17 88.8543 139.144 88.8662 139.12C88.8782 139.097 88.8948 139.076 88.915 139.059C88.9352 139.042 88.9586 139.029 88.9839 139.022C89.0343 139.005 89.0891 139.009 89.1364 139.033C89.1836 139.057 89.2194 139.099 89.2359 139.15L89.9079 141.238C89.9243 141.288 89.92 141.343 89.896 141.39C89.872 141.437 89.8303 141.473 89.7799 141.49C89.7595 141.497 89.7378 141.501 89.7159 141.502Z" fill="#263238"/>
<path id="Vector_16" d="M93.3799 152.878C93.3377 152.878 93.2966 152.864 93.2627 152.839C93.2288 152.814 93.204 152.778 93.1919 152.738L90.2159 143.502C90.1995 143.449 90.2048 143.391 90.2307 143.342C90.2566 143.293 90.3009 143.256 90.3539 143.24C90.407 143.223 90.4644 143.229 90.5135 143.255C90.5626 143.28 90.5995 143.325 90.6159 143.378L93.5919 152.618C93.6073 152.668 93.6025 152.723 93.5786 152.77C93.5548 152.817 93.5137 152.853 93.4639 152.87L93.3799 152.878Z" fill="#263238"/>
<path id="Vector_17" d="M94.296 153.107C94.2574 153.109 94.2194 153.098 94.188 153.075C94.1656 153.062 94.1462 153.043 94.1309 153.022C94.1156 153.001 94.1046 152.976 94.0987 152.951C94.0927 152.925 94.0919 152.898 94.0962 152.873C94.1006 152.847 94.11 152.822 94.124 152.799L97.092 148.123C97.1055 148.101 97.1235 148.081 97.1448 148.065C97.1662 148.05 97.1905 148.038 97.2163 148.032C97.2421 148.026 97.2688 148.026 97.2949 148.03C97.321 148.035 97.3458 148.045 97.368 148.059C97.4123 148.088 97.4438 148.133 97.4557 148.184C97.4676 148.236 97.4591 148.29 97.432 148.335L94.464 153.015C94.4456 153.043 94.4207 153.066 94.3914 153.082C94.3621 153.098 94.3294 153.107 94.296 153.107Z" fill="#263238"/>
<path id="Vector_18" d="M101.028 150.366C100.989 150.368 100.95 150.357 100.917 150.337C100.884 150.316 100.858 150.286 100.842 150.25C100.826 150.215 100.821 150.175 100.828 150.137C100.835 150.098 100.853 150.063 100.88 150.034L108.08 141.93C108.115 141.891 108.165 141.867 108.219 141.864C108.272 141.861 108.324 141.879 108.364 141.914C108.404 141.95 108.428 142 108.431 142.053C108.434 142.106 108.415 142.159 108.38 142.198L101.18 150.302C101.161 150.323 101.137 150.34 101.111 150.351C101.085 150.362 101.056 150.367 101.028 150.366Z" fill="#263238"/>
<path id="Vector_19" d="M97.9479 180.155H97.8919L82.3999 175.639C82.3746 175.632 82.3511 175.62 82.3306 175.603C82.3102 175.587 82.2931 175.566 82.2805 175.543C82.2679 175.52 82.2599 175.495 82.257 175.469C82.2542 175.443 82.2565 175.416 82.2639 175.391C82.2707 175.366 82.2827 175.342 82.299 175.321C82.3153 175.3 82.3357 175.283 82.3589 175.27C82.382 175.258 82.4075 175.25 82.4338 175.247C82.4601 175.244 82.4867 175.247 82.5119 175.255L97.9999 179.763C98.0529 179.771 98.1008 179.799 98.1331 179.841C98.1653 179.884 98.1793 179.938 98.1719 179.991C98.1644 180.044 98.1362 180.092 98.0935 180.124C98.0507 180.157 97.9969 180.171 97.9439 180.163L97.9479 180.155Z" fill="#263238"/>
<path id="Vector_20" d="M80.632 175.109H80.576L77.92 174.333C77.867 174.319 77.822 174.283 77.795 174.235C77.768 174.187 77.7612 174.131 77.776 174.077C77.7909 174.024 77.8262 173.979 77.8742 173.952C77.9222 173.925 77.979 173.919 78.032 173.933L80.688 174.709C80.7132 174.717 80.7367 174.729 80.7572 174.746C80.7777 174.762 80.7947 174.782 80.8074 174.805C80.82 174.828 80.828 174.854 80.8308 174.88C80.8337 174.906 80.8314 174.932 80.824 174.957C80.8134 175.001 80.7887 175.039 80.754 175.066C80.7192 175.094 80.6763 175.109 80.632 175.109Z" fill="#263238"/>
<path id="Vector_21" d="M84.204 48.8506C84.204 48.8506 76.144 46.9986 74.604 49.0706C73.064 51.1426 76.132 53.1026 75.696 53.5386C75.26 53.9746 65.888 58.7666 66.648 63.4546C67.408 68.1426 73.732 72.9346 73.952 74.2546C74.172 75.5746 66.648 75.9986 65.668 77.9586C64.688 79.9186 63.268 89.1826 71.444 92.2346C79.62 95.2866 89.844 90.1626 92.692 90.1626C95.54 90.1626 98.36 95.7226 101.628 95.3946C103.619 95.1668 105.45 94.1936 106.752 92.6706C106.752 92.6706 110.128 97.3586 115.032 95.3946C119.936 93.4306 125.604 86.5666 123.208 84.4986C120.812 82.4306 118.084 81.7746 119.828 79.9226C121.572 78.0706 125.168 73.1666 124.628 68.9146C124.088 64.6626 119.068 64.3386 117.108 63.0306C115.148 61.7226 119.288 59.5426 119.18 55.9466C119.072 52.3506 116.452 46.3466 103.16 42.3466C89.868 38.3466 83.328 40.2746 82.672 43.6546C82.4669 44.5796 82.5 45.5414 82.7679 46.4502C83.0358 47.3589 83.5299 48.1848 84.204 48.8506Z" fill="#263238"/>
<path id="Vector_22" d="M112.664 96.0594C109.548 96.0594 107.348 93.6874 106.76 92.9754C105.437 94.4434 103.623 95.3767 101.66 95.5994C99.84 95.7834 98.192 94.2674 96.604 92.7994C95.244 91.5434 93.956 90.3594 92.704 90.3594C91.94 90.3594 90.568 90.7594 88.832 91.2714C84.252 92.6114 77.328 94.6354 71.388 92.4194C68.548 91.3594 66.588 89.4754 65.532 86.8194C64.132 83.2514 64.82 79.2194 65.5 77.8674C66.06 76.7514 68.444 76.1274 70.548 75.5794C72.016 75.1794 73.84 74.7194 73.748 74.2834C73.656 73.8474 72.844 72.9834 71.872 71.9354C69.916 69.8194 66.956 66.6234 66.448 63.4954C65.78 59.3954 72.348 55.3794 74.824 53.8674C75.168 53.6554 75.496 53.4674 75.548 53.4034C75.4181 53.1841 75.2709 52.9754 75.108 52.7794C74.444 51.9154 73.332 50.4634 74.44 48.9594C75.784 47.1354 81.64 48.1594 83.608 48.5314C83.0644 47.8453 82.6813 47.0462 82.4869 46.1928C82.2924 45.3394 82.2914 44.4532 82.484 43.5994C82.6037 43.0847 82.8319 42.6015 83.1533 42.1821C83.4748 41.7627 83.8821 41.4167 84.348 41.1674C87.68 39.1674 94.564 39.5114 103.224 42.1394C117.048 46.3314 119.284 52.5874 119.388 55.9474C119.44 57.7554 118.472 59.1994 117.692 60.3474C117.16 61.1474 116.704 61.8194 116.8 62.3114C116.831 62.4264 116.884 62.5339 116.958 62.6274C117.032 62.721 117.123 62.7985 117.228 62.8554C117.896 63.241 118.602 63.5548 119.336 63.7914C121.604 64.6314 124.424 65.6794 124.832 68.8834C125.368 73.0634 122.032 77.8714 119.984 80.0514C119.833 80.1765 119.711 80.3328 119.626 80.5095C119.541 80.6863 119.495 80.8793 119.492 81.0754C119.556 81.6594 120.344 82.1914 121.344 82.8594C122.04 83.3123 122.708 83.8065 123.344 84.3394C123.615 84.597 123.813 84.922 123.917 85.2812C124.021 85.6404 124.028 86.0208 123.936 86.3834C123.432 89.3914 118.98 94.0274 115.116 95.5834C114.336 95.8963 113.504 96.0578 112.664 96.0594ZM106.764 92.4594C106.795 92.4598 106.825 92.4677 106.852 92.4823C106.879 92.4969 106.903 92.5179 106.92 92.5434C106.956 92.5874 110.268 97.0794 114.968 95.1994C118.728 93.6954 123.056 89.1994 123.54 86.3154C123.664 85.5714 123.512 85.0074 123.084 84.6394C122.459 84.1206 121.803 83.6397 121.12 83.1994C120.036 82.4714 119.18 81.8954 119.092 81.1314C119.088 80.8762 119.14 80.6232 119.244 80.3903C119.349 80.1574 119.503 79.9502 119.696 79.7834C121.56 77.7834 124.956 72.9834 124.436 68.9394C124.056 65.9794 121.36 64.9794 119.196 64.1754C118.433 63.9284 117.698 63.6013 117.004 63.1994C116.856 63.1131 116.727 62.9977 116.624 62.8602C116.522 62.7228 116.448 62.566 116.408 62.3994C116.28 61.7474 116.756 61.0354 117.36 60.1354C118.108 59.0234 119.036 57.6394 118.988 55.9594C118.888 52.7074 116.696 46.6434 103.108 42.5234C94.556 39.9274 87.792 39.5594 84.556 41.5114C84.1383 41.732 83.7724 42.0391 83.4827 42.4122C83.193 42.7854 82.9862 43.216 82.876 43.6754C82.675 44.5704 82.7035 45.5018 82.9587 46.3829C83.214 47.264 83.6877 48.0663 84.336 48.7154C84.3692 48.7455 84.3918 48.7854 84.4005 48.8294C84.4091 48.8734 84.4034 48.919 84.384 48.9594C84.3637 48.9993 84.3306 49.0312 84.29 49.0501C84.2494 49.0689 84.2036 49.0736 84.16 49.0634C81.952 48.5554 75.964 47.5954 74.776 49.2034C73.848 50.4674 74.776 51.6674 75.44 52.5474C75.84 53.0554 76.116 53.4274 75.84 53.6954C75.5867 53.8896 75.3193 54.0647 75.04 54.2194C72.86 55.5514 66.24 59.6034 66.852 63.4394C67.34 66.4474 70.248 69.5914 72.176 71.6714C73.316 72.9034 74.068 73.7154 74.152 74.2274C74.284 75.0274 72.756 75.4274 70.644 75.9754C68.72 76.4754 66.328 77.0994 65.844 78.0554C65.212 79.3194 64.548 83.2754 65.888 86.6794C66.3763 87.9312 67.1328 89.0608 68.1044 89.9889C69.076 90.917 70.2392 91.621 71.512 92.0514C77.328 94.2234 84.172 92.2194 88.712 90.8954C90.48 90.3794 91.872 89.9674 92.712 89.9674C94.12 89.9674 95.464 91.2034 96.884 92.5114C98.408 93.9154 99.984 95.3634 101.628 95.1994C103.562 94.9724 105.341 94.0274 106.612 92.5514C106.629 92.5256 106.651 92.5039 106.677 92.488C106.704 92.472 106.733 92.4623 106.764 92.4594Z" fill="#263238"/>
<path id="Vector_23" d="M85.656 83.815C85.656 83.815 82.932 100.815 82.824 101.359C82.716 101.903 87.624 106.807 94.264 105.935C98.1535 105.468 101.728 103.565 104.288 100.599L102.22 83.707C102.22 83.707 96.552 86.431 93.064 86.323C89.576 86.215 85.656 83.815 85.656 83.815Z" fill="#FCECC2"/>
<path id="Vector_24" d="M92.6961 106.239C89.1274 106.18 85.7187 104.748 83.1801 102.239C82.5681 101.587 82.6121 101.379 82.6281 101.299C82.7321 100.767 85.4281 83.9348 85.4561 83.7628C85.4619 83.7304 85.4754 83.7 85.4955 83.674C85.5156 83.648 85.5417 83.6272 85.5716 83.6135C85.6014 83.5997 85.6341 83.5934 85.667 83.595C85.6998 83.5966 85.7317 83.6062 85.7601 83.6228C85.8001 83.6468 89.6801 85.9948 93.0721 86.1028C96.4641 86.2108 102.076 83.5348 102.132 83.5068C102.161 83.4921 102.192 83.4844 102.224 83.4844C102.256 83.4844 102.288 83.4921 102.316 83.5068C102.343 83.5227 102.367 83.5447 102.384 83.571C102.401 83.5974 102.412 83.6274 102.416 83.6588L104.488 100.547C104.491 100.573 104.49 100.599 104.483 100.625C104.476 100.65 104.464 100.674 104.448 100.695C101.847 103.691 98.2296 105.62 94.2921 106.111C93.7635 106.189 93.2303 106.231 92.6961 106.239ZM85.8081 84.1348C85.4361 86.4508 83.1201 100.891 83.0081 101.399C83.0921 101.895 87.7401 106.599 94.2081 105.739C98.011 105.259 101.509 103.41 104.048 100.539L102.056 83.9988C100.904 84.5308 96.1801 86.6148 93.0601 86.5188C90.0321 86.4268 86.7401 84.6708 85.8081 84.1348Z" fill="#263238"/>
<path id="Vector_25" d="M84.5359 92.9364L96.0119 90.7164L85.6559 83.8164L84.5359 92.9364Z" fill="#263238"/>
<path id="Vector_26" d="M84.5361 93.1373C84.4861 93.1359 84.4382 93.1176 84.4001 93.0853C84.3777 93.0631 84.3606 93.036 84.3502 93.0062C84.3398 92.9764 84.3364 92.9446 84.3401 92.9133L85.4561 83.7933C85.4602 83.7594 85.473 83.7273 85.4934 83.6999C85.5137 83.6725 85.5408 83.651 85.5721 83.6373C85.6023 83.6215 85.6359 83.6133 85.6701 83.6133C85.7042 83.6133 85.7378 83.6215 85.7681 83.6373L96.1201 90.5413C96.1536 90.5624 96.18 90.5932 96.1958 90.6296C96.2115 90.666 96.2158 90.7064 96.2081 90.7453C96.1999 90.7843 96.1804 90.8199 96.1519 90.8477C96.1234 90.8755 96.0872 90.8942 96.0481 90.9013L84.5761 93.1213L84.5361 93.1373ZM85.8161 84.1653L84.7681 92.6893L95.4921 90.6133L85.8161 84.1653Z" fill="#263238"/>
<path id="Vector_27" d="M79.6 68.8276C79.6 68.8276 77.68 66.3956 76.8 69.4676C75.92 72.5396 79.744 76.2676 79.744 76.2676L79.6 68.8276Z" fill="#FCECC2"/>
<path id="Vector_28" d="M79.7279 76.4506C79.6805 76.4484 79.6354 76.43 79.5999 76.3986C79.4399 76.2426 75.6839 72.5666 76.6039 69.4146C76.8959 68.4146 77.3359 67.8506 77.9119 67.7386C78.8479 67.5586 79.7319 68.6586 79.7679 68.7066C79.7958 68.7404 79.8113 68.7828 79.8119 68.8266L79.9399 76.2506C79.9398 76.2901 79.9285 76.3288 79.9072 76.3621C79.886 76.3954 79.8557 76.4219 79.8199 76.4386C79.79 76.4471 79.759 76.4512 79.7279 76.4506ZM78.1279 68.1146C78.0826 68.1105 78.0371 68.1105 77.9919 68.1146C77.5919 68.1946 77.2359 68.6786 76.9919 69.5106C76.2999 71.8866 78.6239 74.7346 79.5359 75.7306L79.4159 68.8866C79.1719 68.6306 78.6199 68.1146 78.1119 68.1146H78.1279Z" fill="#263238"/>
<path id="Vector_29" d="M107.108 68.8276C107.108 68.8276 109.028 66.3956 109.908 69.4676C110.788 72.5396 106.964 76.2676 106.964 76.2676L107.108 68.8276Z" fill="#FCECC2"/>
<path id="Vector_30" d="M106.98 76.4511C106.953 76.4553 106.926 76.4553 106.9 76.4511C106.863 76.4357 106.832 76.4095 106.811 76.3759C106.789 76.3423 106.778 76.303 106.78 76.2631L106.908 68.8391C106.909 68.796 106.923 68.7542 106.948 68.7191C106.988 68.6711 107.876 67.5671 108.804 67.7511C109.384 67.8631 109.824 68.4271 110.116 69.4271C111.032 72.5791 107.276 76.2551 107.116 76.4111C107.077 76.441 107.029 76.4552 106.98 76.4511ZM107.304 68.8991L107.2 75.7431C108.108 74.7471 110.436 71.8991 109.744 69.5231C109.5 68.6911 109.152 68.2071 108.74 68.1271C108.188 68.0231 107.556 68.6071 107.304 68.8991Z" fill="#263238"/>
<path id="Vector_31" d="M85.6319 53.4595C85.6319 53.4595 80.1359 58.7995 79.3399 60.3995C78.5439 61.9995 78.8639 80.2315 79.7399 81.9995C80.6159 83.7675 89.3759 90.6035 90.8079 91.1595C92.2399 91.7155 95.5079 92.2755 98.0559 90.9995C100.604 89.7235 106.736 83.1955 107.376 81.5235C108.016 79.8515 107.216 60.7235 106.816 58.9035C106.416 57.0835 96.7999 50.5115 92.7199 50.1955C88.6399 49.8795 85.6319 53.4595 85.6319 53.4595Z" fill="#FCECC2"/>
<path id="Vector_32" d="M94.4 91.9418C93.1478 91.9485 91.9039 91.7374 90.724 91.3178C89.184 90.7178 80.436 83.8338 79.548 82.0618C78.66 80.2898 78.316 61.9618 79.148 60.2978C79.948 58.6978 85.148 53.6218 85.472 53.3218C85.672 53.0858 88.672 49.6738 92.724 49.9938C96.68 50.3058 106.552 56.7618 107 58.8298C107.372 60.5498 108.2 79.8498 107.548 81.5658C106.864 83.3658 100.656 89.8898 98.132 91.1658C96.9639 91.7071 95.687 91.9726 94.4 91.9418ZM92.2 50.3738C88.536 50.3738 85.8 53.5538 85.772 53.5738C85.716 53.6258 80.292 58.9058 79.52 60.4498C78.748 61.9938 79.088 80.1938 79.92 81.8538C80.752 83.5138 89.424 90.3458 90.884 90.9138C92.42 91.5098 95.572 91.9618 97.972 90.7618C100.544 89.4778 106.604 82.9378 107.192 81.3938C107.836 79.7058 106.996 60.5938 106.624 58.8898C106.252 57.1858 96.72 50.7058 92.704 50.3978C92.54 50.3978 92.376 50.3738 92.212 50.3738H92.2Z" fill="#263238"/>
<path id="Vector_33" d="M89.952 50.1942C89.952 50.1942 98.184 57.7062 104.104 57.9942L110.028 58.2822C110.028 58.2822 97.028 56.5502 92.984 47.7422C92.984 47.7422 88.508 43.9982 89.952 50.1942Z" fill="#263238"/>
<path id="Vector_34" d="M110.028 58.4847L104.108 58.1967C98.184 57.9087 90.168 50.6567 89.828 50.3447C89.7991 50.3176 89.7783 50.2829 89.768 50.2447C89.292 48.1967 89.396 46.9967 90.088 46.5727C91.112 45.9447 92.924 47.4207 93.124 47.5887C93.1481 47.6079 93.1673 47.6326 93.18 47.6607C97.132 56.2687 109.936 58.0607 110.064 58.0887C110.116 58.0947 110.163 58.1206 110.196 58.161C110.229 58.2013 110.245 58.2528 110.24 58.3047C110.234 58.3559 110.209 58.403 110.169 58.4364C110.13 58.4698 110.08 58.487 110.028 58.4847ZM90.132 50.0847C90.804 50.6847 98.56 57.5167 104.132 57.7887L107.476 57.9527C103.476 56.9447 95.792 54.2367 92.84 47.8607C92.32 47.4327 90.948 46.5087 90.3 46.9047C89.932 47.1287 89.624 47.8567 90.132 50.0927V50.0847Z" fill="#263238"/>
<path id="Vector_35" d="M95.1999 73.3314C95.1495 73.3315 95.1009 73.3127 95.0639 73.2785C95.0268 73.2444 95.0039 73.1976 94.9999 73.1474L94.3639 65.1034C94.3618 65.0771 94.3649 65.0507 94.373 65.0256C94.3811 65.0005 94.3941 64.9773 94.4112 64.9572C94.4283 64.9372 94.4491 64.9207 94.4726 64.9087C94.4961 64.8967 94.5217 64.8895 94.5479 64.8874C94.5742 64.8853 94.6006 64.8883 94.6257 64.8965C94.6507 64.9046 94.674 64.9175 94.694 64.9346C94.7141 64.9517 94.7306 64.9726 94.7426 64.996C94.7546 65.0195 94.7618 65.0451 94.7639 65.0714L95.3999 73.1154C95.4021 73.1416 95.3991 73.1681 95.391 73.1932C95.3829 73.2183 95.37 73.2416 95.3529 73.2616C95.3358 73.2817 95.3149 73.2982 95.2913 73.3102C95.2678 73.3221 95.2422 73.3293 95.2159 73.3314H95.1999Z" fill="#263238"/>
<path id="Vector_36" d="M93.3561 77.1559C92.2441 77.1559 91.1801 75.9559 91.1361 75.8919C91.1174 75.8724 91.1028 75.8493 91.0933 75.8241C91.0837 75.7988 91.0794 75.7719 91.0805 75.7449C91.0816 75.7179 91.0882 75.6915 91.0999 75.6671C91.1115 75.6428 91.1279 75.621 91.1482 75.6032C91.1685 75.5853 91.1921 75.5718 91.2178 75.5633C91.2434 75.5549 91.2705 75.5517 91.2974 75.554C91.3243 75.5563 91.3505 75.5641 91.3743 75.5768C91.3981 75.5895 91.4191 75.6068 91.4361 75.6279C91.4361 75.6279 92.4281 76.7559 93.3561 76.7559C94.1201 76.7559 95.2761 75.2679 95.6601 74.6959C95.6742 74.6737 95.6927 74.6547 95.7144 74.6398C95.736 74.625 95.7605 74.6146 95.7862 74.6094C95.812 74.6042 95.8385 74.6042 95.8642 74.6094C95.89 74.6146 95.9144 74.625 95.9361 74.6399C95.9799 74.6692 96.0104 74.7146 96.0209 74.7663C96.0314 74.818 96.021 74.8718 95.9921 74.9159C95.8401 75.1439 94.4681 77.1559 93.3561 77.1559Z" fill="#263238"/>
<path id="Vector_37" d="M92.0919 80.8435C91.8479 80.8435 91.5999 80.8435 91.3519 80.8195C88.8879 80.6555 87.0519 77.6635 86.9719 77.5355C86.9582 77.5129 86.9491 77.4878 86.9452 77.4617C86.9412 77.4356 86.9424 77.409 86.9487 77.3834C86.955 77.3578 86.9663 77.3336 86.982 77.3124C86.9976 77.2911 87.0173 77.2731 87.0399 77.2595C87.0625 77.2458 87.0875 77.2367 87.1136 77.2328C87.1397 77.2288 87.1663 77.23 87.192 77.2363C87.2176 77.2426 87.2417 77.2539 87.263 77.2696C87.2842 77.2852 87.3022 77.3049 87.3159 77.3275C87.3159 77.3595 89.1239 80.2675 91.3799 80.4195C93.0208 80.4751 94.661 80.2891 96.2479 79.8675C96.3009 79.8526 96.3577 79.8594 96.4057 79.8864C96.4537 79.9135 96.489 79.9584 96.5039 80.0115C96.5187 80.0645 96.5119 80.1213 96.4849 80.1693C96.4579 80.2173 96.4129 80.2526 96.3599 80.2675C94.9656 80.6306 93.5325 80.824 92.0919 80.8435Z" fill="#263238"/>
<path id="Vector_38" d="M95.508 63.8141C95.508 63.8141 98.308 61.7421 99.408 61.0141C100.508 60.2861 104.108 61.6501 104.108 61.6501C104.108 61.6501 101.4 60.1381 99.968 59.8981C98.536 59.6581 95.588 61.7301 95.348 62.6981C95.108 63.6661 94.4 63.4141 95.508 63.8141Z" fill="#263238"/>
<path id="Vector_39" d="M95.508 64.0011C95.4855 64.005 95.4625 64.005 95.44 64.0011C94.912 63.8131 94.756 63.7571 94.708 63.6011C94.6992 63.5389 94.7063 63.4754 94.7287 63.4167C94.7511 63.3579 94.788 63.3058 94.836 63.2651C94.9926 63.0977 95.1029 62.8922 95.156 62.6691C95.416 61.6251 98.436 59.4691 100 59.7331C101.452 59.9731 104.096 61.4451 104.208 61.5051C104.252 61.5304 104.284 61.571 104.3 61.619C104.315 61.667 104.313 61.7191 104.292 61.7651C104.271 61.8111 104.233 61.8474 104.186 61.8667C104.14 61.886 104.087 61.8869 104.04 61.8691C103.068 61.5011 100.364 60.6691 99.52 61.2131C98.42 61.9171 95.656 63.9731 95.628 63.9931C95.5894 64.0065 95.548 64.0093 95.508 64.0011ZM95.168 63.4611L95.476 63.5771C95.952 63.2211 98.304 61.4851 99.3 60.8451C99.872 60.4771 100.964 60.5851 101.972 60.8051C101.323 60.4897 100.64 60.2507 99.936 60.0931C98.612 59.8771 95.756 61.8851 95.536 62.7331C95.4792 63.0086 95.3524 63.2648 95.168 63.4771V63.4611Z" fill="#263238"/>
<path id="Vector_40" d="M89.7719 64.1951C89.6256 63.8482 89.3827 63.5506 89.0721 63.3379C88.7614 63.1251 88.3962 63.0062 88.0199 62.9951C86.6679 62.9151 80.6919 64.5111 81.7279 64.5111C82.7639 64.5111 87.0639 64.4311 88.1799 64.4311C88.7212 64.4647 89.2636 64.3843 89.7719 64.1951Z" fill="#263238"/>
<path id="Vector_41" d="M81.728 64.7156C81.6723 64.7234 81.6154 64.7155 81.5639 64.6929C81.5123 64.6703 81.4681 64.6339 81.436 64.5876C81.4174 64.5539 81.4077 64.516 81.4077 64.4776C81.4077 64.4391 81.4174 64.4013 81.436 64.3676C81.68 63.9676 86.916 62.7316 88.024 62.7996C88.4394 62.8107 88.8426 62.9421 89.1848 63.1778C89.527 63.4135 89.7935 63.7435 89.952 64.1276C89.9683 64.1736 89.9676 64.2239 89.95 64.2694C89.9324 64.3149 89.899 64.3525 89.856 64.3756C89.3186 64.5774 88.7453 64.6659 88.172 64.6356C87.604 64.6356 86.212 64.6356 84.844 64.6756C83.476 64.7156 82.236 64.7156 81.728 64.7156ZM87.904 63.1996C86.896 63.1996 84.088 63.8756 82.636 64.3076L84.848 64.2756C86.216 64.2556 87.612 64.2356 88.18 64.2356C88.6236 64.2454 89.0664 64.1942 89.496 64.0836C89.3439 63.8199 89.1262 63.6 88.8641 63.4451C88.602 63.2902 88.3044 63.2057 88 63.1996H87.904Z" fill="#263238"/>
<path id="Vector_42" d="M103.472 68.75C102.27 69.0226 101.041 69.1568 99.808 69.15C98.208 69.07 96.78 68.59 97.408 69.306C98.036 70.022 99.32 70.662 101.308 70.262C103.296 69.862 104.028 69.466 103.472 68.75Z" fill="#263238"/>
<path id="Vector_43" d="M89.0561 68.75C87.854 69.0226 86.6247 69.1568 85.3921 69.15C83.7921 69.07 82.3681 68.59 82.9921 69.306C83.6161 70.022 84.9041 70.662 86.8961 70.262C88.8881 69.862 89.6001 69.466 89.0561 68.75Z" fill="#263238"/>
<path id="Vector_44" d="M62.552 114.657C62.552 114.657 64.952 101.457 66.04 100.165C67.128 98.8727 79.008 89.1567 79.66 88.5047C80.312 87.8527 85 80.7647 85.22 81.6367C85.44 82.5087 84.676 86.3247 83.256 88.3927C81.836 90.4607 79.88 92.9727 79.88 92.9727C79.88 92.9727 87.2 94.8247 87.6 95.2607C88 95.6967 90.52 101.121 90.652 101.797C90.884 102.965 90.548 104.217 89.564 104.305C88.668 104.381 82.808 101.361 82.808 101.361L78.136 102.001C78.136 102.001 74.76 106.141 72.468 106.905C71.4401 107.281 70.3833 107.572 69.308 107.777L69.42 115.841L62.552 114.657Z" fill="#FCECC2"/>
<path id="Vector_45" d="M69.4199 116.056H69.3839L62.5199 114.856C62.4667 114.846 62.4193 114.816 62.3879 114.772C62.359 114.728 62.3476 114.675 62.3559 114.624C62.4559 114.084 64.7759 101.372 65.8879 100.04C66.6159 99.1635 71.9199 94.7395 75.7919 91.5115C77.7519 89.8755 79.3039 88.5835 79.5199 88.3635C79.7359 88.1435 80.3479 87.2875 81.0799 86.2675C83.9279 82.2995 84.7719 81.2915 85.1919 81.3715C85.246 81.3828 85.2956 81.4096 85.3347 81.4487C85.3738 81.4878 85.4006 81.5374 85.4119 81.5915C85.6479 82.5355 84.8599 86.4115 83.4119 88.5115C82.2599 90.1875 80.7399 92.1755 80.2119 92.8555C81.9159 93.2915 87.3239 94.6995 87.7479 95.1195C88.1719 95.5395 90.7119 101.052 90.8519 101.764C90.9457 102.138 90.9639 102.527 90.9056 102.908C90.8472 103.289 90.7133 103.655 90.5119 103.984C90.4032 104.132 90.2643 104.255 90.1043 104.345C89.9443 104.436 89.7669 104.491 89.5839 104.508C88.6719 104.588 83.5839 101.996 82.7839 101.572L78.2399 102.2C77.7959 102.74 74.7239 106.38 72.5319 107.108C71.5447 107.457 70.536 107.741 69.5119 107.96L69.6199 115.852C69.6195 115.881 69.6128 115.91 69.6004 115.937C69.588 115.964 69.5701 115.988 69.5479 116.008C69.5114 116.037 69.4666 116.054 69.4199 116.056ZM62.7999 114.492L69.1999 115.6L69.0919 107.776C69.0924 107.727 69.1105 107.68 69.1428 107.643C69.1751 107.606 69.2195 107.582 69.2679 107.576C70.331 107.373 71.3757 107.084 72.3919 106.712C74.5959 105.976 77.9319 101.912 77.9639 101.872C77.9964 101.833 78.0419 101.807 78.0919 101.8L82.7999 101.164C82.8397 101.156 82.8809 101.163 82.9159 101.184C85.1639 102.34 88.9639 104.164 89.5639 104.104C89.6914 104.092 89.815 104.053 89.9262 103.99C90.0373 103.926 90.1334 103.84 90.2079 103.736C90.3757 103.452 90.4858 103.138 90.5318 102.812C90.5778 102.486 90.5588 102.154 90.4759 101.836C90.3319 101.116 87.8399 95.7595 87.4799 95.3995C87.1399 95.0995 82.6079 93.8675 79.8359 93.1635C79.8039 93.1552 79.7744 93.1391 79.7501 93.1166C79.7259 93.0941 79.7075 93.0659 79.6968 93.0346C79.6861 93.0033 79.6834 92.9698 79.6888 92.9371C79.6942 92.9045 79.7077 92.8737 79.7279 92.8475C79.7279 92.8195 81.6999 90.3195 83.0959 88.2795C84.4919 86.2395 85.1479 82.8115 85.0519 81.8195C84.4439 82.2675 82.4919 84.9915 81.4079 86.4995C80.6359 87.5755 80.0279 88.4235 79.8079 88.6435C79.5879 88.8635 78.0959 90.1075 76.0519 91.8155C72.4079 94.8515 66.9039 99.4435 66.1959 100.292C65.3439 101.312 63.4799 110.7 62.7999 114.492Z" fill="#263238"/>
<path id="Vector_46" d="M90.668 102C90.6354 102.001 90.6031 101.993 90.5743 101.977C90.5456 101.962 90.5213 101.939 90.504 101.912C89.236 100.044 87.124 96.9958 86.856 96.7838C86.588 96.5718 83.208 96.0638 80.204 95.6598C80.1509 95.6523 80.103 95.6241 80.0708 95.5814C80.0385 95.5386 80.0246 95.4848 80.032 95.4318C80.0394 95.3787 80.0676 95.3308 80.1104 95.2985C80.1531 95.2663 80.2069 95.2523 80.26 95.2598C81.764 95.4638 86.708 96.1478 87.108 96.4598C87.508 96.7718 90.496 101.176 90.832 101.66C90.8471 101.682 90.8578 101.706 90.8634 101.732C90.869 101.758 90.8694 101.785 90.8645 101.811C90.8597 101.837 90.8497 101.862 90.8352 101.884C90.8207 101.906 90.8019 101.925 90.78 101.94C90.7491 101.97 90.7102 101.991 90.668 102Z" fill="#263238"/>
<path id="Vector_47" d="M90.4 103.65C90.3709 103.65 90.3421 103.644 90.3158 103.631C90.2896 103.619 90.2664 103.601 90.248 103.578C89.392 102.59 87.68 100.642 87.324 100.342C87.036 100.11 83.66 99.2464 80.624 98.5504C80.5726 98.538 80.5282 98.5058 80.5005 98.4609C80.4727 98.4159 80.4639 98.3618 80.476 98.3104C80.4816 98.2846 80.4923 98.2603 80.5075 98.2389C80.5228 98.2174 80.5422 98.1992 80.5646 98.1854C80.5869 98.1716 80.6119 98.1624 80.6379 98.1585C80.6639 98.1545 80.6905 98.1558 80.716 98.1624C81.776 98.4024 87.116 99.6384 87.58 100.038C88.044 100.438 90.448 103.198 90.552 103.318C90.5693 103.338 90.5826 103.361 90.5911 103.385C90.5995 103.41 90.6029 103.436 90.601 103.463C90.5991 103.489 90.5921 103.514 90.5802 103.537C90.5684 103.561 90.5519 103.581 90.532 103.598C90.4962 103.632 90.449 103.651 90.4 103.65Z" fill="#263238"/>
<path id="Vector_48" d="M90.5279 153.934C90.5279 153.934 81.9679 152.334 81.6279 152.222C81.2879 152.11 75.2279 150.282 74.4279 149.938C73.6279 149.594 63.9279 147.886 63.4719 148.57C63.0159 149.254 62.5599 153.25 62.4439 153.59C62.3279 153.93 61.4159 155.53 61.6439 156.446C61.767 157.278 61.767 158.123 61.6439 158.954C61.6439 158.954 61.5279 164.318 62.8959 164.434C64.2639 164.55 65.5239 159.41 65.5239 159.41C65.5239 159.41 67.4639 160.554 71.4559 160.782C75.4479 161.01 79.3319 159.07 79.3319 159.07L89.9559 161.598L90.5279 153.934Z" fill="#FCECC2"/>
<path id="Vector_49" d="M62.9521 164.637H62.8921C61.4121 164.513 61.4361 159.881 61.4521 158.953C61.573 158.139 61.573 157.311 61.4521 156.497C61.2521 155.697 61.8081 154.497 62.1081 153.869C62.1761 153.717 62.2321 153.597 62.2561 153.533C62.2801 153.469 62.3561 152.977 62.4281 152.481C62.7081 150.637 62.9841 148.941 63.3041 148.461C63.9041 147.565 73.9201 149.505 74.5041 149.757C75.0881 150.009 78.8441 151.165 80.6401 151.717L81.6761 152.033C81.9361 152.117 87.1281 153.101 90.5521 153.741C90.6008 153.75 90.6445 153.777 90.6748 153.816C90.7051 153.855 90.7198 153.904 90.7161 153.953L90.1561 161.601C90.1546 161.63 90.1466 161.659 90.1328 161.684C90.1189 161.71 90.0996 161.732 90.0761 161.749C90.0531 161.767 90.0263 161.779 89.9978 161.785C89.9694 161.79 89.94 161.789 89.9121 161.781L79.3681 159.289C78.8321 159.541 75.1761 161.201 71.4561 160.989C68.1921 160.801 66.2961 160.021 65.6681 159.713C65.3481 160.949 64.2841 164.637 62.9521 164.637ZM64.2961 148.605C64.0719 148.582 63.8453 148.613 63.6361 148.697C63.3481 149.129 63.0121 151.349 62.8361 152.541C62.7361 153.217 62.6841 153.545 62.6481 153.657C62.6121 153.769 62.5601 153.865 62.4801 154.037C62.2241 154.589 61.6801 155.745 61.8521 156.401C61.9817 157.258 61.9817 158.129 61.8521 158.985C61.8081 161.113 62.1121 164.185 62.9281 164.237C63.8081 164.293 64.8721 161.289 65.3281 159.369C65.3361 159.339 65.3506 159.311 65.3706 159.287C65.3907 159.262 65.4157 159.243 65.4441 159.229C65.4721 159.216 65.5029 159.208 65.5341 159.208C65.5653 159.208 65.5961 159.216 65.6241 159.229C65.6241 159.229 67.5801 160.349 71.4681 160.573C75.3561 160.797 79.2041 158.901 79.2441 158.881C79.287 158.867 79.3332 158.867 79.3761 158.881L89.7761 161.337L90.3161 154.105C88.8761 153.837 81.8921 152.529 81.5641 152.417L80.5361 152.101C78.5921 151.505 74.9801 150.397 74.3561 150.129C73.5761 149.789 66.5521 148.605 64.2961 148.605Z" fill="#263238"/>
<path id="Vector_50" d="M60.924 112.328L72.4 114.428L71.972 121.6C71.972 121.6 74.512 122.8 75.284 129.884C76.056 136.968 78.268 153.376 77.716 154.592C77.164 155.808 73.74 161.112 65.784 161.444C57.828 161.776 53.52 154.484 52.748 152.16C51.976 149.836 56.064 134.636 56.284 133.312C56.504 131.988 57.608 122.912 58.604 121.38C59.2179 120.433 59.9611 119.577 60.812 118.836L60.924 112.328Z" fill="#91BC25"/>
<path id="Vector_51" d="M65.256 161.66C57.34 161.66 53.256 154.264 52.56 152.232C51.936 150.364 54.248 140.904 55.488 135.832C55.808 134.52 56.04 133.572 56.088 133.292C56.136 133.012 56.192 132.592 56.28 131.968C56.704 128.928 57.592 122.6 58.436 121.288C59.0431 120.35 59.7767 119.499 60.616 118.76L60.724 112.332C60.7239 112.303 60.7304 112.274 60.7428 112.248C60.7553 112.222 60.7734 112.199 60.796 112.18C60.8189 112.162 60.8454 112.149 60.8736 112.143C60.9019 112.136 60.9314 112.135 60.96 112.14L72.448 114.236C72.4967 114.245 72.5404 114.272 72.5707 114.311C72.601 114.35 72.6157 114.399 72.612 114.448L72.18 121.504C72.712 121.848 74.796 123.572 75.484 129.88C75.676 131.648 75.964 134.032 76.284 136.556C77.456 146.284 78.32 153.8 77.916 154.692C77.884 154.756 74.816 161.284 65.808 161.656L65.256 161.66ZM61.12 112.568L61.012 118.848C61.012 118.877 61.0056 118.906 60.9931 118.932C60.9807 118.959 60.9625 118.982 60.94 119C60.1056 119.728 59.376 120.568 58.772 121.496C57.972 122.732 57.064 129.24 56.676 132.016C56.588 132.644 56.52 133.116 56.48 133.352C56.432 133.648 56.2 134.6 55.876 135.916C54.732 140.6 52.352 150.344 52.94 152.108C53.612 154.108 57.76 161.588 65.776 161.248C73.048 160.948 76.728 156.288 77.536 154.516C77.936 153.656 76.736 143.796 75.872 136.596C75.568 134.068 75.28 131.684 75.072 129.916C74.32 123.036 71.892 121.8 71.872 121.788C71.8367 121.771 71.8074 121.743 71.7875 121.709C71.7676 121.675 71.7581 121.636 71.76 121.596L72.192 114.592L61.12 112.568Z" fill="#263238"/>
<path id="Vector_52" d="M70 120.924C69.3502 120.921 68.701 120.879 68.056 120.8C68.0036 120.793 67.9557 120.767 67.9227 120.726C67.8898 120.685 67.8744 120.632 67.88 120.58C67.887 120.527 67.9144 120.479 67.9562 120.446C67.9981 120.413 68.0511 120.398 68.104 120.404C68.7332 120.48 69.3663 120.52 70 120.524C70.0531 120.524 70.104 120.545 70.1415 120.582C70.179 120.62 70.2 120.67 70.2 120.724C70.2 120.777 70.179 120.827 70.1415 120.865C70.104 120.902 70.0531 120.924 70 120.924Z" fill="#263238"/>
<path id="Vector_53" d="M65.3799 120.339H65.3359C63.7811 119.994 62.2478 119.558 60.7439 119.035C60.6954 119.015 60.6563 118.978 60.6349 118.931C60.6135 118.883 60.6114 118.829 60.6291 118.78C60.6468 118.731 60.6829 118.691 60.7298 118.669C60.7766 118.646 60.8304 118.642 60.8799 118.659C62.3666 119.177 63.8825 119.607 65.4199 119.947C65.4457 119.952 65.4701 119.963 65.4917 119.978C65.5133 119.993 65.5318 120.013 65.5459 120.035C65.56 120.057 65.5696 120.082 65.5741 120.108C65.5785 120.134 65.5778 120.161 65.5719 120.187C65.5619 120.23 65.5374 120.269 65.5025 120.296C65.4676 120.324 65.4244 120.339 65.3799 120.339Z" fill="#263238"/>
<path id="Vector_54" d="M124.08 115.933L122.94 145.377C122.94 145.377 121.684 145.493 121.228 146.061C120.924 146.455 120.656 146.875 120.428 147.317C120.428 147.317 108.904 147.773 103.424 149.373C100.279 150.268 97.2229 151.451 94.2959 152.909L89.2719 152.801L88.2439 166.037L94.9799 166.265C94.9799 166.265 98.2879 168.205 113.352 169.577C128.416 170.949 135.38 171.289 136.976 169.461C138.572 167.633 139.26 164.781 139.488 163.301C139.716 161.821 142.456 152.685 142.456 139.445C142.456 126.205 130.016 107.045 127.276 102.697C124.536 98.3492 121.676 98.6972 119.744 99.1612" fill="#91BC25"/>
<path id="Vector_55" d="M130.588 170.906C126.768 170.906 121.176 170.482 113.336 169.77C99.1519 168.478 95.3839 166.702 94.9359 166.458L88.2519 166.23C88.2245 166.23 88.1974 166.225 88.1724 166.214C88.1474 166.202 88.125 166.186 88.1068 166.166C88.0887 166.145 88.0751 166.121 88.067 166.095C88.0589 166.069 88.0564 166.041 88.0599 166.014L89.0719 152.798C89.075 152.747 89.0981 152.699 89.1362 152.664C89.1744 152.63 89.2245 152.612 89.2759 152.614L94.2479 152.726C97.1753 151.278 100.228 150.097 103.368 149.198C108.512 147.698 119.08 147.198 120.304 147.138C120.524 146.716 120.781 146.315 121.072 145.938C121.472 145.438 122.368 145.258 122.748 145.202L123.88 115.926C123.88 115.9 123.885 115.873 123.896 115.849C123.906 115.824 123.922 115.802 123.942 115.784C123.961 115.766 123.984 115.753 124.009 115.744C124.035 115.735 124.061 115.732 124.088 115.734C124.114 115.735 124.14 115.741 124.164 115.752C124.188 115.763 124.209 115.779 124.227 115.798C124.245 115.818 124.259 115.84 124.268 115.865C124.277 115.89 124.281 115.916 124.28 115.942L123.14 145.386C123.138 145.435 123.119 145.481 123.086 145.516C123.053 145.551 123.008 145.573 122.96 145.578C122.632 145.606 121.716 145.774 121.384 146.186C121.091 146.57 120.831 146.978 120.608 147.406C120.592 147.439 120.568 147.467 120.538 147.486C120.507 147.506 120.472 147.517 120.436 147.518C120.324 147.518 108.872 147.99 103.48 149.566C100.349 150.462 97.3057 151.64 94.3879 153.086C94.3568 153.102 94.3226 153.11 94.2879 153.11L89.4559 153.002L88.4599 165.842L94.9839 166.062C95.0174 166.065 95.0501 166.074 95.0799 166.09C95.1119 166.09 98.5759 168.03 113.372 169.374C128.372 170.738 135.316 171.054 136.828 169.326C138.552 167.358 139.148 164.19 139.292 163.266C139.328 163.014 139.432 162.582 139.584 161.922C141.355 154.56 142.252 147.014 142.256 139.442C142.256 130.986 137.26 118.818 127.412 103.278L127.108 102.802C124.264 98.2982 121.24 99.0102 119.792 99.3502C119.74 99.3623 119.685 99.3536 119.64 99.3259C119.594 99.2982 119.561 99.2538 119.548 99.2021C119.542 99.1764 119.541 99.1497 119.546 99.1237C119.55 99.0977 119.56 99.0728 119.574 99.0505C119.588 99.0282 119.606 99.0089 119.628 98.9937C119.65 98.9785 119.674 98.9678 119.7 98.9621C122.048 98.4101 124.808 98.4101 127.448 102.586L127.748 103.066C137.64 118.666 142.656 130.91 142.656 139.442C142.651 147.045 141.751 154.621 139.976 162.014C139.828 162.638 139.724 163.09 139.688 163.326C139.54 164.278 138.924 167.538 137.128 169.59C136.324 170.506 134.288 170.906 130.588 170.906Z" fill="#263238"/>
<path id="Vector_56" d="M122.94 145.575C122.905 145.575 122.87 145.566 122.84 145.549C122.81 145.531 122.785 145.505 122.768 145.475C122.745 145.435 122.736 145.389 122.742 145.344C122.749 145.299 122.771 145.258 122.804 145.227L129.424 139.067C129.442 139.048 129.464 139.033 129.488 139.023C129.512 139.013 129.538 139.008 129.564 139.008C129.59 139.008 129.616 139.013 129.64 139.023C129.664 139.033 129.686 139.048 129.704 139.067C129.723 139.085 129.738 139.107 129.748 139.132C129.758 139.156 129.763 139.182 129.763 139.209C129.763 139.235 129.758 139.261 129.748 139.286C129.738 139.31 129.723 139.332 129.704 139.351L123.704 144.951L129.9 143.151C129.953 143.136 130.01 143.143 130.058 143.17C130.106 143.197 130.141 143.242 130.156 143.295C130.171 143.348 130.164 143.404 130.137 143.452C130.11 143.5 130.065 143.536 130.012 143.551L123.008 145.583L122.94 145.575Z" fill="#263238"/>
<path id="Vector_57" d="M132.136 142.908C132.083 142.915 132.029 142.901 131.987 142.868C131.944 142.836 131.917 142.787 131.91 142.734C131.903 142.681 131.917 142.628 131.95 142.585C131.983 142.543 132.031 142.515 132.084 142.508L134.296 141.868C134.321 141.86 134.348 141.858 134.374 141.86C134.4 141.863 134.426 141.871 134.449 141.884C134.472 141.896 134.492 141.913 134.509 141.934C134.525 141.955 134.537 141.979 134.544 142.004C134.559 142.055 134.553 142.11 134.527 142.157C134.502 142.203 134.459 142.238 134.408 142.252L132.192 142.892C132.175 142.902 132.156 142.907 132.136 142.908Z" fill="#263238"/>
<path id="Vector_58" d="M130.7 149.226H130.628C127.724 148.106 120.488 147.53 120.412 147.526C120.386 147.524 120.36 147.516 120.337 147.504C120.313 147.492 120.292 147.476 120.275 147.456C120.258 147.436 120.245 147.412 120.237 147.387C120.229 147.362 120.226 147.336 120.228 147.31C120.23 147.283 120.237 147.258 120.249 147.234C120.261 147.211 120.278 147.19 120.298 147.173C120.318 147.156 120.341 147.143 120.366 147.135C120.391 147.127 120.418 147.124 120.444 147.126C120.744 147.15 127.812 147.714 130.772 148.85C130.798 148.854 130.823 148.864 130.846 148.879C130.868 148.893 130.888 148.912 130.903 148.934C130.918 148.956 130.929 148.98 130.934 149.006C130.94 149.032 130.941 149.059 130.936 149.086C130.931 149.112 130.921 149.137 130.907 149.159C130.893 149.182 130.874 149.201 130.852 149.217C130.83 149.232 130.805 149.243 130.779 149.248C130.753 149.254 130.726 149.254 130.7 149.25V149.226Z" fill="#263238"/>
<path id="Vector_59" d="M132.756 155.164C132.725 155.164 132.694 155.157 132.667 155.143C132.639 155.129 132.615 155.109 132.596 155.084C132.296 154.684 131.968 154.32 131.62 153.956C131.588 153.917 131.572 153.868 131.575 153.817C131.578 153.767 131.599 153.719 131.636 153.685C131.672 153.65 131.721 153.63 131.771 153.629C131.822 153.628 131.87 153.646 131.908 153.68C132.262 154.05 132.597 154.437 132.912 154.84C132.945 154.882 132.96 154.934 132.954 154.987C132.948 155.039 132.921 155.087 132.88 155.12C132.844 155.148 132.801 155.163 132.756 155.164Z" fill="#263238"/>
<path id="Vector_60" d="M130.368 152.728C130.322 152.727 130.277 152.712 130.24 152.684C128.209 151.04 125.866 149.823 123.352 149.108C123.326 149.102 123.301 149.091 123.279 149.076C123.257 149.06 123.238 149.04 123.224 149.017C123.21 148.994 123.2 148.969 123.195 148.942C123.191 148.916 123.192 148.889 123.198 148.862C123.204 148.836 123.215 148.811 123.231 148.789C123.246 148.767 123.266 148.749 123.289 148.734C123.312 148.72 123.337 148.71 123.364 148.706C123.39 148.701 123.418 148.702 123.444 148.708C126.018 149.435 128.417 150.678 130.496 152.36C130.528 152.386 130.552 152.422 130.563 152.462C130.575 152.502 130.573 152.545 130.559 152.584C130.545 152.623 130.519 152.657 130.485 152.681C130.45 152.705 130.41 152.717 130.368 152.716V152.728Z" fill="#263238"/>
<path id="Vector_61" d="M94.296 165.437C94.243 165.437 94.1921 165.416 94.1546 165.378C94.1171 165.341 94.096 165.29 94.096 165.237L94 154.169C93.9995 154.143 94.0042 154.116 94.0137 154.092C94.0233 154.068 94.0376 154.045 94.0558 154.026C94.074 154.007 94.0957 153.992 94.1198 153.982C94.1439 153.971 94.1698 153.965 94.196 153.965C94.2491 153.965 94.3 153.986 94.3375 154.023C94.375 154.061 94.396 154.112 94.396 154.165L94.512 165.233C94.5121 165.286 94.4911 165.338 94.4537 165.376C94.4163 165.414 94.3654 165.436 94.312 165.437H94.296Z" fill="#263238"/>
<path id="Vector_62" d="M93.4961 162.697H88.6961C88.6431 162.697 88.5922 162.676 88.5547 162.638C88.5172 162.601 88.4961 162.55 88.4961 162.497C88.4961 162.444 88.5172 162.393 88.5547 162.355C88.5922 162.318 88.6431 162.297 88.6961 162.297H93.4961C93.5491 162.297 93.6 162.318 93.6375 162.355C93.675 162.393 93.6961 162.444 93.6961 162.497C93.6951 162.55 93.6737 162.6 93.6364 162.637C93.5991 162.674 93.5488 162.696 93.4961 162.697Z" fill="#263238"/>
<path id="Vector_63" d="M89.8439 156.188C89.7929 156.188 89.7438 156.169 89.7066 156.134C89.6694 156.099 89.647 156.051 89.6439 156C89.6423 155.974 89.6459 155.948 89.6545 155.923C89.6632 155.899 89.6766 155.876 89.6941 155.857C89.7117 155.837 89.7329 155.822 89.7565 155.81C89.7802 155.799 89.8058 155.793 89.8319 155.792L91.7719 155.676C91.7982 155.675 91.8245 155.678 91.8494 155.687C91.8743 155.695 91.8973 155.709 91.917 155.726C91.9367 155.744 91.9527 155.765 91.9642 155.788C91.9757 155.812 91.9824 155.838 91.9839 155.864C91.9862 155.917 91.9678 155.969 91.9327 156.008C91.8977 156.048 91.8486 156.072 91.7959 156.076L89.8559 156.188H89.8439Z" fill="#263238"/>
</g>
</g>
</svg>
