<svg width="18" height="18" viewBox="0 0 18 18" fill="none" xmlns="http://www.w3.org/2000/svg">
<g id="CaretDown">
<path id="Vector" d="M15.0228 7.14792L9.39779 12.7729C9.34555 12.8252 9.28351 12.8667 9.21523 12.895C9.14694 12.9233 9.07375 12.9379 8.99982 12.9379C8.9259 12.9379 8.85271 12.9233 8.78442 12.895C8.71613 12.8667 8.6541 12.8252 8.60186 12.7729L2.97686 7.14792C2.87131 7.04237 2.81201 6.89921 2.81201 6.74995C2.81201 6.60068 2.87131 6.45753 2.97686 6.35198C3.0824 6.24643 3.22556 6.18713 3.37482 6.18713C3.52409 6.18713 3.66725 6.24643 3.77279 6.35198L8.99982 11.5797L14.2269 6.35198C14.2791 6.29972 14.3412 6.25826 14.4094 6.22998C14.4777 6.20169 14.5509 6.18713 14.6248 6.18713C14.6987 6.18713 14.7719 6.20169 14.8402 6.22998C14.9085 6.25826 14.9705 6.29972 15.0228 6.35198C15.0751 6.40424 15.1165 6.46628 15.1448 6.53457C15.1731 6.60285 15.1876 6.67604 15.1876 6.74995C15.1876 6.82386 15.1731 6.89704 15.1448 6.96533C15.1165 7.03361 15.0751 7.09565 15.0228 7.14792Z" fill="#141414"/>
</g>
</svg>
