<svg width="20" height="21" viewBox="0 0 20 21" fill="none" xmlns="http://www.w3.org/2000/svg">
<path d="M16.6925 8.44229L10.4425 14.6923C10.3845 14.7504 10.3156 14.7965 10.2397 14.828C10.1638 14.8594 10.0825 14.8756 10.0003 14.8756C9.91821 14.8756 9.83688 14.8594 9.76101 14.828C9.68514 14.7965 9.61621 14.7504 9.55816 14.6923L3.30816 8.44229C3.19088 8.32502 3.125 8.16596 3.125 8.0001C3.125 7.83425 3.19088 7.67519 3.30816 7.55792C3.42544 7.44064 3.5845 7.37476 3.75035 7.37476C3.9162 7.37476 4.07526 7.44064 4.19253 7.55792L10.0003 13.3665L15.8082 7.55792C15.8662 7.49985 15.9352 7.45378 16.011 7.42236C16.0869 7.39093 16.1682 7.37476 16.2503 7.37476C16.3325 7.37476 16.4138 7.39093 16.4897 7.42236C16.5655 7.45378 16.6345 7.49985 16.6925 7.55792C16.7506 7.61598 16.7967 7.68492 16.8281 7.76079C16.8595 7.83666 16.8757 7.91798 16.8757 8.0001C16.8757 8.08223 16.8595 8.16354 16.8281 8.23941C16.7967 8.31528 16.7506 8.38422 16.6925 8.44229Z" fill="#343330"/>
</svg>
