<svg width="16" height="17" viewBox="0 0 16 17" fill="none" xmlns="http://www.w3.org/2000/svg">
<path d="M11.3538 8.85403L6.35375 13.854C6.3073 13.9005 6.25214 13.9373 6.19145 13.9625C6.13075 13.9876 6.0657 14.0006 6 14.0006C5.9343 14.0006 5.86925 13.9876 5.80855 13.9625C5.74786 13.9373 5.6927 13.9005 5.64625 13.854C5.59979 13.8076 5.56294 13.7524 5.5378 13.6917C5.51266 13.631 5.49972 13.566 5.49972 13.5003C5.49972 13.4346 5.51266 13.3695 5.5378 13.3088C5.56294 13.2481 5.59979 13.193 5.64625 13.1465L10.2931 8.50028L5.64625 3.85403C5.55243 3.76021 5.49972 3.63296 5.49972 3.50028C5.49972 3.3676 5.55243 3.24035 5.64625 3.14653C5.74007 3.05271 5.86732 3 6 3C6.13268 3 6.25993 3.05271 6.35375 3.14653L11.3538 8.14653C11.4002 8.19296 11.4371 8.24811 11.4623 8.30881C11.4874 8.36951 11.5004 8.43457 11.5004 8.50028C11.5004 8.56599 11.4874 8.63105 11.4623 8.69175C11.4371 8.75245 11.4002 8.80759 11.3538 8.85403Z" fill="#697586"/>
</svg>
