<svg width="20" height="21" viewBox="0 0 20 21" fill="none" xmlns="http://www.w3.org/2000/svg">
<path d="M16.2496 7.99993C16.2496 7.81451 16.3046 7.63325 16.4076 7.47908C16.5106 7.32491 16.657 7.20475 16.8283 7.13379C16.9996 7.06283 17.1881 7.04427 17.37 7.08044C17.5518 7.11661 17.7189 7.2059 17.85 7.33701C17.9811 7.46813 18.0704 7.63517 18.1066 7.81703C18.1427 7.99889 18.1242 8.18739 18.0532 8.35869C17.9822 8.53 17.8621 8.67641 17.7079 8.77943C17.5537 8.88244 17.3725 8.93743 17.1871 8.93743C16.9384 8.93743 16.7 8.83865 16.5242 8.66284C16.3483 8.48702 16.2496 8.24857 16.2496 7.99993ZM15.3121 6.12493C15.4975 6.12493 15.6787 6.06994 15.8329 5.96693C15.9871 5.86392 16.1072 5.7175 16.1782 5.54619C16.2492 5.37489 16.2677 5.18639 16.2316 5.00453C16.1954 4.82267 16.1061 4.65563 15.975 4.52451C15.8439 4.3934 15.6768 4.30411 15.495 4.26794C15.3131 4.23177 15.1246 4.25033 14.9533 4.32129C14.782 4.39225 14.6356 4.51241 14.5326 4.66658C14.4296 4.82075 14.3746 5.00201 14.3746 5.18743C14.3746 5.43607 14.4733 5.67452 14.6492 5.85034C14.825 6.02615 15.0634 6.12493 15.3121 6.12493ZM17.5511 10.4999C17.386 10.4863 17.2222 10.5388 17.0958 10.6459C16.9694 10.753 16.8906 10.9059 16.8769 11.071C16.7651 12.3776 16.2823 13.6251 15.4856 14.6667C14.6888 15.7083 13.6111 16.5006 12.3793 16.9505C11.1475 17.4003 9.8128 17.489 8.5323 17.2061C7.2518 16.9231 6.07875 16.2804 5.15117 15.3534C4.22358 14.4264 3.58006 13.2537 3.29632 11.9734C3.01258 10.6931 3.10043 9.35834 3.54952 8.12625C3.99861 6.89416 4.79027 5.81596 5.83134 5.01853C6.87242 4.22109 8.11959 3.7376 9.42613 3.62493C9.50821 3.61815 9.58814 3.59528 9.66138 3.55762C9.73462 3.51995 9.79972 3.46823 9.85297 3.40541C9.90622 3.34258 9.94657 3.26989 9.97172 3.19147C9.99688 3.11305 10.0063 3.03044 9.99957 2.94836C9.9928 2.86629 9.96992 2.78635 9.93226 2.71311C9.8946 2.63987 9.84287 2.57477 9.78005 2.52152C9.71722 2.46828 9.64453 2.42792 9.56611 2.40277C9.48769 2.37762 9.40508 2.36815 9.323 2.37493C7.77927 2.50771 6.30558 3.07863 5.0753 4.02052C3.84502 4.9624 2.90934 6.23607 2.37834 7.69167C1.84734 9.14727 1.74311 10.7242 2.07792 12.2371C2.41272 13.7499 3.17263 15.1356 4.26825 16.2312C5.36386 17.3269 6.74959 18.0868 8.26242 18.4216C9.77524 18.7564 11.3522 18.6522 12.8078 18.1212C14.2634 17.5902 15.5371 16.6545 16.479 15.4242C17.4209 14.1939 17.9918 12.7202 18.1246 11.1765C18.1316 11.0944 18.1224 11.0116 18.0973 10.9331C18.0723 10.8546 18.0319 10.7818 17.9786 10.7189C17.9253 10.656 17.8601 10.6043 17.7868 10.5667C17.7134 10.5291 17.6333 10.5064 17.5511 10.4999ZM9.99957 4.87493C11.1121 4.87493 12.1996 5.20483 13.1247 5.82291C14.0497 6.44099 14.7706 7.3195 15.1964 8.34733C15.6221 9.37517 15.7335 10.5062 15.5165 11.5973C15.2994 12.6885 14.7637 13.6907 13.977 14.4774C13.1904 15.2641 12.1881 15.7998 11.097 16.0168C10.0058 16.2339 8.87481 16.1225 7.84697 15.6967C6.81914 15.271 5.94063 14.55 5.32255 13.625C4.70447 12.7 4.37457 11.6124 4.37457 10.4999C4.37622 9.00859 4.96939 7.57881 6.02392 6.52428C7.07845 5.46974 8.50823 4.87658 9.99957 4.87493ZM9.37457 10.4999C9.37457 10.6657 9.44042 10.8247 9.55763 10.9419C9.67484 11.0591 9.83381 11.1249 9.99957 11.1249H13.7496C13.9153 11.1249 14.0743 11.0591 14.1915 10.9419C14.3087 10.8247 14.3746 10.6657 14.3746 10.4999C14.3746 10.3342 14.3087 10.1752 14.1915 10.058C14.0743 9.94077 13.9153 9.87493 13.7496 9.87493H10.6246V6.74993C10.6246 6.58417 10.5587 6.42519 10.4415 6.30798C10.3243 6.19077 10.1653 6.12493 9.99957 6.12493C9.83381 6.12493 9.67484 6.19077 9.55763 6.30798C9.44042 6.42519 9.37457 6.58417 9.37457 6.74993V10.4999ZM12.4996 4.24993C12.685 4.24993 12.8662 4.19494 13.0204 4.09193C13.1746 3.98891 13.2947 3.8425 13.3657 3.67119C13.4367 3.49989 13.4552 3.31139 13.4191 3.12953C13.3829 2.94767 13.2936 2.78063 13.1625 2.64951C13.0314 2.5184 12.8643 2.42911 12.6825 2.39294C12.5006 2.35677 12.3121 2.37533 12.1408 2.44629C11.9695 2.51725 11.8231 2.63741 11.7201 2.79158C11.6171 2.94575 11.5621 3.12701 11.5621 3.31243C11.5621 3.56107 11.6608 3.79952 11.8367 3.97534C12.0125 4.15115 12.2509 4.24993 12.4996 4.24993Z" fill="#228BE6"/>
</svg>
