<svg width="32" height="33" viewBox="0 0 32 33" fill="none" xmlns="http://www.w3.org/2000/svg">
<path d="M28.9997 17.5825C28.7872 20.0524 27.8738 22.4104 26.3668 24.3788C24.8597 26.3473 22.8219 27.8443 20.4929 28.6939C18.1639 29.5435 15.6408 29.7103 13.2203 29.1746C10.7997 28.6389 8.58257 27.4231 6.82959 25.6701C5.07661 23.9171 3.86075 21.6999 3.32506 19.2794C2.78937 16.8589 2.95614 14.3357 3.80574 12.0068C4.65534 9.67781 6.15243 7.63994 8.12087 6.13293C10.0893 4.62591 12.4472 3.71244 14.9172 3.49998C15.0485 3.48915 15.1807 3.50428 15.3062 3.54453C15.4316 3.58477 15.5479 3.64934 15.6485 3.73454C15.749 3.81973 15.8317 3.9239 15.892 4.04108C15.9523 4.15826 15.9889 4.28616 15.9997 4.41748C16.0105 4.5488 15.9954 4.68097 15.9551 4.80644C15.9149 4.93191 15.8503 5.04823 15.7651 5.14875C15.6799 5.24927 15.5758 5.33202 15.4586 5.39229C15.3414 5.45255 15.2135 5.48915 15.0822 5.49998C12.9917 5.6796 10.996 6.45256 9.32983 7.72793C7.66372 9.0033 6.39652 10.728 5.67735 12.6991C4.95819 14.6703 4.81696 16.8058 5.2703 18.8544C5.72364 20.9031 6.75269 22.7797 8.23635 24.2633C9.72002 25.747 11.5966 26.776 13.6452 27.2294C15.6939 27.6827 17.8294 27.5415 19.8005 26.8223C21.7717 26.1032 23.4964 24.836 24.7717 23.1698C26.0471 21.5037 26.8201 19.508 26.9997 17.4175C27.0216 17.1523 27.1479 16.9066 27.3509 16.7345C27.5539 16.5625 27.817 16.4781 28.0822 16.5C28.3474 16.5219 28.5931 16.6482 28.7651 16.8512C28.9372 17.0542 29.0216 17.3173 28.9997 17.5825ZM14.9997 9.49998V16.5C14.9997 16.7652 15.1051 17.0196 15.2926 17.2071C15.4801 17.3946 15.7345 17.5 15.9997 17.5H22.9997C23.2649 17.5 23.5193 17.3946 23.7068 17.2071C23.8943 17.0196 23.9997 16.7652 23.9997 16.5C23.9997 16.2348 23.8943 15.9804 23.7068 15.7929C23.5193 15.6053 23.2649 15.5 22.9997 15.5H16.9997V9.49998C16.9997 9.23476 16.8943 8.98041 16.7068 8.79287C16.5193 8.60534 16.2649 8.49998 15.9997 8.49998C15.7345 8.49998 15.4801 8.60534 15.2926 8.79287C15.1051 8.98041 14.9997 9.23476 14.9997 9.49998ZM19.9997 6.49998C20.2964 6.49998 20.5864 6.41201 20.8331 6.24718C21.0797 6.08236 21.272 5.84809 21.3855 5.574C21.499 5.29992 21.5288 4.99832 21.4709 4.70734C21.413 4.41637 21.2701 4.1491 21.0604 3.93932C20.8506 3.72954 20.5833 3.58668 20.2923 3.5288C20.0014 3.47092 19.6998 3.50063 19.4257 3.61416C19.1516 3.72769 18.9173 3.91995 18.7525 4.16662C18.5877 4.4133 18.4997 4.70331 18.4997 4.99998C18.4997 5.3978 18.6577 5.77934 18.939 6.06064C19.2203 6.34194 19.6019 6.49998 19.9997 6.49998ZM24.4997 9.49998C24.7964 9.49998 25.0864 9.41201 25.3331 9.24718C25.5797 9.08236 25.772 8.84809 25.8855 8.574C25.999 8.29992 26.0288 7.99832 25.9709 7.70734C25.913 7.41637 25.7701 7.1491 25.5604 6.93932C25.3506 6.72954 25.0833 6.58668 24.7923 6.5288C24.5014 6.47092 24.1998 6.50063 23.9257 6.61416C23.6516 6.72769 23.4173 6.91995 23.2525 7.16662C23.0877 7.4133 22.9997 7.70331 22.9997 7.99998C22.9997 8.3978 23.1577 8.77934 23.439 9.06064C23.7203 9.34194 24.1019 9.49998 24.4997 9.49998ZM27.4997 14C27.7964 14 28.0864 13.912 28.3331 13.7472C28.5797 13.5824 28.772 13.3481 28.8855 13.074C28.999 12.7999 29.0288 12.4983 28.9709 12.2073C28.913 11.9164 28.7701 11.6491 28.5604 11.4393C28.3506 11.2295 28.0833 11.0867 27.7923 11.0288C27.5014 10.9709 27.1998 11.0006 26.9257 11.1142C26.6516 11.2277 26.4173 11.42 26.2525 11.6666C26.0877 11.9133 25.9997 12.2033 25.9997 12.5C25.9997 12.8978 26.1577 13.2793 26.439 13.5606C26.7203 13.8419 27.1019 14 27.4997 14Z" fill="#228BE6"/>
</svg>
