<svg width="200" height="200" viewBox="0 0 200 200" fill="none" xmlns="http://www.w3.org/2000/svg">
<path d="M192.22 74.6766C191.52 65.9966 191.444 58.3086 187.916 50.0886C185.084 43.4886 181.916 36.8086 177.616 31.0286C164.416 13.3846 143.78 5.52057 122.28 4.71657C87.032 3.40457 52.72 25.9166 40.936 59.3486C39.032 64.7446 35.9 69.2966 32.36 73.6006C31.988 73.3766 31.78 72.7766 31.78 71.7406C31.78 62.5166 21.352 72.8326 19.72 75.3406C-1.42001 107.837 3.13199 161.297 38.36 182.085C52.824 190.621 68.856 194.721 85.496 196.053C100.628 197.253 117.02 194.981 128.436 184.101C138.324 174.681 141.696 160.693 149.96 150.341C148.483 153.299 147.695 156.554 147.656 159.861C147.684 165.401 161.656 163.177 175.948 138.725C189.356 115.785 193.816 94.5246 192.22 74.6766Z" fill="#3498DB"/>
<path opacity="0.7" d="M192.22 74.6766C191.52 65.9966 191.444 58.3086 187.916 50.0886C185.084 43.4886 181.916 36.8086 177.616 31.0286C164.416 13.3846 143.78 5.52057 122.28 4.71657C87.032 3.40457 52.72 25.9166 40.936 59.3486C39.032 64.7446 35.9 69.2966 32.36 73.6006C31.988 73.3766 31.78 72.7766 31.78 71.7406C31.78 62.5166 21.352 72.8326 19.72 75.3406C-1.42001 107.837 3.132 161.297 38.36 182.085C52.824 190.621 68.856 194.721 85.496 196.053C100.628 197.253 117.02 194.981 128.436 184.101C138.324 174.681 141.696 160.693 149.96 150.341C148.483 153.299 147.695 156.554 147.656 159.861C147.684 165.401 161.656 163.177 175.948 138.725C189.356 115.785 193.816 94.5246 192.22 74.6766Z" fill="white"/>
<path d="M179.372 152C179.4 152 179.684 149.928 179.684 149.796C179.716 148.248 178.884 145.244 177.228 144.68C176.954 144.594 176.664 144.566 176.379 144.6C176.093 144.633 175.817 144.726 175.57 144.873C175.323 145.019 175.109 145.217 174.943 145.452C174.778 145.687 174.663 145.954 174.608 146.236C174.328 147.436 175.008 148.764 175.756 149.652C176.624 150.7 179.368 152 179.372 152Z" fill="#263238"/>
<path d="M148.764 154.968C150.06 155.368 153.072 154.936 153.072 154.936C153.072 154.936 152.192 153.036 152.12 152.936C151.292 151.628 148.92 149.592 147.248 150.024C146.972 150.104 146.715 150.241 146.495 150.426C146.275 150.611 146.097 150.841 145.972 151.1C145.846 151.358 145.777 151.641 145.768 151.928C145.759 152.216 145.811 152.502 145.92 152.768C146.344 153.904 147.656 154.636 148.764 154.968Z" fill="#263238"/>
<path d="M164.356 178.32C164.644 178.856 164.936 179.396 165.192 179.92C165.36 180.288 165.544 180.632 165.692 181.012L166.148 182.116C166.412 182.832 166.688 183.568 166.928 184.268C167.096 184.756 167.252 185.224 167.408 185.696C167.096 185.18 166.46 184.188 166.4 184.096C165.428 182.896 162.844 181.14 161.228 181.764C160.963 181.874 160.724 182.039 160.526 182.248C160.329 182.457 160.178 182.706 160.083 182.977C159.988 183.248 159.951 183.536 159.974 183.823C159.998 184.109 160.082 184.388 160.22 184.64C160.772 185.732 162.164 186.308 163.3 186.516C164.552 186.74 167.188 186.084 167.516 186C167.768 186.78 168.012 187.54 168.228 188.264C168.628 189.544 168.94 190.72 169.216 191.76H170.364C170.048 190.644 169.664 189.36 169.204 187.956C168.948 187.156 168.66 186.32 168.356 185.46C169.122 185.042 169.864 184.58 170.576 184.076C171.568 184.924 173.956 185.768 174.264 185.876C174.048 186.676 173.828 187.436 173.612 188.156C173.212 189.496 172.812 190.708 172.456 191.756H173.62C173.928 190.764 174.26 189.66 174.596 188.436C174.82 187.636 175.044 186.772 175.264 185.884C175.596 185.916 178.308 186.136 179.508 185.712C180.596 185.312 181.876 184.512 182.244 183.368C182.341 183.097 182.379 182.808 182.357 182.521C182.334 182.234 182.252 181.955 182.114 181.703C181.977 181.45 181.788 181.229 181.559 181.054C181.331 180.879 181.068 180.754 180.788 180.688C179.092 180.336 176.824 182.48 176.06 183.824C176.016 183.904 175.62 184.82 175.384 185.4C175.472 185.04 175.56 184.688 175.648 184.312C175.824 183.572 175.976 182.828 176.144 182.028L176.348 180.852C176.428 180.452 176.46 180.052 176.516 179.624C176.624 178.664 176.692 177.692 176.736 176.708C177.384 176.86 179.696 177.368 180.836 177.148C181.976 176.928 183.356 176.348 183.896 175.244C184.032 174.99 184.112 174.711 184.133 174.424C184.154 174.137 184.114 173.849 184.016 173.579C183.919 173.309 183.765 173.062 183.566 172.854C183.367 172.647 183.126 172.484 182.86 172.376C181.26 171.772 178.672 173.548 177.712 174.776C177.652 174.852 177.06 175.8 176.748 176.328C176.768 175.736 176.796 175.128 176.796 174.544C176.796 172.816 176.76 171.064 176.724 169.316C176.724 168.78 176.724 168.248 176.7 167.716C176.932 167.776 179.664 168.436 180.94 168.196C182.076 167.976 183.46 167.396 184 166.292C184.136 166.038 184.218 165.759 184.239 165.472C184.261 165.185 184.221 164.897 184.124 164.626C184.027 164.355 183.873 164.107 183.674 163.9C183.475 163.692 183.234 163.528 182.968 163.42C181.344 162.816 178.776 164.596 177.82 165.82C177.744 165.912 176.896 167.276 176.7 167.632C176.7 166.456 176.68 165.284 176.72 164.128C176.773 162.566 176.924 161.01 177.172 159.468C177.28 159.496 180.128 160.2 181.436 159.952C182.572 159.736 183.956 159.152 184.5 158.048C184.636 157.794 184.716 157.515 184.737 157.228C184.758 156.941 184.718 156.653 184.62 156.383C184.523 156.113 184.369 155.866 184.17 155.658C183.971 155.451 183.73 155.288 183.464 155.18C181.84 154.572 179.276 156.352 178.316 157.58C178.252 157.66 177.604 158.7 177.308 159.2L177.216 159.164C177.512 157.62 177.944 156.106 178.508 154.64C178.808 153.84 179.14 153.068 179.48 152.336C179.996 152.52 182.368 153.344 183.572 153.252C184.776 153.16 186.164 152.724 186.824 151.696C186.987 151.458 187.099 151.189 187.151 150.906C187.203 150.623 187.195 150.332 187.128 150.052C187.06 149.772 186.935 149.509 186.759 149.281C186.583 149.053 186.361 148.864 186.108 148.728C184.564 147.948 181.816 149.436 180.732 150.536C180.672 150.596 180.136 151.268 179.756 151.764C179.916 151.436 180.072 151.096 180.228 150.784C180.82 149.616 181.428 148.584 181.984 147.672C182.3 147.156 182.596 146.696 182.88 146.268C183.48 146.188 185.908 145.824 186.912 145.196C187.916 144.568 188.968 143.536 189.08 142.316C189.116 142.03 189.091 141.74 189.008 141.465C188.924 141.19 188.783 140.935 188.595 140.718C188.406 140.501 188.173 140.326 187.912 140.205C187.651 140.084 187.368 140.02 187.08 140.016C185.348 140.036 183.596 142.62 183.136 144.096C183.1 144.224 182.708 146.292 182.736 146.288H182.772C182.492 146.688 182.196 147.132 181.884 147.616C181.312 148.516 180.684 149.54 180.056 150.7C179.378 151.944 178.771 153.226 178.24 154.54C177.64 156.009 177.17 157.528 176.836 159.08C176.836 159.08 176.836 159.116 176.836 159.136C176.784 158.632 176.596 157.224 176.568 157.136C176.192 155.64 174.568 152.964 172.848 152.852C172.561 152.841 172.275 152.892 172.008 152.999C171.742 153.107 171.501 153.269 171.301 153.476C171.102 153.683 170.948 153.929 170.85 154.199C170.752 154.469 170.712 154.757 170.732 155.044C170.776 156.268 171.796 157.372 172.732 158.036C173.796 158.784 176.576 159.3 176.796 159.34C176.496 160.925 176.304 162.529 176.22 164.14C176.164 165.08 176.14 166.028 176.124 166.98C176.068 166.544 176.012 166.156 175.996 166.104C175.62 164.604 173.996 161.928 172.28 161.816C171.992 161.805 171.705 161.855 171.438 161.962C171.171 162.07 170.929 162.232 170.729 162.44C170.529 162.647 170.375 162.894 170.277 163.165C170.179 163.436 170.139 163.724 170.16 164.012C170.204 165.232 171.224 166.34 172.16 167C173.096 167.66 175.48 168.16 176.104 168.28C176.104 168.644 176.104 169.012 176.104 169.376C176.104 171.124 176.104 172.872 176.064 174.576C176.064 175.18 176.012 175.776 175.976 176.368C175.924 175.968 175.876 175.66 175.864 175.608C175.484 174.108 173.864 171.436 172.144 171.324C171.857 171.313 171.57 171.363 171.303 171.47C171.036 171.577 170.795 171.74 170.595 171.946C170.395 172.153 170.241 172.4 170.142 172.67C170.044 172.941 170.004 173.229 170.024 173.516C170.068 174.74 171.092 175.844 172.024 176.508C172.956 177.172 175.112 177.62 175.856 177.764C175.8 178.372 175.748 178.964 175.668 179.568C175.604 179.968 175.568 180.368 175.484 180.768C175.4 181.168 175.328 181.568 175.252 181.944C175.076 182.684 174.904 183.448 174.716 184.168C174.588 184.668 174.46 185.144 174.316 185.62C174.34 185.02 174.36 183.844 174.352 183.744C174.169 182.396 173.646 181.117 172.832 180.028C172.819 179.876 172.793 179.726 172.752 179.58C172.682 179.301 172.555 179.039 172.378 178.813C172.201 178.586 171.978 178.4 171.725 178.265C171.471 178.13 171.192 178.049 170.905 178.029C170.618 178.009 170.33 178.049 170.06 178.148C168.46 178.788 167.744 181.832 167.844 183.376C167.844 183.464 168.028 184.444 168.152 185.064C168.024 184.712 167.904 184.368 167.752 184.008C167.492 183.292 167.212 182.588 166.908 181.828L166.432 180.732C166.28 180.364 166.072 179.992 165.892 179.62C165.456 178.76 164.972 177.908 164.468 177.064C165.092 176.832 167.3 175.98 168.128 175.172C168.956 174.364 169.784 173.108 169.632 171.896C169.606 171.609 169.52 171.331 169.38 171.08C169.24 170.829 169.048 170.61 168.817 170.438C168.587 170.266 168.322 170.144 168.042 170.081C167.761 170.018 167.47 170.015 167.188 170.072C165.5 170.472 164.34 173.364 164.208 174.904C164.208 175 164.228 176.104 164.256 176.728C163.948 176.224 163.644 175.716 163.316 175.216C162.368 173.768 161.368 172.332 160.372 170.892C160.068 170.452 159.768 170.012 159.468 169.568C159.692 169.488 162.336 168.536 163.268 167.628C164.092 166.828 164.924 165.564 164.768 164.352C164.742 164.065 164.656 163.787 164.516 163.536C164.376 163.285 164.184 163.066 163.953 162.894C163.723 162.722 163.458 162.6 163.178 162.537C162.897 162.474 162.606 162.471 162.324 162.528C160.636 162.928 159.476 165.82 159.344 167.36C159.344 167.476 159.38 169.08 159.412 169.488C158.752 168.516 158.1 167.54 157.5 166.552C156.678 165.224 155.944 163.844 155.304 162.42C155.408 162.38 158.172 161.396 159.128 160.468C159.952 159.668 160.784 158.404 160.628 157.192C160.602 156.905 160.516 156.627 160.376 156.376C160.236 156.125 160.044 155.907 159.813 155.735C159.582 155.563 159.318 155.442 159.037 155.38C158.757 155.317 158.466 155.314 158.184 155.372C156.496 155.772 155.336 158.66 155.204 160.2C155.204 160.3 155.232 161.524 155.26 162.108L155.164 162.128C154.572 160.663 154.114 159.147 153.796 157.6C153.596 156.756 153.456 155.94 153.336 155.144C153.868 155.012 156.304 154.392 157.252 153.648C158.2 152.904 159.124 151.78 159.108 150.556C159.113 150.268 159.058 149.983 158.945 149.718C158.833 149.454 158.666 149.216 158.455 149.02C158.245 148.824 157.995 148.675 157.723 148.582C157.451 148.488 157.162 148.454 156.876 148.48C155.156 148.68 153.676 151.436 153.384 152.952C153.384 153.032 153.296 153.892 153.252 154.516C153.204 154.156 153.148 153.784 153.108 153.436C152.956 152.136 152.896 150.936 152.852 149.872C152.832 149.268 152.824 148.72 152.824 148.208C153.28 147.808 155.104 146.164 155.596 145.088C156.088 144.012 156.396 142.568 155.816 141.488C155.687 141.231 155.505 141.005 155.283 140.824C155.061 140.642 154.803 140.51 154.526 140.434C154.249 140.359 153.96 140.342 153.676 140.386C153.393 140.43 153.121 140.532 152.88 140.688C151.444 141.656 151.408 144.78 151.84 146.264C151.88 146.392 152.696 148.332 152.72 148.312L152.748 148.288C152.748 148.78 152.748 149.308 152.748 149.888C152.748 150.952 152.8 152.16 152.924 153.468C153.045 154.879 153.246 156.283 153.528 157.672C153.837 159.228 154.282 160.754 154.86 162.232L154.884 162.284C154.564 161.884 153.628 160.824 153.548 160.748C152.404 159.708 149.584 158.348 148.084 159.228C147.838 159.377 147.627 159.577 147.464 159.813C147.3 160.05 147.189 160.318 147.136 160.601C147.083 160.883 147.09 161.174 147.157 161.454C147.224 161.733 147.349 161.996 147.524 162.224C148.236 163.22 149.696 163.58 150.852 163.608C152.156 163.644 154.756 162.54 154.964 162.452C155.589 163.941 156.313 165.387 157.132 166.78C157.604 167.58 158.108 168.4 158.62 169.2C158.332 168.868 158.072 168.576 158.032 168.536C156.888 167.496 154.068 166.136 152.564 167.016C152.319 167.164 152.109 167.363 151.946 167.598C151.783 167.834 151.671 168.101 151.618 168.382C151.565 168.663 151.571 168.953 151.637 169.231C151.703 169.51 151.827 169.772 152 170C152.708 170.996 154.172 171.356 155.328 171.384C156.484 171.412 158.732 170.524 159.328 170.276L159.92 171.2C160.884 172.664 161.852 174.116 162.76 175.568C163.08 176.084 163.376 176.6 163.676 177.116C163.416 176.82 163.2 176.576 163.16 176.54C162.02 175.5 159.2 174.16 157.696 175.02C157.45 175.169 157.239 175.369 157.076 175.605C156.912 175.842 156.801 176.11 156.748 176.393C156.695 176.675 156.702 176.966 156.769 177.246C156.836 177.525 156.961 177.788 157.136 178.016C157.848 179.012 159.312 179.372 160.468 179.4C161.624 179.428 163.656 178.608 164.356 178.32Z" fill="#263238"/>
<path opacity="0.3" d="M148.764 154.968C150.06 155.368 153.072 154.936 153.072 154.936C153.072 154.936 152.192 153.036 152.12 152.936C151.292 151.628 148.92 149.592 147.248 150.024C146.972 150.104 146.715 150.241 146.495 150.426C146.275 150.611 146.097 150.841 145.972 151.1C145.846 151.358 145.777 151.641 145.768 151.928C145.759 152.216 145.811 152.502 145.92 152.768C146.344 153.904 147.656 154.636 148.764 154.968Z" fill="#263238"/>
<path opacity="0.3" d="M179.372 152C179.4 152 179.684 149.928 179.684 149.796C179.716 148.248 178.884 145.244 177.228 144.68C176.954 144.594 176.664 144.566 176.379 144.6C176.093 144.633 175.817 144.726 175.57 144.873C175.323 145.019 175.109 145.217 174.943 145.452C174.778 145.687 174.663 145.954 174.608 146.236C174.328 147.436 175.008 148.764 175.756 149.652C176.624 150.7 179.368 152 179.372 152Z" fill="#263238"/>
<path opacity="0.3" d="M164.356 178.32C164.644 178.856 164.936 179.396 165.192 179.92C165.36 180.288 165.544 180.632 165.692 181.012L166.148 182.116C166.412 182.832 166.688 183.568 166.928 184.268C167.096 184.756 167.252 185.224 167.408 185.696C167.096 185.18 166.46 184.188 166.4 184.096C165.428 182.896 162.844 181.14 161.228 181.764C160.963 181.874 160.724 182.039 160.526 182.248C160.329 182.457 160.178 182.706 160.083 182.977C159.988 183.248 159.951 183.536 159.974 183.823C159.998 184.109 160.082 184.388 160.22 184.64C160.772 185.732 162.164 186.308 163.3 186.516C164.552 186.74 167.188 186.084 167.516 186C167.768 186.78 168.012 187.54 168.228 188.264C168.628 189.544 168.94 190.72 169.216 191.76H170.364C170.048 190.644 169.664 189.36 169.204 187.956C168.948 187.156 168.66 186.32 168.356 185.46C169.122 185.042 169.864 184.58 170.576 184.076C171.568 184.924 173.956 185.768 174.264 185.876C174.048 186.676 173.828 187.436 173.612 188.156C173.212 189.496 172.812 190.708 172.456 191.756H173.62C173.928 190.764 174.26 189.66 174.596 188.436C174.82 187.636 175.044 186.772 175.264 185.884C175.596 185.916 178.308 186.136 179.508 185.712C180.596 185.312 181.876 184.512 182.244 183.368C182.341 183.097 182.379 182.808 182.357 182.521C182.334 182.234 182.252 181.955 182.114 181.703C181.977 181.45 181.788 181.229 181.559 181.054C181.331 180.879 181.068 180.754 180.788 180.688C179.092 180.336 176.824 182.48 176.06 183.824C176.016 183.904 175.62 184.82 175.384 185.4C175.472 185.04 175.56 184.688 175.648 184.312C175.824 183.572 175.976 182.828 176.144 182.028L176.348 180.852C176.428 180.452 176.46 180.052 176.516 179.624C176.624 178.664 176.692 177.692 176.736 176.708C177.384 176.86 179.696 177.368 180.836 177.148C181.976 176.928 183.356 176.348 183.896 175.244C184.032 174.99 184.112 174.711 184.133 174.424C184.154 174.137 184.114 173.849 184.016 173.579C183.919 173.309 183.765 173.062 183.566 172.854C183.367 172.647 183.126 172.484 182.86 172.376C181.26 171.772 178.672 173.548 177.712 174.776C177.652 174.852 177.06 175.8 176.748 176.328C176.768 175.736 176.796 175.128 176.796 174.544C176.796 172.816 176.76 171.064 176.724 169.316C176.724 168.78 176.724 168.248 176.7 167.716C176.932 167.776 179.664 168.436 180.94 168.196C182.076 167.976 183.46 167.396 184 166.292C184.136 166.038 184.218 165.759 184.239 165.472C184.261 165.185 184.221 164.897 184.124 164.626C184.027 164.355 183.873 164.107 183.674 163.9C183.475 163.692 183.234 163.528 182.968 163.42C181.344 162.816 178.776 164.596 177.82 165.82C177.744 165.912 176.896 167.276 176.7 167.632C176.7 166.456 176.68 165.284 176.72 164.128C176.773 162.566 176.924 161.01 177.172 159.468C177.28 159.496 180.128 160.2 181.436 159.952C182.572 159.736 183.956 159.152 184.5 158.048C184.636 157.794 184.716 157.515 184.737 157.228C184.758 156.941 184.718 156.653 184.62 156.383C184.523 156.113 184.369 155.866 184.17 155.658C183.971 155.451 183.73 155.288 183.464 155.18C181.84 154.572 179.276 156.352 178.316 157.58C178.252 157.66 177.604 158.7 177.308 159.2L177.216 159.164C177.512 157.62 177.944 156.106 178.508 154.64C178.808 153.84 179.14 153.068 179.48 152.336C179.996 152.52 182.368 153.344 183.572 153.252C184.776 153.16 186.164 152.724 186.824 151.696C186.987 151.458 187.099 151.189 187.151 150.906C187.203 150.623 187.195 150.332 187.128 150.052C187.06 149.772 186.935 149.509 186.759 149.281C186.583 149.053 186.361 148.864 186.108 148.728C184.564 147.948 181.816 149.436 180.732 150.536C180.672 150.596 180.136 151.268 179.756 151.764C179.916 151.436 180.072 151.096 180.228 150.784C180.82 149.616 181.428 148.584 181.984 147.672C182.3 147.156 182.596 146.696 182.88 146.268C183.48 146.188 185.908 145.824 186.912 145.196C187.916 144.568 188.968 143.536 189.08 142.316C189.116 142.03 189.091 141.74 189.008 141.465C188.924 141.19 188.783 140.935 188.595 140.718C188.406 140.501 188.173 140.326 187.912 140.205C187.651 140.084 187.368 140.02 187.08 140.016C185.348 140.036 183.596 142.62 183.136 144.096C183.1 144.224 182.708 146.292 182.736 146.288H182.772C182.492 146.688 182.196 147.132 181.884 147.616C181.312 148.516 180.684 149.54 180.056 150.7C179.378 151.944 178.771 153.226 178.24 154.54C177.64 156.009 177.17 157.528 176.836 159.08C176.836 159.08 176.836 159.116 176.836 159.136C176.784 158.632 176.596 157.224 176.568 157.136C176.192 155.64 174.568 152.964 172.848 152.852C172.561 152.841 172.275 152.892 172.008 152.999C171.742 153.107 171.501 153.269 171.301 153.476C171.102 153.683 170.948 153.929 170.85 154.199C170.752 154.469 170.712 154.757 170.732 155.044C170.776 156.268 171.796 157.372 172.732 158.036C173.796 158.784 176.576 159.3 176.796 159.34C176.496 160.925 176.304 162.529 176.22 164.14C176.164 165.08 176.14 166.028 176.124 166.98C176.068 166.544 176.012 166.156 175.996 166.104C175.62 164.604 173.996 161.928 172.28 161.816C171.992 161.805 171.705 161.855 171.438 161.962C171.171 162.07 170.929 162.232 170.729 162.44C170.529 162.647 170.375 162.894 170.277 163.165C170.179 163.436 170.139 163.724 170.16 164.012C170.204 165.232 171.224 166.34 172.16 167C173.096 167.66 175.48 168.16 176.104 168.28C176.104 168.644 176.104 169.012 176.104 169.376C176.104 171.124 176.104 172.872 176.064 174.576C176.064 175.18 176.012 175.776 175.976 176.368C175.924 175.968 175.876 175.66 175.864 175.608C175.484 174.108 173.864 171.436 172.144 171.324C171.857 171.313 171.57 171.363 171.303 171.47C171.036 171.577 170.795 171.74 170.595 171.946C170.395 172.153 170.241 172.4 170.142 172.67C170.044 172.941 170.004 173.229 170.024 173.516C170.068 174.74 171.092 175.844 172.024 176.508C172.956 177.172 175.112 177.62 175.856 177.764C175.8 178.372 175.748 178.964 175.668 179.568C175.604 179.968 175.568 180.368 175.484 180.768C175.4 181.168 175.328 181.568 175.252 181.944C175.076 182.684 174.904 183.448 174.716 184.168C174.588 184.668 174.46 185.144 174.316 185.62C174.34 185.02 174.36 183.844 174.352 183.744C174.169 182.396 173.646 181.117 172.832 180.028C172.819 179.876 172.793 179.726 172.752 179.58C172.682 179.301 172.555 179.039 172.378 178.813C172.201 178.586 171.978 178.4 171.725 178.265C171.471 178.13 171.192 178.049 170.905 178.029C170.618 178.009 170.33 178.049 170.06 178.148C168.46 178.788 167.744 181.832 167.844 183.376C167.844 183.464 168.028 184.444 168.152 185.064C168.024 184.712 167.904 184.368 167.752 184.008C167.492 183.292 167.212 182.588 166.908 181.828L166.432 180.732C166.28 180.364 166.072 179.992 165.892 179.62C165.456 178.76 164.972 177.908 164.468 177.064C165.092 176.832 167.3 175.98 168.128 175.172C168.956 174.364 169.784 173.108 169.632 171.896C169.606 171.609 169.52 171.331 169.38 171.08C169.24 170.829 169.048 170.61 168.817 170.438C168.587 170.266 168.322 170.144 168.042 170.081C167.761 170.018 167.47 170.015 167.188 170.072C165.5 170.472 164.34 173.364 164.208 174.904C164.208 175 164.228 176.104 164.256 176.728C163.948 176.224 163.644 175.716 163.316 175.216C162.368 173.768 161.368 172.332 160.372 170.892C160.068 170.452 159.768 170.012 159.468 169.568C159.692 169.488 162.336 168.536 163.268 167.628C164.092 166.828 164.924 165.564 164.768 164.352C164.742 164.065 164.656 163.787 164.516 163.536C164.376 163.285 164.184 163.066 163.953 162.894C163.723 162.722 163.458 162.6 163.178 162.537C162.897 162.474 162.606 162.471 162.324 162.528C160.636 162.928 159.476 165.82 159.344 167.36C159.344 167.476 159.38 169.08 159.412 169.488C158.752 168.516 158.1 167.54 157.5 166.552C156.678 165.224 155.944 163.844 155.304 162.42C155.408 162.38 158.172 161.396 159.128 160.468C159.952 159.668 160.784 158.404 160.628 157.192C160.602 156.905 160.516 156.627 160.376 156.376C160.236 156.125 160.044 155.907 159.813 155.735C159.582 155.563 159.318 155.442 159.037 155.38C158.757 155.317 158.466 155.314 158.184 155.372C156.496 155.772 155.336 158.66 155.204 160.2C155.204 160.3 155.232 161.524 155.26 162.108L155.164 162.128C154.572 160.663 154.114 159.147 153.796 157.6C153.596 156.756 153.456 155.94 153.336 155.144C153.868 155.012 156.304 154.392 157.252 153.648C158.2 152.904 159.124 151.78 159.108 150.556C159.113 150.268 159.058 149.983 158.945 149.718C158.833 149.454 158.666 149.216 158.455 149.02C158.245 148.824 157.995 148.675 157.723 148.582C157.451 148.488 157.162 148.454 156.876 148.48C155.156 148.68 153.676 151.436 153.384 152.952C153.384 153.032 153.296 153.892 153.252 154.516C153.204 154.156 153.148 153.784 153.108 153.436C152.956 152.136 152.896 150.936 152.852 149.872C152.832 149.268 152.824 148.72 152.824 148.208C153.28 147.808 155.104 146.164 155.596 145.088C156.088 144.012 156.396 142.568 155.816 141.488C155.687 141.231 155.505 141.005 155.283 140.824C155.061 140.642 154.803 140.51 154.526 140.434C154.249 140.359 153.96 140.342 153.676 140.386C153.393 140.43 153.121 140.532 152.88 140.688C151.444 141.656 151.408 144.78 151.84 146.264C151.88 146.392 152.696 148.332 152.72 148.312L152.748 148.288C152.748 148.78 152.748 149.308 152.748 149.888C152.748 150.952 152.8 152.16 152.924 153.468C153.045 154.879 153.246 156.283 153.528 157.672C153.837 159.228 154.282 160.754 154.86 162.232L154.884 162.284C154.564 161.884 153.628 160.824 153.548 160.748C152.404 159.708 149.584 158.348 148.084 159.228C147.838 159.377 147.627 159.577 147.464 159.813C147.3 160.05 147.189 160.318 147.136 160.601C147.083 160.883 147.09 161.174 147.157 161.454C147.224 161.733 147.349 161.996 147.524 162.224C148.236 163.22 149.696 163.58 150.852 163.608C152.156 163.644 154.756 162.54 154.964 162.452C155.589 163.941 156.313 165.387 157.132 166.78C157.604 167.58 158.108 168.4 158.62 169.2C158.332 168.868 158.072 168.576 158.032 168.536C156.888 167.496 154.068 166.136 152.564 167.016C152.319 167.164 152.109 167.363 151.946 167.598C151.783 167.834 151.671 168.101 151.618 168.382C151.565 168.663 151.571 168.953 151.637 169.231C151.703 169.51 151.827 169.772 152 170C152.708 170.996 154.172 171.356 155.328 171.384C156.484 171.412 158.732 170.524 159.328 170.276L159.92 171.2C160.884 172.664 161.852 174.116 162.76 175.568C163.08 176.084 163.376 176.6 163.676 177.116C163.416 176.82 163.2 176.576 163.16 176.54C162.02 175.5 159.2 174.16 157.696 175.02C157.45 175.169 157.239 175.369 157.076 175.605C156.912 175.842 156.801 176.11 156.748 176.393C156.695 176.675 156.702 176.966 156.769 177.246C156.836 177.525 156.961 177.788 157.136 178.016C157.848 179.012 159.312 179.372 160.468 179.4C161.624 179.428 163.656 178.608 164.356 178.32Z" fill="#263238"/>
<path d="M42 168.168C42 168.168 42.184 166.94 42.188 166.86C42.188 165.944 41.7 164.16 40.728 163.824C40.5651 163.77 40.3926 163.752 40.2222 163.771C40.0517 163.789 39.8872 163.844 39.7397 163.932C39.5923 164.019 39.4653 164.138 39.3674 164.278C39.2694 164.419 39.2028 164.579 39.172 164.748C39.008 165.456 39.416 166.248 39.856 166.776C40.372 167.396 42 168.168 42 168.168Z" fill="#263238"/>
<path d="M23.836 169.932C24.604 170.164 26.392 169.912 26.392 169.908C26.392 169.904 25.868 168.784 25.828 168.708C25.336 167.932 23.932 166.708 22.936 166.98C22.7696 167.024 22.6146 167.103 22.4814 167.212C22.3483 167.321 22.2401 167.457 22.1642 167.611C22.0883 167.766 22.0465 167.935 22.0417 168.107C22.0368 168.279 22.069 168.45 22.136 168.608C22.4 169.296 23.2 169.732 23.836 169.932Z" fill="#263238"/>
<path d="M33.092 183.791C33.264 184.111 33.436 184.431 33.588 184.747C33.688 184.963 33.796 185.167 33.884 185.395C33.972 185.623 34.064 185.835 34.156 186.051C34.312 186.475 34.476 186.911 34.616 187.327C34.72 187.615 34.812 187.895 34.904 188.175C34.716 187.867 34.34 187.279 34.304 187.235C33.728 186.519 32.192 185.479 31.236 185.847C31.0781 185.913 30.9359 186.012 30.8185 186.136C30.7011 186.261 30.6112 186.408 30.5546 186.57C30.498 186.731 30.476 186.903 30.49 187.073C30.5041 187.244 30.5538 187.409 30.636 187.559C30.964 188.207 31.792 188.547 32.464 188.671C33.208 188.803 34.772 188.415 34.968 188.363C35.12 188.827 35.26 189.279 35.368 189.707C35.6 190.467 35.792 191.167 35.956 191.783H36.64C36.448 191.119 36.24 190.363 35.952 189.527C35.8 189.055 35.628 188.555 35.444 188.043C35.9007 187.796 36.3416 187.521 36.764 187.219C37.352 187.723 38.764 188.227 38.956 188.291C38.824 188.759 38.696 189.215 38.556 189.643C38.32 190.443 38.084 191.159 37.872 191.783H38.56C38.744 191.195 38.96 190.539 39.144 189.815C39.276 189.339 39.408 188.827 39.544 188.299C39.74 188.299 41.348 188.447 42.06 188.195C42.708 187.967 43.468 187.495 43.688 186.803C43.7495 186.642 43.7754 186.469 43.7639 186.296C43.7524 186.124 43.7038 185.956 43.6213 185.804C43.5389 185.652 43.4246 185.52 43.2863 185.416C43.148 185.312 42.9889 185.24 42.82 185.203C41.816 184.991 40.468 186.267 40.02 187.063C39.992 187.111 39.76 187.655 39.62 187.999C39.672 187.783 39.728 187.575 39.78 187.351C39.884 186.915 39.972 186.471 40.072 185.995C40.112 185.767 40.156 185.531 40.196 185.299C40.236 185.067 40.26 184.815 40.292 184.567C40.36 183.999 40.4 183.423 40.424 182.839C40.824 182.927 42.18 183.239 42.856 183.099C43.532 182.959 44.352 182.623 44.676 181.971C44.7596 181.821 44.8101 181.655 44.824 181.484C44.8379 181.313 44.8149 181.141 44.7565 180.979C44.6981 180.817 44.6057 180.67 44.4855 180.548C44.3653 180.425 44.2202 180.329 44.06 180.267C43.096 179.907 41.572 180.963 41.004 181.683C40.968 181.727 40.604 182.291 40.432 182.603C40.432 182.251 40.46 181.903 40.46 181.547C40.46 180.519 40.46 179.479 40.416 178.443V177.491C40.552 177.523 42.176 177.919 42.932 177.771C43.604 177.643 44.428 177.295 44.748 176.643C44.8317 176.494 44.8824 176.328 44.8966 176.157C44.9107 175.986 44.888 175.814 44.83 175.652C44.772 175.491 44.68 175.343 44.5603 175.22C44.4406 175.097 44.2959 175.002 44.136 174.939C43.172 174.579 41.648 175.635 41.08 176.355C41.036 176.411 40.532 177.219 40.416 177.431C40.416 176.735 40.416 176.039 40.416 175.351C40.4451 174.425 40.5346 173.502 40.684 172.587C40.748 172.587 42.44 173.019 43.216 172.871C43.888 172.743 44.712 172.395 45.032 171.743C45.1157 171.594 45.1664 171.428 45.1806 171.257C45.1947 171.086 45.172 170.914 45.114 170.752C45.056 170.591 44.964 170.443 44.8443 170.32C44.7246 170.197 44.5799 170.102 44.42 170.039C43.456 169.679 41.932 170.735 41.36 171.455C41.324 171.503 40.96 172.119 40.764 172.415L40.708 172.395C40.8847 171.479 41.1417 170.579 41.476 169.707C41.656 169.227 41.852 168.775 42.052 168.343C42.36 168.451 43.768 168.939 44.484 168.883C45.2 168.827 46.02 168.571 46.412 167.963C46.5114 167.824 46.5797 167.664 46.6123 167.496C46.6448 167.327 46.6409 167.154 46.6007 166.987C46.5605 166.82 46.485 166.664 46.3793 166.529C46.2736 166.394 46.1402 166.283 45.988 166.203C45.072 165.739 43.44 166.603 42.788 167.271C42.752 167.307 42.436 167.707 42.208 168.003C42.304 167.807 42.396 167.603 42.492 167.423C42.84 166.727 43.204 166.115 43.532 165.575C43.72 165.267 43.896 164.995 44.064 164.739C44.42 164.691 45.86 164.475 46.464 164.103C47.068 163.731 47.688 163.119 47.752 162.395C47.7762 162.224 47.7631 162.05 47.7138 161.884C47.6644 161.719 47.5799 161.566 47.4659 161.436C47.352 161.306 47.2113 161.202 47.0536 161.132C46.8959 161.061 46.7248 161.026 46.552 161.027C45.524 161.027 44.484 162.575 44.212 163.451C44.188 163.527 43.96 164.755 43.976 164.751H44C43.832 164.995 43.656 165.255 43.472 165.551C43.132 166.083 42.752 166.691 42.388 167.383C41.9833 168.12 41.6226 168.88 41.308 169.659C40.951 170.532 40.6726 171.434 40.476 172.355C40.476 172.355 40.476 172.379 40.476 172.387C40.448 172.087 40.336 171.255 40.32 171.187C40.096 170.295 39.12 168.707 38.112 168.643C37.9406 168.634 37.7693 168.662 37.6096 168.724C37.4498 168.787 37.3054 168.883 37.186 169.007C37.0666 169.13 36.975 169.277 36.9173 169.439C36.8597 169.6 36.8374 169.772 36.852 169.943C36.88 170.671 37.484 171.327 38.052 171.719C38.684 172.163 40.332 172.471 40.452 172.495C40.2761 173.438 40.1625 174.39 40.112 175.347C40.08 175.903 40.064 176.467 40.056 177.031C40.02 176.771 39.988 176.543 39.98 176.511C39.756 175.619 38.78 174.031 37.772 173.967C37.6006 173.958 37.4293 173.986 37.2696 174.048C37.1098 174.111 36.9654 174.207 36.846 174.331C36.7266 174.454 36.635 174.601 36.5773 174.763C36.5197 174.924 36.4974 175.096 36.512 175.267C36.54 175.995 37.144 176.651 37.712 177.043C38.28 177.435 39.68 177.731 40.052 177.803C40.052 178.019 40.052 178.235 40.052 178.451C40.052 179.491 40.052 180.527 40.028 181.547C40.028 181.903 39.996 182.259 39.976 182.611C39.944 182.379 39.916 182.187 39.908 182.159C39.684 181.267 38.728 179.679 37.7 179.615C37.529 179.607 37.3581 179.635 37.1988 179.698C37.0396 179.761 36.8956 179.857 36.7767 179.98C36.6577 180.103 36.5665 180.25 36.5091 180.412C36.4517 180.573 36.4295 180.745 36.444 180.915C36.472 181.643 37.076 182.299 37.644 182.691C38.212 183.083 39.476 183.351 39.916 183.439C39.884 183.799 39.852 184.159 39.804 184.507C39.768 184.747 39.748 184.975 39.696 185.211C39.644 185.447 39.604 185.679 39.556 185.911C39.456 186.347 39.352 186.803 39.24 187.231C39.164 187.527 39.088 187.807 39.008 188.091C39.008 187.735 39.036 187.039 39.008 186.979C38.9036 186.178 38.5936 185.417 38.108 184.771C38.0998 184.682 38.0837 184.594 38.06 184.507C38.0211 184.34 37.9468 184.183 37.8421 184.047C37.7374 183.911 37.6048 183.799 37.4531 183.719C37.3015 183.639 37.1343 183.592 36.963 183.581C36.7917 183.571 36.6202 183.598 36.46 183.659C35.508 184.039 35.088 185.843 35.148 186.759C35.148 186.815 35.256 187.395 35.328 187.759C35.252 187.551 35.184 187.359 35.104 187.135C34.948 186.711 34.78 186.291 34.604 185.843L34.352 185.199C34.264 184.979 34.14 184.759 34.032 184.535C33.776 184.027 33.488 183.523 33.188 183.019C33.56 182.883 34.868 182.379 35.36 181.899C35.852 181.419 36.344 180.671 36.256 179.951C36.2428 179.78 36.1931 179.614 36.1102 179.464C36.0274 179.314 35.9133 179.183 35.7757 179.081C35.6381 178.979 35.4802 178.907 35.3126 178.871C35.145 178.835 34.9715 178.835 34.804 178.871C33.8 179.103 33.112 180.823 33.036 181.739C33.036 181.795 33.036 182.459 33.064 182.823C32.88 182.523 32.7 182.219 32.504 181.923C31.944 181.063 31.348 180.211 30.756 179.359L30.22 178.559C30.352 178.511 31.924 177.947 32.476 177.407C33.028 176.867 33.46 176.183 33.368 175.463C33.3496 175.295 33.2964 175.132 33.2118 174.986C33.1271 174.839 33.0129 174.712 32.8763 174.612C32.7397 174.512 32.5838 174.441 32.4185 174.404C32.2531 174.368 32.082 174.366 31.916 174.399C30.916 174.631 30.224 176.355 30.148 177.267C30.148 177.335 30.148 178.291 30.188 178.531C29.788 177.955 29.388 177.375 29.052 176.791C28.5637 176.002 28.1281 175.182 27.748 174.335C27.812 174.311 29.452 173.727 30.02 173.179C30.508 172.699 31 171.951 30.912 171.231C30.8988 171.06 30.8491 170.894 30.7662 170.744C30.6834 170.594 30.5693 170.463 30.4317 170.361C30.2941 170.259 30.1362 170.187 29.9686 170.151C29.801 170.115 29.6275 170.115 29.46 170.151C28.456 170.383 27.768 172.103 27.692 173.019C27.692 173.079 27.692 173.819 27.724 174.151H27.664C27.3049 173.29 27.0238 172.399 26.824 171.487C26.704 170.987 26.62 170.503 26.548 170.027C26.868 169.951 28.312 169.579 28.876 169.139C29.44 168.699 29.988 168.031 29.976 167.307C29.9821 167.136 29.9513 166.965 29.8856 166.806C29.82 166.648 29.7211 166.505 29.5956 166.388C29.4701 166.271 29.3209 166.182 29.1581 166.127C28.9953 166.073 28.8227 166.054 28.652 166.071C27.632 166.191 26.756 167.827 26.58 168.727C26.58 168.775 26.524 169.283 26.5 169.655C26.472 169.439 26.436 169.219 26.412 169.015C26.324 168.243 26.288 167.531 26.26 166.899C26.26 166.539 26.26 166.215 26.26 165.911C26.532 165.671 27.616 164.711 27.908 164.059C28.2 163.407 28.384 162.563 28.04 161.923C27.9636 161.77 27.856 161.635 27.724 161.526C27.592 161.418 27.4386 161.338 27.2738 161.292C27.1089 161.246 26.9364 161.236 26.7672 161.261C26.5981 161.287 26.4362 161.347 26.292 161.439C25.444 162.015 25.42 163.867 25.68 164.751C25.68 164.827 26.184 165.979 26.2 165.951C26.2 166.243 26.2 166.559 26.2 166.899C26.2 167.535 26.232 168.247 26.304 169.027C26.3743 169.866 26.4946 170.699 26.664 171.523C26.8472 172.447 27.115 173.353 27.464 174.227V174.259C27.272 174.027 26.72 173.391 26.664 173.347C25.984 172.731 24.312 171.935 23.42 172.443C23.272 172.53 23.1445 172.648 23.0459 172.789C22.9473 172.929 22.8801 173.089 22.8486 173.258C22.8171 173.426 22.8222 173.6 22.8635 173.767C22.9048 173.933 22.9814 174.089 23.088 174.223C23.488 174.815 24.376 175.023 25.064 175.047C25.836 175.067 27.38 174.411 27.504 174.359C27.8762 175.244 28.3092 176.102 28.8 176.927C29.08 177.411 29.376 177.891 29.68 178.363C29.512 178.167 29.356 177.995 29.332 177.963C28.652 177.347 26.98 176.551 26.088 177.059C25.94 177.146 25.8125 177.264 25.7139 177.405C25.6153 177.545 25.5481 177.705 25.5166 177.874C25.4851 178.042 25.4902 178.216 25.5315 178.383C25.5728 178.549 25.6493 178.705 25.756 178.839C26.156 179.431 27.044 179.639 27.732 179.663C28.42 179.687 29.732 179.151 30.104 179.003C30.224 179.183 30.34 179.367 30.456 179.547C31.032 180.415 31.604 181.279 32.144 182.139C32.332 182.443 32.508 182.751 32.688 183.059C32.536 182.883 32.404 182.739 32.384 182.719C31.704 182.099 30.028 181.303 29.136 181.815C28.9871 181.902 28.8586 182.02 28.7593 182.16C28.6599 182.301 28.592 182.461 28.5601 182.631C28.5282 182.8 28.5331 182.974 28.5745 183.141C28.6159 183.308 28.6928 183.465 28.8 183.599C29.2 184.187 30.088 184.399 30.776 184.419C31.464 184.439 32.676 183.963 33.092 183.791Z" fill="#263238"/>
<path opacity="0.3" d="M23.836 169.932C24.604 170.164 26.392 169.912 26.392 169.908C26.392 169.904 25.868 168.784 25.828 168.708C25.336 167.932 23.932 166.708 22.936 166.98C22.7696 167.024 22.6146 167.103 22.4814 167.212C22.3483 167.321 22.2401 167.457 22.1642 167.611C22.0883 167.766 22.0465 167.935 22.0417 168.107C22.0368 168.279 22.069 168.45 22.136 168.608C22.4 169.296 23.2 169.732 23.836 169.932Z" fill="#263238"/>
<path opacity="0.3" d="M42 168.168C42 168.168 42.184 166.94 42.188 166.86C42.188 165.944 41.7 164.16 40.728 163.824C40.5651 163.77 40.3926 163.752 40.2222 163.771C40.0517 163.789 39.8872 163.844 39.7397 163.932C39.5923 164.019 39.4653 164.138 39.3674 164.278C39.2694 164.419 39.2028 164.579 39.172 164.748C39.008 165.456 39.416 166.248 39.856 166.776C40.372 167.396 42 168.168 42 168.168Z" fill="#263238"/>
<path opacity="0.3" d="M33.092 183.791C33.264 184.111 33.436 184.431 33.588 184.747C33.688 184.963 33.796 185.167 33.884 185.395C33.972 185.623 34.064 185.835 34.156 186.051C34.312 186.475 34.476 186.911 34.616 187.327C34.72 187.615 34.812 187.895 34.904 188.175C34.716 187.867 34.34 187.279 34.304 187.235C33.728 186.519 32.192 185.479 31.236 185.847C31.0781 185.913 30.9359 186.012 30.8185 186.136C30.7011 186.261 30.6112 186.408 30.5546 186.57C30.498 186.731 30.476 186.903 30.49 187.073C30.5041 187.244 30.5538 187.409 30.636 187.559C30.964 188.207 31.792 188.547 32.464 188.671C33.208 188.803 34.772 188.415 34.968 188.363C35.12 188.827 35.26 189.279 35.368 189.707C35.6 190.467 35.792 191.167 35.956 191.783H36.64C36.448 191.119 36.24 190.363 35.952 189.527C35.8 189.055 35.628 188.555 35.444 188.043C35.9007 187.796 36.3416 187.521 36.764 187.219C37.352 187.723 38.764 188.227 38.956 188.291C38.824 188.759 38.696 189.215 38.556 189.643C38.32 190.443 38.084 191.159 37.872 191.783H38.56C38.744 191.195 38.96 190.539 39.144 189.815C39.276 189.339 39.408 188.827 39.544 188.299C39.74 188.299 41.348 188.447 42.06 188.195C42.708 187.967 43.468 187.495 43.688 186.803C43.7495 186.642 43.7754 186.469 43.7639 186.296C43.7524 186.124 43.7038 185.956 43.6213 185.804C43.5389 185.652 43.4246 185.52 43.2863 185.416C43.148 185.312 42.9889 185.24 42.82 185.203C41.816 184.991 40.468 186.267 40.02 187.063C39.992 187.111 39.76 187.655 39.62 187.999C39.672 187.783 39.728 187.575 39.78 187.351C39.884 186.915 39.972 186.471 40.072 185.995C40.112 185.767 40.156 185.531 40.196 185.299C40.236 185.067 40.26 184.815 40.292 184.567C40.36 183.999 40.4 183.423 40.424 182.839C40.824 182.927 42.18 183.239 42.856 183.099C43.532 182.959 44.352 182.623 44.676 181.971C44.7596 181.821 44.8101 181.655 44.824 181.484C44.8379 181.313 44.8149 181.141 44.7565 180.979C44.6981 180.817 44.6057 180.67 44.4855 180.548C44.3653 180.425 44.2202 180.329 44.06 180.267C43.096 179.907 41.572 180.963 41.004 181.683C40.968 181.727 40.604 182.291 40.432 182.603C40.432 182.251 40.46 181.903 40.46 181.547C40.46 180.519 40.46 179.479 40.416 178.443V177.491C40.552 177.523 42.176 177.919 42.932 177.771C43.604 177.643 44.428 177.295 44.748 176.643C44.8317 176.494 44.8824 176.328 44.8966 176.157C44.9107 175.986 44.888 175.814 44.83 175.652C44.772 175.491 44.68 175.343 44.5603 175.22C44.4406 175.097 44.2959 175.002 44.136 174.939C43.172 174.579 41.648 175.635 41.08 176.355C41.036 176.411 40.532 177.219 40.416 177.431C40.416 176.735 40.416 176.039 40.416 175.351C40.4451 174.425 40.5346 173.502 40.684 172.587C40.748 172.587 42.44 173.019 43.216 172.871C43.888 172.743 44.712 172.395 45.032 171.743C45.1157 171.594 45.1664 171.428 45.1806 171.257C45.1947 171.086 45.172 170.914 45.114 170.752C45.056 170.591 44.964 170.443 44.8443 170.32C44.7246 170.197 44.5799 170.102 44.42 170.039C43.456 169.679 41.932 170.735 41.36 171.455C41.324 171.503 40.96 172.119 40.764 172.415L40.708 172.395C40.8847 171.479 41.1417 170.579 41.476 169.707C41.656 169.227 41.852 168.775 42.052 168.343C42.36 168.451 43.768 168.939 44.484 168.883C45.2 168.827 46.02 168.571 46.412 167.963C46.5114 167.824 46.5797 167.664 46.6123 167.496C46.6448 167.327 46.6409 167.154 46.6007 166.987C46.5605 166.82 46.485 166.664 46.3793 166.529C46.2736 166.394 46.1402 166.283 45.988 166.203C45.072 165.739 43.44 166.603 42.788 167.271C42.752 167.307 42.436 167.707 42.208 168.003C42.304 167.807 42.396 167.603 42.492 167.423C42.84 166.727 43.204 166.115 43.532 165.575C43.72 165.267 43.896 164.995 44.064 164.739C44.42 164.691 45.86 164.475 46.464 164.103C47.068 163.731 47.688 163.119 47.752 162.395C47.7762 162.224 47.7631 162.05 47.7138 161.884C47.6644 161.719 47.5799 161.566 47.4659 161.436C47.352 161.306 47.2113 161.202 47.0536 161.132C46.8959 161.061 46.7248 161.026 46.552 161.027C45.524 161.027 44.484 162.575 44.212 163.451C44.188 163.527 43.96 164.755 43.976 164.751H44C43.832 164.995 43.656 165.255 43.472 165.551C43.132 166.083 42.752 166.691 42.388 167.383C41.9833 168.12 41.6226 168.88 41.308 169.659C40.951 170.532 40.6726 171.434 40.476 172.355C40.476 172.355 40.476 172.379 40.476 172.387C40.448 172.087 40.336 171.255 40.32 171.187C40.096 170.295 39.12 168.707 38.112 168.643C37.9406 168.634 37.7693 168.662 37.6096 168.724C37.4498 168.787 37.3054 168.883 37.186 169.007C37.0666 169.13 36.975 169.277 36.9173 169.439C36.8597 169.6 36.8374 169.772 36.852 169.943C36.88 170.671 37.484 171.327 38.052 171.719C38.684 172.163 40.332 172.471 40.452 172.495C40.2761 173.438 40.1625 174.39 40.112 175.347C40.08 175.903 40.064 176.467 40.056 177.031C40.02 176.771 39.988 176.543 39.98 176.511C39.756 175.619 38.78 174.031 37.772 173.967C37.6006 173.958 37.4293 173.986 37.2696 174.048C37.1098 174.111 36.9654 174.207 36.846 174.331C36.7266 174.454 36.635 174.601 36.5773 174.763C36.5197 174.924 36.4974 175.096 36.512 175.267C36.54 175.995 37.144 176.651 37.712 177.043C38.28 177.435 39.68 177.731 40.052 177.803C40.052 178.019 40.052 178.235 40.052 178.451C40.052 179.491 40.052 180.527 40.028 181.547C40.028 181.903 39.996 182.259 39.976 182.611C39.944 182.379 39.916 182.187 39.908 182.159C39.684 181.267 38.728 179.679 37.7 179.615C37.529 179.607 37.3581 179.635 37.1988 179.698C37.0396 179.761 36.8956 179.857 36.7767 179.98C36.6577 180.103 36.5665 180.25 36.5091 180.412C36.4517 180.573 36.4295 180.745 36.444 180.915C36.472 181.643 37.076 182.299 37.644 182.691C38.212 183.083 39.476 183.351 39.916 183.439C39.884 183.799 39.852 184.159 39.804 184.507C39.768 184.747 39.748 184.975 39.696 185.211C39.644 185.447 39.604 185.679 39.556 185.911C39.456 186.347 39.352 186.803 39.24 187.231C39.164 187.527 39.088 187.807 39.008 188.091C39.008 187.735 39.036 187.039 39.008 186.979C38.9036 186.178 38.5936 185.417 38.108 184.771C38.0998 184.682 38.0837 184.594 38.06 184.507C38.0211 184.34 37.9468 184.183 37.8421 184.047C37.7374 183.911 37.6048 183.799 37.4531 183.719C37.3015 183.639 37.1343 183.592 36.963 183.581C36.7917 183.571 36.6202 183.598 36.46 183.659C35.508 184.039 35.088 185.843 35.148 186.759C35.148 186.815 35.256 187.395 35.328 187.759C35.252 187.551 35.184 187.359 35.104 187.135C34.948 186.711 34.78 186.291 34.604 185.843L34.352 185.199C34.264 184.979 34.14 184.759 34.032 184.535C33.776 184.027 33.488 183.523 33.188 183.019C33.56 182.883 34.868 182.379 35.36 181.899C35.852 181.419 36.344 180.671 36.256 179.951C36.2428 179.78 36.1931 179.614 36.1102 179.464C36.0274 179.314 35.9133 179.183 35.7757 179.081C35.6381 178.979 35.4802 178.907 35.3126 178.871C35.145 178.835 34.9715 178.835 34.804 178.871C33.8 179.103 33.112 180.823 33.036 181.739C33.036 181.795 33.036 182.459 33.064 182.823C32.88 182.523 32.7 182.219 32.504 181.923C31.944 181.063 31.348 180.211 30.756 179.359L30.22 178.559C30.352 178.511 31.924 177.947 32.476 177.407C33.028 176.867 33.46 176.183 33.368 175.463C33.3496 175.295 33.2964 175.132 33.2118 174.986C33.1271 174.839 33.0129 174.712 32.8763 174.612C32.7397 174.512 32.5838 174.441 32.4185 174.404C32.2531 174.368 32.082 174.366 31.916 174.399C30.916 174.631 30.224 176.355 30.148 177.267C30.148 177.335 30.148 178.291 30.188 178.531C29.788 177.955 29.388 177.375 29.052 176.791C28.5637 176.002 28.1281 175.182 27.748 174.335C27.812 174.311 29.452 173.727 30.02 173.179C30.508 172.699 31 171.951 30.912 171.231C30.8988 171.06 30.8491 170.894 30.7662 170.744C30.6834 170.594 30.5693 170.463 30.4317 170.361C30.2941 170.259 30.1362 170.187 29.9686 170.151C29.801 170.115 29.6275 170.115 29.46 170.151C28.456 170.383 27.768 172.103 27.692 173.019C27.692 173.079 27.692 173.819 27.724 174.151H27.664C27.3049 173.29 27.0238 172.399 26.824 171.487C26.704 170.987 26.62 170.503 26.548 170.027C26.868 169.951 28.312 169.579 28.876 169.139C29.44 168.699 29.988 168.031 29.976 167.307C29.9821 167.136 29.9513 166.965 29.8856 166.806C29.82 166.648 29.7211 166.505 29.5956 166.388C29.4701 166.271 29.3209 166.182 29.1581 166.127C28.9953 166.073 28.8227 166.054 28.652 166.071C27.632 166.191 26.756 167.827 26.58 168.727C26.58 168.775 26.524 169.283 26.5 169.655C26.472 169.439 26.436 169.219 26.412 169.015C26.324 168.243 26.288 167.531 26.26 166.899C26.26 166.539 26.26 166.215 26.26 165.911C26.532 165.671 27.616 164.711 27.908 164.059C28.2 163.407 28.384 162.563 28.04 161.923C27.9636 161.77 27.856 161.635 27.724 161.526C27.592 161.418 27.4386 161.338 27.2738 161.292C27.1089 161.246 26.9364 161.236 26.7672 161.261C26.5981 161.287 26.4362 161.347 26.292 161.439C25.444 162.015 25.42 163.867 25.68 164.751C25.68 164.827 26.184 165.979 26.2 165.951C26.2 166.243 26.2 166.559 26.2 166.899C26.2 167.535 26.232 168.247 26.304 169.027C26.3743 169.866 26.4946 170.699 26.664 171.523C26.8472 172.447 27.115 173.353 27.464 174.227V174.259C27.272 174.027 26.72 173.391 26.664 173.347C25.984 172.731 24.312 171.935 23.42 172.443C23.272 172.53 23.1445 172.648 23.0459 172.789C22.9473 172.929 22.8801 173.089 22.8486 173.258C22.8171 173.426 22.8222 173.6 22.8635 173.767C22.9048 173.933 22.9814 174.089 23.088 174.223C23.488 174.815 24.376 175.023 25.064 175.047C25.836 175.067 27.38 174.411 27.504 174.359C27.8762 175.244 28.3092 176.102 28.8 176.927C29.08 177.411 29.376 177.891 29.68 178.363C29.512 178.167 29.356 177.995 29.332 177.963C28.652 177.347 26.98 176.551 26.088 177.059C25.94 177.146 25.8125 177.264 25.7139 177.405C25.6153 177.545 25.5481 177.705 25.5166 177.874C25.4851 178.042 25.4902 178.216 25.5315 178.383C25.5728 178.549 25.6493 178.705 25.756 178.839C26.156 179.431 27.044 179.639 27.732 179.663C28.42 179.687 29.732 179.151 30.104 179.003C30.224 179.183 30.34 179.367 30.456 179.547C31.032 180.415 31.604 181.279 32.144 182.139C32.332 182.443 32.508 182.751 32.688 183.059C32.536 182.883 32.404 182.739 32.384 182.719C31.704 182.099 30.028 181.303 29.136 181.815C28.9871 181.902 28.8586 182.02 28.7593 182.16C28.6599 182.301 28.592 182.461 28.5601 182.631C28.5282 182.8 28.5331 182.974 28.5745 183.141C28.6159 183.308 28.6928 183.465 28.8 183.599C29.2 184.187 30.088 184.399 30.776 184.419C31.464 184.439 32.676 183.963 33.092 183.791Z" fill="#263238"/>
<g opacity="0.2">
<path d="M132.272 76.6319C132.356 76.6719 133.172 70.6319 133.18 70.2319C133.268 65.7559 130.812 57.0559 126.072 55.4319C122.66 54.2559 119.272 56.5599 118.472 59.9319C117.672 63.3799 119.672 67.2479 121.804 69.8199C124.316 72.8519 132.268 76.6279 132.272 76.6319Z" fill="black"/>
<path d="M43.672 85.199C47.432 86.335 56.144 85.103 56.152 85.099C56.24 85.099 53.592 79.603 53.388 79.275C50.988 75.495 44.144 69.595 39.288 70.847C35.792 71.767 34.24 75.559 35.44 78.799C36.664 82.127 40.472 84.247 43.672 85.199Z" fill="black"/>
<path d="M88.8 152.799C89.64 154.351 90.48 155.907 91.224 157.451C91.704 158.519 92.244 159.511 92.668 160.611L93.988 163.811C94.752 165.879 95.552 168.003 96.244 170.039C96.736 171.451 97.18 172.803 97.632 174.167C96.728 172.679 94.896 169.807 94.716 169.583C91.916 166.099 84.42 161.027 79.744 162.827C76.376 164.127 75.268 168.071 76.832 171.163C78.432 174.319 82.46 175.991 85.748 176.583C89.372 177.235 96.996 175.339 97.944 175.095C98.684 177.355 99.38 179.555 100.004 181.643C101.124 185.355 102.068 188.755 102.864 191.771H106.192C105.272 188.535 104.164 184.835 102.84 180.759C102.1 178.463 101.24 176.027 100.376 173.531C102.595 172.326 104.742 170.99 106.804 169.531C109.68 171.987 116.592 174.443 117.484 174.751C116.856 177.043 116.224 179.263 115.592 181.351C114.428 185.231 113.292 188.731 112.252 191.783H115.612C116.508 188.915 117.468 185.711 118.444 182.183C119.092 179.859 119.74 177.363 120.38 174.795C121.34 174.879 129.18 175.527 132.66 174.295C135.812 173.179 139.516 170.879 140.584 167.495C141.628 164.191 139.9 160.479 136.364 159.739C131.46 158.715 124.892 164.939 122.68 168.823C122.548 169.051 121.408 171.699 120.72 173.383C120.976 172.331 121.236 171.315 121.484 170.227C121.992 168.087 122.44 165.935 122.924 163.619L123.52 160.207C123.74 159.075 123.832 157.847 123.996 156.655C124.316 153.883 124.508 151.055 124.636 148.211C126.512 148.655 133.2 150.123 136.5 149.495C139.8 148.867 143.792 147.159 145.36 143.987C146.896 140.879 145.76 136.947 142.368 135.679C137.672 133.927 130.24 139.075 127.464 142.583C127.288 142.803 125.58 145.547 124.664 147.071C124.728 145.359 124.804 143.647 124.812 141.915C124.836 136.903 124.708 131.835 124.6 126.775C124.564 125.227 124.552 123.683 124.532 122.135C125.196 122.299 133.108 124.219 136.804 123.515C140.088 122.891 144.096 121.179 145.664 118.007C147.196 114.899 146.064 110.967 142.668 109.703C137.972 107.947 130.544 113.095 127.764 116.607C127.556 116.871 125.1 120.819 124.524 121.855C124.48 118.451 124.468 115.055 124.592 111.711C124.735 107.192 125.172 102.686 125.9 98.2235C126.208 98.3035 134.456 100.343 138.24 99.6235C141.524 98.9955 145.536 97.2835 147.1 94.1115C148.636 91.0075 147.5 87.0715 144.108 85.8075C139.424 84.0555 132 89.1995 129.2 92.7155C129.016 92.9435 127.144 95.9515 126.288 97.4035L126.02 97.3035C126.871 92.8325 128.121 88.4469 129.756 84.1995C130.624 81.8515 131.584 79.6515 132.556 77.5355C134.052 78.0715 140.92 80.4555 144.396 80.1795C147.732 79.9195 151.904 78.6595 153.812 75.6795C155.676 72.7595 154.968 68.7235 151.744 67.0955C147.272 64.8355 139.32 69.1355 136.176 72.3195C136.004 72.4915 134.46 74.4475 133.352 75.8835C133.812 74.9355 134.268 73.9475 134.724 73.0475C136.436 69.6635 138.208 66.6715 139.8 64.0355C140.72 62.5435 141.576 61.2115 142.396 59.9715C144.14 59.7315 151.156 58.6835 154.064 56.8715C156.9 55.1035 160.024 52.0715 160.344 48.5355C160.652 45.0875 158.168 41.8315 154.556 41.8715C149.544 41.9275 144.468 49.4075 143.144 53.6835C143.028 54.0515 141.9 60.0355 141.992 60.0275H142.096C141.296 61.2035 140.432 62.4715 139.528 63.8755C137.872 66.4835 136.028 69.4475 134.24 72.8075C132.271 76.4055 130.515 80.1159 128.98 83.9195C127.238 88.1702 125.878 92.5675 124.916 97.0595C124.916 97.1115 124.916 97.1675 124.892 97.2235C124.744 95.7595 124.196 91.6915 124.116 91.3835C123.02 87.0435 118.352 79.2995 113.352 78.9835C109.752 78.7515 107.088 81.8715 107.216 85.3315C107.344 88.8675 110.3 92.0715 113.04 93.9915C116.128 96.1515 124.168 97.6475 124.808 97.7635C123.942 102.358 123.385 107.006 123.14 111.675C122.984 114.391 122.908 117.135 122.868 119.887C122.7 118.631 122.54 117.487 122.5 117.351C121.404 113.011 116.736 105.267 111.732 104.951C108.132 104.715 105.472 107.835 105.6 111.299C105.728 114.835 108.684 118.035 111.424 119.955C114.164 121.875 121.024 123.311 122.84 123.659C122.84 124.715 122.82 125.771 122.82 126.827C122.82 131.891 122.82 136.947 122.704 141.907C122.656 143.655 122.548 145.375 122.444 147.107C122.292 145.991 122.156 145.051 122.12 144.907C121.024 140.567 116.356 132.827 111.356 132.507C107.756 132.275 105.092 135.391 105.22 138.855C105.348 142.391 108.308 145.595 111.044 147.511C113.696 149.367 119.988 150.711 122.136 151.155C121.98 152.911 121.824 154.675 121.588 156.355C121.404 157.511 121.304 158.635 121.052 159.787C120.8 160.939 120.608 162.063 120.388 163.183C119.884 165.327 119.376 167.543 118.832 169.623C118.464 171.071 118.088 172.447 117.716 173.831C117.78 172.091 117.84 168.687 117.812 168.399C117.528 165.439 115.908 160.763 113.412 157.639C113.374 157.201 113.295 156.767 113.176 156.343C112.228 153.011 108.736 150.867 105.38 152.203C100.72 154.055 98.676 162.863 98.98 167.327C98.98 167.591 99.508 170.427 99.86 172.215C99.492 171.195 99.148 170.215 98.76 169.159C98 167.095 97.184 165.051 96.316 162.855C95.856 161.807 95.396 160.751 94.928 159.679C94.46 158.607 93.884 157.539 93.364 156.455C92.104 153.967 90.708 151.507 89.244 149.059C91.052 148.391 97.44 145.927 99.844 143.583C102.248 141.239 104.644 137.611 104.196 134.099C103.764 130.663 100.636 128.015 97.116 128.827C92.232 129.951 88.876 138.347 88.496 142.807C88.472 143.083 88.556 146.315 88.64 148.087C87.748 146.623 86.864 145.159 85.916 143.707C83.176 139.515 80.268 135.359 77.388 131.199C76.508 129.923 75.644 128.643 74.772 127.367C75.416 127.135 83.076 124.371 85.768 121.747C88.168 119.411 90.568 115.775 90.12 112.263C89.688 108.827 86.56 106.179 83.04 106.991C78.156 108.115 74.8 116.507 74.42 120.967C74.388 121.303 74.52 125.955 74.612 127.135C72.696 124.335 70.816 121.495 69.072 118.639C66.6991 114.79 64.5774 110.791 62.72 106.667C63.024 106.559 71.028 103.711 73.788 101.023C76.188 98.6915 78.588 95.0515 78.136 91.5395C77.704 88.1035 74.576 85.4555 71.06 86.2675C66.172 87.3915 62.816 95.7875 62.436 100.243C62.412 100.539 62.508 104.083 62.592 105.763L62.316 105.827C60.5688 101.616 59.2046 97.2557 58.24 92.7995C57.668 90.3635 57.256 87.9995 56.908 85.6915C58.456 85.3115 65.5 83.5075 68.248 81.3635C70.884 79.3035 73.668 75.9515 73.616 72.4155C73.56 68.9515 70.744 65.9755 67.156 66.3955C62.18 66.9755 57.92 74.9515 57.052 79.3435C57.004 79.5795 56.792 82.0635 56.652 83.8715C56.512 82.8275 56.348 81.7515 56.252 80.7475C55.812 76.9835 55.64 73.5075 55.512 70.4315C55.456 68.6795 55.436 67.0955 55.436 65.6315C56.76 64.4715 62.032 59.7235 63.46 56.6075C64.848 53.5675 65.776 49.3075 64.096 46.2075C62.452 43.1595 58.584 41.8075 55.592 43.8395C51.444 46.6395 51.34 55.6915 52.592 59.9915C52.7 60.3595 55.06 65.9915 55.132 65.9155L55.212 65.8435C55.184 67.2715 55.168 68.8035 55.188 70.4755C55.248 73.5595 55.344 77.0515 55.704 80.8395C56.0484 84.9259 56.6307 88.9888 57.448 93.0075C58.3392 97.514 59.6324 101.932 61.312 106.207C61.332 106.259 61.36 106.307 61.38 106.359C60.448 105.223 57.744 102.131 57.512 101.915C54.204 98.8995 46.036 95.0195 41.688 97.5155C38.552 99.3115 38.056 103.375 40.088 106.195C42.12 109.015 46.38 110.115 49.724 110.195C53.492 110.295 61.02 107.107 61.616 106.851C63.4308 111.16 65.5315 115.343 67.904 119.371C69.272 121.727 70.704 124.059 72.204 126.375C71.372 125.419 70.604 124.567 70.5 124.463C67.192 121.443 59.024 117.563 54.676 120.063C51.54 121.855 51.044 125.923 53.076 128.739C55.136 131.619 59.368 132.659 62.712 132.739C66.056 132.819 72.576 130.239 74.28 129.539C74.856 130.423 75.424 131.311 76.008 132.191C78.808 136.419 81.608 140.627 84.228 144.835C85.156 146.319 86.012 147.815 86.876 149.307C86.132 148.455 85.5 147.747 85.392 147.651C82.084 144.635 73.92 140.751 69.572 143.251C66.436 145.043 65.94 149.111 67.972 151.927C70.032 154.807 74.264 155.847 77.604 155.927C80.8 155.999 86.8 153.639 88.8 152.799Z" fill="black"/>
<path opacity="0.3" d="M43.672 85.199C47.432 86.335 56.144 85.103 56.152 85.099C56.24 85.099 53.592 79.603 53.388 79.275C50.988 75.495 44.144 69.595 39.288 70.847C35.792 71.767 34.24 75.559 35.44 78.799C36.664 82.127 40.472 84.247 43.672 85.199Z" fill="black"/>
<path opacity="0.3" d="M132.272 76.6319C132.356 76.6719 133.172 70.6319 133.18 70.2319C133.268 65.7559 130.812 57.0559 126.072 55.4319C122.66 54.2559 119.272 56.5599 118.472 59.9319C117.672 63.3799 119.672 67.2479 121.804 69.8199C124.316 72.8519 132.268 76.6279 132.272 76.6319Z" fill="black"/>
<path opacity="0.3" d="M88.8 152.799C89.64 154.351 90.48 155.907 91.224 157.451C91.704 158.519 92.244 159.511 92.668 160.611L93.988 163.811C94.752 165.879 95.552 168.003 96.244 170.039C96.736 171.451 97.18 172.803 97.632 174.167C96.728 172.679 94.896 169.807 94.716 169.583C91.916 166.099 84.42 161.027 79.744 162.827C76.376 164.127 75.268 168.071 76.832 171.163C78.432 174.319 82.46 175.991 85.748 176.583C89.372 177.235 96.996 175.339 97.944 175.095C98.684 177.355 99.38 179.555 100.004 181.643C101.124 185.355 102.068 188.755 102.864 191.771H106.192C105.272 188.535 104.164 184.835 102.84 180.759C102.1 178.463 101.24 176.027 100.376 173.531C102.595 172.326 104.742 170.99 106.804 169.531C109.68 171.987 116.592 174.443 117.484 174.751C116.856 177.043 116.224 179.263 115.592 181.351C114.428 185.231 113.292 188.731 112.252 191.783H115.612C116.508 188.915 117.468 185.711 118.444 182.183C119.092 179.859 119.74 177.363 120.38 174.795C121.34 174.879 129.18 175.527 132.66 174.295C135.812 173.179 139.516 170.879 140.584 167.495C141.628 164.191 139.9 160.479 136.364 159.739C131.46 158.715 124.892 164.939 122.68 168.823C122.548 169.051 121.408 171.699 120.72 173.383C120.976 172.331 121.236 171.315 121.484 170.227C121.992 168.087 122.44 165.935 122.924 163.619L123.52 160.207C123.74 159.075 123.832 157.847 123.996 156.655C124.316 153.883 124.508 151.055 124.636 148.211C126.512 148.655 133.2 150.123 136.5 149.495C139.8 148.867 143.792 147.159 145.36 143.987C146.896 140.879 145.76 136.947 142.368 135.679C137.672 133.927 130.24 139.075 127.464 142.583C127.288 142.803 125.58 145.547 124.664 147.071C124.728 145.359 124.804 143.647 124.812 141.915C124.836 136.903 124.708 131.835 124.6 126.775C124.564 125.227 124.552 123.683 124.532 122.135C125.196 122.299 133.108 124.219 136.804 123.515C140.088 122.891 144.096 121.179 145.664 118.007C147.196 114.899 146.064 110.967 142.668 109.703C137.972 107.947 130.544 113.095 127.764 116.607C127.556 116.871 125.1 120.819 124.524 121.855C124.48 118.451 124.468 115.055 124.592 111.711C124.735 107.192 125.172 102.686 125.9 98.2235C126.208 98.3035 134.456 100.343 138.24 99.6235C141.524 98.9955 145.536 97.2835 147.1 94.1115C148.636 91.0075 147.5 87.0715 144.108 85.8075C139.424 84.0555 132 89.1995 129.2 92.7155C129.016 92.9435 127.144 95.9515 126.288 97.4035L126.02 97.3035C126.871 92.8325 128.121 88.4469 129.756 84.1995C130.624 81.8515 131.584 79.6515 132.556 77.5355C134.052 78.0715 140.92 80.4555 144.396 80.1795C147.732 79.9195 151.904 78.6595 153.812 75.6795C155.676 72.7595 154.968 68.7235 151.744 67.0955C147.272 64.8355 139.32 69.1355 136.176 72.3195C136.004 72.4915 134.46 74.4475 133.352 75.8835C133.812 74.9355 134.268 73.9475 134.724 73.0475C136.436 69.6635 138.208 66.6715 139.8 64.0355C140.72 62.5435 141.576 61.2115 142.396 59.9715C144.14 59.7315 151.156 58.6835 154.064 56.8715C156.9 55.1035 160.024 52.0715 160.344 48.5355C160.652 45.0875 158.168 41.8315 154.556 41.8715C149.544 41.9275 144.468 49.4075 143.144 53.6835C143.028 54.0515 141.9 60.0355 141.992 60.0275H142.096C141.296 61.2035 140.432 62.4715 139.528 63.8755C137.872 66.4835 136.028 69.4475 134.24 72.8075C132.271 76.4055 130.515 80.1159 128.98 83.9195C127.238 88.1702 125.878 92.5675 124.916 97.0595C124.916 97.1115 124.916 97.1675 124.892 97.2235C124.744 95.7595 124.196 91.6915 124.116 91.3835C123.02 87.0435 118.352 79.2995 113.352 78.9835C109.752 78.7515 107.088 81.8715 107.216 85.3315C107.344 88.8675 110.3 92.0715 113.04 93.9915C116.128 96.1515 124.168 97.6475 124.808 97.7635C123.942 102.358 123.385 107.006 123.14 111.675C122.984 114.391 122.908 117.135 122.868 119.887C122.7 118.631 122.54 117.487 122.5 117.351C121.404 113.011 116.736 105.267 111.732 104.951C108.132 104.715 105.472 107.835 105.6 111.299C105.728 114.835 108.684 118.035 111.424 119.955C114.164 121.875 121.024 123.311 122.84 123.659C122.84 124.715 122.82 125.771 122.82 126.827C122.82 131.891 122.82 136.947 122.704 141.907C122.656 143.655 122.548 145.375 122.444 147.107C122.292 145.991 122.156 145.051 122.12 144.907C121.024 140.567 116.356 132.827 111.356 132.507C107.756 132.275 105.092 135.391 105.22 138.855C105.348 142.391 108.308 145.595 111.044 147.511C113.696 149.367 119.988 150.711 122.136 151.155C121.98 152.911 121.824 154.675 121.588 156.355C121.404 157.511 121.304 158.635 121.052 159.787C120.8 160.939 120.608 162.063 120.388 163.183C119.884 165.327 119.376 167.543 118.832 169.623C118.464 171.071 118.088 172.447 117.716 173.831C117.78 172.091 117.84 168.687 117.812 168.399C117.528 165.439 115.908 160.763 113.412 157.639C113.374 157.201 113.295 156.767 113.176 156.343C112.228 153.011 108.736 150.867 105.38 152.203C100.72 154.055 98.676 162.863 98.98 167.327C98.98 167.591 99.508 170.427 99.86 172.215C99.492 171.195 99.148 170.215 98.76 169.159C98 167.095 97.184 165.051 96.316 162.855C95.856 161.807 95.396 160.751 94.928 159.679C94.46 158.607 93.884 157.539 93.364 156.455C92.104 153.967 90.708 151.507 89.244 149.059C91.052 148.391 97.44 145.927 99.844 143.583C102.248 141.239 104.644 137.611 104.196 134.099C103.764 130.663 100.636 128.015 97.116 128.827C92.232 129.951 88.876 138.347 88.496 142.807C88.472 143.083 88.556 146.315 88.64 148.087C87.748 146.623 86.864 145.159 85.916 143.707C83.176 139.515 80.268 135.359 77.388 131.199C76.508 129.923 75.644 128.643 74.772 127.367C75.416 127.135 83.076 124.371 85.768 121.747C88.168 119.411 90.568 115.775 90.12 112.263C89.688 108.827 86.56 106.179 83.04 106.991C78.156 108.115 74.8 116.507 74.42 120.967C74.388 121.303 74.52 125.955 74.612 127.135C72.696 124.335 70.816 121.495 69.072 118.639C66.6991 114.79 64.5774 110.791 62.72 106.667C63.024 106.559 71.028 103.711 73.788 101.023C76.188 98.6915 78.588 95.0515 78.136 91.5395C77.704 88.1035 74.576 85.4555 71.06 86.2675C66.172 87.3915 62.816 95.7875 62.436 100.243C62.412 100.539 62.508 104.083 62.592 105.763L62.316 105.827C60.5688 101.616 59.2046 97.2557 58.24 92.7995C57.668 90.3635 57.256 87.9995 56.908 85.6915C58.456 85.3115 65.5 83.5075 68.248 81.3635C70.884 79.3035 73.668 75.9515 73.616 72.4155C73.56 68.9515 70.744 65.9755 67.156 66.3955C62.18 66.9755 57.92 74.9515 57.052 79.3435C57.004 79.5795 56.792 82.0635 56.652 83.8715C56.512 82.8275 56.348 81.7515 56.252 80.7475C55.812 76.9835 55.64 73.5075 55.512 70.4315C55.456 68.6795 55.436 67.0955 55.436 65.6315C56.76 64.4715 62.032 59.7235 63.46 56.6075C64.848 53.5675 65.776 49.3075 64.096 46.2075C62.452 43.1595 58.584 41.8075 55.592 43.8395C51.444 46.6395 51.34 55.6915 52.592 59.9915C52.7 60.3595 55.06 65.9915 55.132 65.9155L55.212 65.8435C55.184 67.2715 55.168 68.8035 55.188 70.4755C55.248 73.5595 55.344 77.0515 55.704 80.8395C56.0484 84.9259 56.6307 88.9888 57.448 93.0075C58.3392 97.514 59.6324 101.932 61.312 106.207C61.332 106.259 61.36 106.307 61.38 106.359C60.448 105.223 57.744 102.131 57.512 101.915C54.204 98.8995 46.036 95.0195 41.688 97.5155C38.552 99.3115 38.056 103.375 40.088 106.195C42.12 109.015 46.38 110.115 49.724 110.195C53.492 110.295 61.02 107.107 61.616 106.851C63.4308 111.16 65.5315 115.343 67.904 119.371C69.272 121.727 70.704 124.059 72.204 126.375C71.372 125.419 70.604 124.567 70.5 124.463C67.192 121.443 59.024 117.563 54.676 120.063C51.54 121.855 51.044 125.923 53.076 128.739C55.136 131.619 59.368 132.659 62.712 132.739C66.056 132.819 72.576 130.239 74.28 129.539C74.856 130.423 75.424 131.311 76.008 132.191C78.808 136.419 81.608 140.627 84.228 144.835C85.156 146.319 86.012 147.815 86.876 149.307C86.132 148.455 85.5 147.747 85.392 147.651C82.084 144.635 73.92 140.751 69.572 143.251C66.436 145.043 65.94 149.111 67.972 151.927C70.032 154.807 74.264 155.847 77.604 155.927C80.8 155.999 86.8 153.639 88.8 152.799Z" fill="black"/>
</g>
<path d="M47.924 20.1281C47.924 20.1281 45.956 15.0641 38.928 14.5041C31.9 13.9441 31.056 21.5321 29.652 22.6561C28.248 23.7801 25.432 20.6881 22.62 21.8121C20.9138 22.5221 19.5177 23.8188 18.684 25.4681C18.684 25.4681 16.156 24.3441 14.468 24.6241C12.78 24.9041 10.812 27.4241 10.812 27.4241H58.328C58.328 27.4241 58.328 22.6241 54.956 20.9561C51.584 19.2881 50.176 22.9281 49.332 22.6441C48.488 22.3601 47.924 20.1281 47.924 20.1281Z" stroke="#263238" stroke-miterlimit="10"/>
<path d="M184.204 57.4325C184.204 57.4325 182.532 53.1285 176.552 52.6325C170.572 52.1365 169.856 58.6285 168.66 59.6005C167.464 60.5725 165.06 57.9245 162.68 58.8805C161.228 59.485 160.041 60.5888 159.332 61.9925C159.332 61.9925 157.18 61.0365 155.732 61.2725C154.284 61.5085 152.624 63.6725 152.624 63.6725H193.024C193.024 63.6725 193.024 59.6085 190.156 58.1725C187.288 56.7365 186.088 59.8485 185.356 59.6085C184.624 59.3685 184.204 57.4325 184.204 57.4325Z" stroke="#263238" stroke-miterlimit="10"/>
<path d="M51.068 136.432C51.068 136.432 48.712 130.368 40.288 129.696C31.864 129.024 30.856 138.116 29.172 139.464C27.488 140.812 24.12 137.108 20.752 138.456C18.7073 139.303 17.0342 140.856 16.036 142.832C16.036 142.832 13.004 141.488 10.98 141.824C8.956 142.16 6.604 145.2 6.604 145.2H63.532C63.532 145.2 63.532 139.472 59.492 137.452C55.452 135.432 53.764 139.808 52.756 139.472C51.748 139.136 51.068 136.432 51.068 136.432Z" stroke="#263238" stroke-miterlimit="10"/>
<path d="M173.324 118.419C183.764 118.419 192.228 109.956 192.228 99.5153C192.228 89.0749 183.764 80.6113 173.324 80.6113C162.884 80.6113 154.42 89.0749 154.42 99.5153C154.42 109.956 162.884 118.419 173.324 118.419Z" stroke="#263238" stroke-miterlimit="10"/>
<path d="M173.324 118.419C179.326 118.419 184.192 109.956 184.192 99.5153C184.192 89.0749 179.326 80.6113 173.324 80.6113C167.322 80.6113 162.456 89.0749 162.456 99.5153C162.456 109.956 167.322 118.419 173.324 118.419Z" stroke="#263238" stroke-miterlimit="10"/>
<path d="M173.324 80.6113V118.419" stroke="#263238" stroke-miterlimit="10"/>
<path d="M162.228 84.2871H184.304" stroke="#263238" stroke-miterlimit="10"/>
<path d="M162.228 114.967H184.304" stroke="#263238" stroke-miterlimit="10"/>
<path d="M155.868 91.832H190.664" stroke="#263238" stroke-miterlimit="10"/>
<path d="M155.868 106.924H190.664" stroke="#263238" stroke-miterlimit="10"/>
<path d="M154.496 99.3789H192.036" stroke="#263238" stroke-miterlimit="10"/>
<path d="M169.428 15.3945H125.148C123.608 15.3945 122.36 16.6428 122.36 18.1825V23.1025C122.36 24.6423 123.608 25.8905 125.148 25.8905H169.428C170.968 25.8905 172.216 24.6423 172.216 23.1025V18.1825C172.216 16.6428 170.968 15.3945 169.428 15.3945Z" stroke="#263238" stroke-miterlimit="10"/>
<path d="M160.06 15.3594V26.0954" stroke="#263238" stroke-miterlimit="10"/>
<path d="M171.06 23.6556L168.2 21.5076C168.593 20.7437 168.685 19.8602 168.459 19.0315C168.233 18.2027 167.705 17.4887 166.978 17.0302C166.252 16.5718 165.38 16.4021 164.534 16.5546C163.689 16.7072 162.931 17.1709 162.411 17.8543C161.89 18.5378 161.645 19.3914 161.723 20.247C161.8 21.1026 162.196 21.8979 162.831 22.4764C163.466 23.0548 164.295 23.3744 165.154 23.372C166.013 23.3696 166.84 23.0455 167.472 22.4636L170.34 24.6156C170.444 24.693 170.57 24.735 170.7 24.7356C170.826 24.7356 170.949 24.696 171.051 24.6224C171.153 24.5487 171.229 24.4448 171.269 24.3254C171.309 24.2059 171.31 24.0769 171.273 23.9567C171.235 23.8365 171.161 23.7312 171.06 23.6556ZM165.164 22.1716C164.726 22.1724 164.298 22.0433 163.934 21.8008C163.57 21.5582 163.286 21.213 163.118 20.8089C162.95 20.4048 162.905 19.9599 162.99 19.5305C163.075 19.1012 163.285 18.7067 163.594 18.3969C163.904 18.0872 164.298 17.8761 164.727 17.7904C165.156 17.7047 165.601 17.7483 166.006 17.9156C166.41 18.0829 166.756 18.3664 166.999 18.7303C167.242 19.0941 167.372 19.522 167.372 19.9596C167.371 20.5453 167.138 21.1067 166.724 21.5212C166.311 21.9356 165.75 22.1695 165.164 22.1716Z" stroke="#263238" stroke-miterlimit="10"/>
<path d="M42.8 64.3359L31.46 55.8439C33.0061 52.8281 33.3665 49.3426 32.4702 46.0742C31.5738 42.8059 29.4858 39.9918 26.6175 38.1867C23.7493 36.3815 20.3089 35.7161 16.9744 36.3218C13.64 36.9274 10.6533 38.76 8.603 41.4585C6.55273 44.157 5.58758 47.5256 5.89779 50.9004C6.20799 54.2752 7.77104 57.4114 10.2789 59.6909C12.7867 61.9704 16.0575 63.2279 19.4465 63.2155C22.8355 63.2031 26.0969 61.9217 28.588 59.6239L39.932 68.1319C40.1799 68.3346 40.4662 68.4851 40.7738 68.5743C41.0813 68.6636 41.4037 68.6897 41.7216 68.6512C42.0395 68.6127 42.3464 68.5103 42.6237 68.3502C42.901 68.1902 43.1432 67.9757 43.3355 67.7196C43.5279 67.4636 43.6665 67.1714 43.743 66.8604C43.8196 66.5495 43.8325 66.2263 43.781 65.9102C43.7294 65.5942 43.6146 65.2918 43.4433 65.0213C43.2719 64.7507 43.0477 64.5176 42.784 64.3359H42.8ZM19.452 58.4679C17.7207 58.4687 16.028 57.956 14.5881 56.9946C13.1483 56.0332 12.0259 54.6664 11.363 53.067C10.7001 51.4676 10.5264 49.7076 10.864 48.0095C11.2015 46.3114 12.0352 44.7515 13.2594 43.5273C14.4836 42.3031 16.0435 41.4695 17.7415 41.1319C19.4396 40.7943 21.1997 40.968 22.7991 41.6309C24.3985 42.2938 25.7653 43.4162 26.7267 44.8561C27.6881 46.2959 28.2008 47.9886 28.2 49.7199C28.1968 52.0391 27.2741 54.2623 25.6343 55.9022C23.9944 57.5421 21.7711 58.4647 19.452 58.4679Z" stroke="#263238" stroke-miterlimit="10"/>
<path d="M98.768 77.6992C77.108 77.6992 58.728 89.9672 52.224 106.983C52.1658 107.139 52.1593 107.31 52.2054 107.469C52.2515 107.629 52.3478 107.77 52.48 107.871L70.692 121.871C70.8272 121.973 70.991 122.029 71.16 122.031H74.08C74.1835 122.031 74.2858 122.01 74.3808 121.969C74.4759 121.928 74.5618 121.868 74.6334 121.794C74.7051 121.719 74.761 121.631 74.7978 121.534C74.8347 121.438 74.8518 121.335 74.848 121.231C74.848 121.015 74.848 120.799 74.848 120.583C74.848 109.031 85.56 99.6632 98.78 99.6632C112 99.6632 122.712 109.031 122.712 120.583C122.712 132.135 112 141.495 98.768 141.495C96.7358 141.495 94.7101 141.268 92.728 140.819C92.5459 140.776 92.3592 140.755 92.172 140.755C91.757 140.757 91.3485 140.858 90.9813 141.052C90.6141 141.245 90.2992 141.524 90.0634 141.866C89.8276 142.207 89.6779 142.601 89.6272 143.013C89.5765 143.425 89.6261 143.843 89.772 144.231L92.432 151.279V167.431H121.668V160.751C121.665 160.096 121.843 159.454 122.181 158.893C122.52 158.333 123.007 157.877 123.588 157.575C138.096 150.123 147.836 136.347 147.836 120.579C147.828 96.8952 125.864 77.6992 98.768 77.6992Z" fill="#263238" stroke="#263238" stroke-miterlimit="10"/>
<path d="M121.66 170.596H92.424V191.788H121.66V170.596Z" fill="#263238" stroke="#263238" stroke-miterlimit="10"/>
<path d="M143.828 120.579C143.828 96.8952 121.864 77.6992 94.768 77.6992C73.128 77.6992 54.768 89.9392 48.244 106.931C48.1859 107.099 48.185 107.281 48.2415 107.449C48.2979 107.616 48.4086 107.761 48.556 107.859L69.652 121.243C69.769 121.321 69.9049 121.366 70.0453 121.372C70.1857 121.378 70.3252 121.346 70.4486 121.279C70.5721 121.212 70.6749 121.112 70.746 120.991C70.8171 120.87 70.8538 120.732 70.852 120.591C70.852 109.039 81.568 99.6712 94.784 99.6712C108 99.6712 118.716 109.039 118.716 120.591C118.716 132.143 108 141.495 94.768 141.495C93.63 141.496 92.4931 141.425 91.364 141.283C91.0014 141.235 90.6326 141.264 90.2824 141.37C89.9321 141.476 89.6085 141.655 89.3332 141.896C89.0578 142.137 88.8371 142.434 88.6858 142.767C88.5346 143.1 88.4562 143.461 88.456 143.827V151.279H88.424V167.431H117.66V160.751C117.658 160.097 117.836 159.454 118.175 158.894C118.513 158.334 118.999 157.878 119.58 157.575C134.088 150.123 143.828 136.347 143.828 120.579Z" fill="#3498DB" stroke="#263238" stroke-miterlimit="10"/>
<path d="M117.66 170.596H88.424V191.788H117.66V170.596Z" fill="#3498DB" stroke="#263238" stroke-miterlimit="10"/>
<path d="M92.2 36.3203C92.2 36.3203 89.312 37.6003 88 38.1963C87.2564 38.552 86.4827 38.8411 85.688 39.0603L87.892 40.2163L94.1 39.2403L92.2 36.3203Z" fill="white" stroke="#263238" stroke-miterlimit="10"/>
<path d="M82.996 37.6507C82.5955 37.267 82.2652 36.8163 82.02 36.3187C81.732 35.6307 81.152 35.9547 81.152 36.4627C81.1712 36.9565 81.3354 37.4337 81.624 37.8347C81.768 37.9067 83.284 38.1587 83.284 38.1587L82.996 37.6507Z" stroke="#263238" stroke-miterlimit="10"/>
<path d="M93.352 40.7151L93.964 44.1791C93.964 44.1791 92.764 51.0551 92.532 55.0111C92.3 58.9671 92.132 61.5431 92.36 62.5751C92.588 63.6071 95.56 73.6351 95.56 73.6351C95.56 73.6351 95.044 74.2671 95.044 74.4351C95.044 74.6031 94.988 75.2351 94.988 75.2351C94.5367 75.6853 94.0571 76.1062 93.552 76.4951C92.924 76.9551 91.604 77.3551 91.836 77.8151C92.068 78.2751 93.612 77.8151 95.332 77.8151C97.052 77.8151 98.252 78.0431 98.884 77.5871C99.516 77.1311 98.94 75.4071 98.94 75.4071C98.94 75.4071 99 74.2071 99.056 73.8591C99.112 73.5111 98.312 71.7391 98.368 71.2231C98.424 70.7071 97 60.3991 97 60.3991L99.864 49.7991C99.864 49.7991 104.564 61.7191 105.14 62.2911C105.716 62.8631 113.448 72.7231 113.448 72.7231C113.448 72.7231 112.932 73.2951 113.104 73.5831C113.244 73.8018 113.398 74.0115 113.564 74.2111C113.564 74.2111 112.988 75.4111 112.644 75.9311C112.3 76.4511 111.328 76.7311 111.5 77.0791C111.672 77.4271 113.448 77.4791 113.9 77.3631C114.352 77.2471 116.192 75.2431 116.7 74.8431C117.208 74.4431 118.188 73.6951 118.188 73.1791C118.188 72.6631 117.216 72.0351 117.156 71.8631C117.096 71.6911 116.984 70.9471 116.64 70.7151C116.307 70.5053 115.962 70.3143 115.608 70.1431C115.38 70.0271 109.648 60.0551 109.648 60.0551C109.648 60.0551 107.072 44.6991 106.384 42.9231C105.696 41.1471 101.788 36.0391 101.788 36.0391L93.352 40.7151Z" fill="#263238" stroke="#263238" stroke-miterlimit="10"/>
<path d="M87.112 31.1995C87.112 31.1995 87.868 34.6675 88.824 35.5755C89.78 36.4835 91.692 36.7315 91.692 36.7315L93.352 40.7075C93.352 40.7075 99.388 38.8435 101.804 36.0275C101.804 36.0275 99.004 31.5515 96.924 28.6835C94.844 25.8155 95.716 25.3195 92.8 23.5995C89.884 21.8795 87.516 24.2555 87.516 24.2555C87.516 24.2555 85.304 24.3635 87.112 31.1995Z" fill="#B5EB2E" stroke="#263238" stroke-miterlimit="10"/>
<path d="M83.548 14.5081C83.548 14.5081 82.96 13.3081 79.148 13.9161C77.8934 14.0646 76.7232 14.6242 75.8201 15.5078C74.917 16.3913 74.3319 17.549 74.156 18.8001C74.004 20.0001 74.156 19.9441 73.788 20.2441C73.42 20.5441 71.788 20.3481 72.076 22.1081C72.364 23.8681 74.444 22.8601 74.744 23.4641C74.8788 23.7768 75.1021 24.0434 75.3863 24.231C75.6706 24.4186 76.0034 24.519 76.344 24.5201C77.196 24.5721 78.004 23.5641 78.104 23.1641C78.204 22.7641 79.06 22.4081 80.568 23.3161C82.076 24.2241 84.088 25.8281 86.204 24.0681C88.32 22.3081 85.56 16.0641 83.548 14.5081Z" fill="#263238" stroke="#263238" stroke-miterlimit="10"/>
<path d="M75.644 21.9993C75.8094 22.55 76.0222 23.0854 76.28 23.5993C76.596 24.1433 77.772 24.6433 77.82 25.4553C77.868 26.2673 77.592 26.8153 77.82 26.9513C78.048 27.0873 79.132 26.7713 79.132 26.7713C79.132 26.7713 81.532 28.3713 82.12 28.1273C82.708 27.8833 83.84 26.3153 83.84 26.3153L86.4 28.1353L87.112 31.1993L88.02 29.7393C88.02 29.7393 86.308 27.6753 86.912 25.9673L87.516 24.2553C87.516 24.2553 83.66 23.7233 83.16 23.0913C82.66 22.4593 81.756 20.8713 80.944 20.6433C80.132 20.4153 79.812 21.5513 79.9 21.8233C79.988 22.0953 78.544 22.0473 77.636 21.6873L76.732 21.3233C76.504 21.2433 75.644 21.5993 75.644 21.9993Z" fill="white" stroke="#263238" stroke-miterlimit="10"/>
<path d="M77.364 23.8669C77.364 23.8669 77.32 23.0669 78 22.9629" stroke="#263238" stroke-miterlimit="10"/>
<path d="M78.608 24.143C78.832 24.327 78.92 24.583 78.808 24.719C78.696 24.855 78.408 24.815 78.208 24.635C78.008 24.455 77.892 24.191 78.004 24.059C78.116 23.927 78.4 23.959 78.608 24.143Z" fill="#263238"/>
<path d="M80.308 26.8005C80.308 26.8005 80.58 26.6205 80.356 25.8965" stroke="#263238" stroke-miterlimit="10"/>
<path d="M82.212 21.7402C82.212 21.7402 82.844 22.4202 82.612 22.7802C82.4981 22.978 82.3425 23.1486 82.156 23.2802C82.156 23.2802 82.748 23.8682 82.792 24.2322" fill="white"/>
<path d="M82.212 21.7402C82.212 21.7402 82.844 22.4202 82.612 22.7802C82.4981 22.978 82.3425 23.1486 82.156 23.2802C82.156 23.2802 82.748 23.8682 82.792 24.2322" stroke="#263238" stroke-miterlimit="10"/>
<path d="M80.3 19.9437C80.3 19.9437 82.532 21.3997 83.712 23.2197C84.892 25.0397 88.252 24.9437 89.44 23.9437C90.628 22.9437 90.848 21.9757 91.764 22.2037C92.68 22.4317 94.88 23.1837 96.312 22.1317C97.744 21.0797 96.672 18.9877 98.128 19.3677C98.9073 19.5811 99.7342 19.541 100.489 19.2534C101.244 18.9658 101.888 18.4455 102.328 17.7677C103.312 16.2397 104.068 13.6317 101.312 10.2237C99.2 7.59972 96.036 8.28772 95.088 8.41972C94.14 8.55172 94.452 7.51172 91.356 7.51172C88.156 7.51172 86.648 10.2357 86.44 10.9957C86.232 11.7557 87.096 12.2717 84.62 11.4237C82.144 10.5757 80.936 11.5157 80.98 12.7877C81.024 14.0597 78.228 14.4957 77.704 14.6997" fill="#263238"/>
<path d="M80.3 19.9437C80.3 19.9437 82.532 21.3997 83.712 23.2197C84.892 25.0397 88.252 24.9437 89.44 23.9437C90.628 22.9437 90.848 21.9757 91.764 22.2037C92.68 22.4317 94.88 23.1837 96.312 22.1317C97.744 21.0797 96.672 18.9877 98.128 19.3677C98.9073 19.5811 99.7342 19.541 100.489 19.2534C101.244 18.9658 101.888 18.4455 102.328 17.7677C103.312 16.2397 104.068 13.6317 101.312 10.2237C99.2 7.59972 96.036 8.28772 95.088 8.41972C94.14 8.55172 94.452 7.51172 91.356 7.51172C88.156 7.51172 86.648 10.2357 86.44 10.9957C86.232 11.7557 87.096 12.2717 84.62 11.4237C82.144 10.5757 80.936 11.5157 80.98 12.7877C81.024 14.0597 78.228 14.4957 77.704 14.6997" stroke="#263238" stroke-miterlimit="10"/>
<path d="M108.86 46.155C108.743 46.1556 108.626 46.1421 108.512 46.1151L77.436 38.095C77.3063 38.0633 77.184 38.0062 77.0763 37.9272C76.9686 37.8482 76.8775 37.7488 76.8083 37.6346C76.739 37.5203 76.6929 37.3936 76.6726 37.2616C76.6523 37.1295 76.6582 36.9948 76.69 36.8651C76.7218 36.7353 76.7788 36.6131 76.8578 36.5054C76.9368 36.3977 77.0363 36.3066 77.1505 36.2373C77.2647 36.168 77.3915 36.1219 77.5235 36.1016C77.6555 36.0814 77.7903 36.0873 77.92 36.1191L109.2 43.287C109.544 43.3734 109.844 43.5821 110.045 43.8739C110.245 44.1658 110.333 44.5208 110.291 44.8725C110.248 45.2242 110.079 45.5484 109.815 45.7845C109.551 46.0206 109.21 46.1524 108.856 46.155H108.86Z" fill="#8F8F8F" stroke="#263238" stroke-miterlimit="10"/>
<path d="M95.916 40.7634L94.96 41.4674C94.7437 41.8405 94.4742 42.18 94.16 42.4754C93.808 42.7274 93.608 42.8754 93.96 43.0274C94.312 43.1794 95.16 42.8274 95.16 42.8274C95.16 42.8274 94.856 44.1354 95.108 44.2354C95.36 44.3354 95.908 44.3874 96.064 44.1874C96.1708 44.0553 96.3081 43.951 96.464 43.8834C96.464 43.8834 96.612 44.0834 97.52 43.8354C98.428 43.5874 98.476 42.0234 98.576 41.3194C98.676 40.6154 102.7 31.7594 102.952 30.6034C103.204 29.4474 102.952 28.7394 102.6 28.5394C102.248 28.3394 92.2 25.2194 91 25.1194C89.8 25.0194 88.484 26.7194 89.188 28.3874C89.892 30.0554 92.708 30.6034 93.464 30.7034C94.22 30.8034 98.664 31.3554 98.664 31.3554C98.664 31.3554 97.76 35.9354 97.56 37.5954C97.4529 38.8274 96.8617 39.9666 95.916 40.7634Z" fill="white" stroke="#263238" stroke-miterlimit="10"/>
<path d="M81.444 38.4006C81.3634 38.8897 81.3272 39.385 81.336 39.8806C81.408 40.0606 81.984 40.3846 82.136 39.8446C82.288 39.3046 82.316 38.4006 82.064 38.2446C81.812 38.0886 81.66 38.0526 81.444 38.4006Z" fill="white" stroke="#263238" stroke-miterlimit="10"/>
<path d="M82.4 38.9642C82.421 39.4595 82.4852 39.9521 82.592 40.4362C82.7 40.5962 83.328 40.8002 83.36 40.2402C83.392 39.6802 83.248 38.7882 82.96 38.7002C82.672 38.6122 82.524 38.5682 82.4 38.9642Z" fill="white" stroke="#263238" stroke-miterlimit="10"/>
<path d="M83.32 39.1068C83.343 39.6019 83.4072 40.0943 83.512 40.5788C83.62 40.7388 84.252 40.9428 84.284 40.3828C84.316 39.8228 84.168 38.9308 83.884 38.8428C83.6 38.7548 83.46 38.7108 83.32 39.1068Z" fill="white" stroke="#263238" stroke-miterlimit="10"/>
<path d="M84.352 39.3041C84.3701 39.7254 84.425 40.1444 84.516 40.5561C84.608 40.6921 85.144 40.8641 85.172 40.3881C85.2 39.9121 85.072 39.1561 84.84 39.0761C84.608 38.9961 84.472 38.9641 84.352 39.3041Z" fill="white" stroke="#263238" stroke-miterlimit="10"/>
<path d="M78.556 38.4988L78.644 36.7788L77.444 35.0028C76.644 32.8228 71.584 30.9708 67.972 30.0828C64.36 29.1948 60.096 29.7948 58.216 30.7468C56.336 31.6988 55.908 32.2748 55.908 32.2748L55.792 34.5588C55.28 37.1468 59.952 40.2548 66.232 41.4988C72.512 42.7428 78.016 41.6508 78.528 39.0588C78.5636 38.8744 78.573 38.6859 78.556 38.4988ZM73.124 38.7988C69.444 39.3468 66.08 38.9428 63.152 37.6628C61.2925 36.7977 59.5372 35.7241 57.92 34.4628C58.72 32.6588 63.016 31.9788 67.92 32.9508C72.568 33.8708 76.156 35.9588 76.552 37.8468C75.4679 38.3463 74.3104 38.6678 73.124 38.7988Z" fill="#8F8F8F" stroke="#263238" stroke-miterlimit="10"/>
<path d="M68.204 29.8401C61.928 28.5961 56.42 29.6881 55.908 32.2761C55.396 34.8641 60.068 37.9761 66.348 39.2161C72.628 40.4561 78.132 39.3681 78.644 36.7801C79.156 34.1921 74.484 31.0841 68.204 29.8401ZM76.692 36.1961C76.292 38.2281 71.764 39.0441 66.584 38.0201C61.404 36.9961 57.532 34.5161 57.936 32.4841C58.34 30.4521 62.864 29.6361 68.044 30.6601C73.224 31.6841 77.092 34.1641 76.692 36.1961Z" fill="white" stroke="#263238" stroke-miterlimit="10"/>
<path d="M154.972 191.783H195.924" stroke="#263238" stroke-miterlimit="10"/>
<path d="M6.51599 191.783H151.68" stroke="#263238" stroke-miterlimit="10"/>
</svg>
