<svg width="37" height="12" viewBox="0 0 37 12" fill="none" xmlns="http://www.w3.org/2000/svg">
<g clip-path="url(#clip0_1176_24286)">
<path d="M6.64767 11.1608H6.05567L5.90767 11.5673H5.80901L6.30234 10.2559H6.41334L6.90667 11.5673H6.80801L6.64767 11.1608ZM6.62301 11.069L6.40101 10.4919L6.36401 10.3608L6.31467 10.4919L6.10501 11.069H6.62301Z" fill="#003852"/>
<path d="M8.58401 10.676C8.58401 10.9382 8.41135 11.0825 8.12768 11.0825H7.86868V11.5546H7.60968V10.2432H8.12768C8.41135 10.2563 8.58401 10.4137 8.58401 10.676ZM8.32501 10.676C8.32501 10.5448 8.25101 10.4792 8.09068 10.4792H7.86868V10.8858H8.09068C8.25101 10.8858 8.32501 10.8071 8.32501 10.676Z" fill="#003852"/>
<path d="M9.48434 11.2526H9.00334L8.90468 11.5673H8.64568L9.08968 10.2559H9.39801L9.84201 11.5673H9.57068L9.48434 11.2526ZM9.42268 11.0427L9.29934 10.6755L9.25001 10.4788L9.20068 10.6755L9.07734 11.0427H9.42268Z" fill="#003852"/>
<path d="M10.4833 11.069H10.249V11.5673H9.99001V10.2559H10.5327C10.8163 10.2559 10.9767 10.4001 10.9767 10.6624C10.9767 10.846 10.8903 10.9772 10.73 11.0296L11.0507 11.5673H10.767L10.4833 11.069ZM10.249 10.8591H10.508C10.656 10.8591 10.73 10.7936 10.73 10.6624C10.73 10.5313 10.656 10.4657 10.508 10.4657H10.249V10.8591Z" fill="#003852"/>
<path d="M12.7403 10.4788H12.3333V11.5673H12.0743V10.4788H11.655V10.2559H12.7403V10.4788Z" fill="#003852"/>
<path d="M13.7517 11.1746H13.0857C13.1103 11.3188 13.1967 11.3844 13.32 11.3844C13.431 11.3844 13.505 11.3451 13.5297 11.2664L13.7393 11.3451C13.6777 11.5024 13.542 11.5942 13.32 11.5942C13.0117 11.5942 12.839 11.3975 12.839 11.0828C12.839 10.768 13.0117 10.5713 13.3077 10.5713C13.6037 10.5713 13.7517 10.7549 13.7517 11.0828C13.764 11.0959 13.764 11.1483 13.7517 11.1746ZM13.098 10.991H13.5297C13.505 10.8467 13.431 10.768 13.3077 10.768C13.1843 10.7549 13.1103 10.8336 13.098 10.991Z" fill="#003852"/>
<path d="M14.8 10.8466L14.5657 10.9384C14.541 10.8204 14.4793 10.7548 14.3807 10.7548C14.2327 10.7548 14.1587 10.8597 14.1587 11.0696C14.1587 11.2794 14.245 11.3843 14.3807 11.3843C14.4917 11.3843 14.5533 11.3188 14.578 11.2138L14.8123 11.2925C14.7753 11.463 14.6273 11.5942 14.393 11.5942C14.0847 11.5942 13.912 11.3974 13.912 11.0827C13.912 10.7679 14.0847 10.5712 14.393 10.5712C14.6273 10.5581 14.7507 10.6893 14.8 10.8466Z" fill="#003852"/>
<path d="M15.8607 10.9246V11.5803H15.6017V11.0033C15.6017 10.8328 15.5277 10.7803 15.4413 10.7803C15.3303 10.7803 15.2317 10.859 15.2317 11.0557V11.5803H14.9727V10.1377H15.2317V10.741C15.2933 10.6098 15.4043 10.5574 15.5277 10.5574C15.7127 10.5574 15.8607 10.6754 15.8607 10.9246Z" fill="#003852"/>
<path d="M16.983 10.9248V11.5806H16.724V11.0035C16.724 10.833 16.65 10.7806 16.5637 10.7806C16.4527 10.7806 16.354 10.8593 16.354 11.056V11.5806H16.095V10.5838H16.3293L16.3417 10.7543C16.4033 10.6232 16.5143 10.5576 16.6623 10.5576C16.835 10.5576 16.983 10.6757 16.983 10.9248Z" fill="#003852"/>
<path d="M18.1177 11.0691C18.1177 11.397 17.945 11.5806 17.6367 11.5806C17.3407 11.5806 17.1557 11.3838 17.1557 11.0691C17.1557 10.7543 17.3283 10.5576 17.6367 10.5576C17.9327 10.5576 18.1177 10.7543 18.1177 11.0691ZM17.4147 11.0691C17.4147 11.2789 17.4887 11.3838 17.6367 11.3838C17.7847 11.3838 17.8587 11.2789 17.8587 11.0691C17.8587 10.8593 17.7723 10.7543 17.6367 10.7543C17.4887 10.7543 17.4147 10.8593 17.4147 11.0691Z" fill="#003852"/>
<path d="M18.5493 11.2529C18.5493 11.3447 18.574 11.384 18.6357 11.384C18.6727 11.384 18.7097 11.384 18.7467 11.3578L18.722 11.5414C18.685 11.5676 18.611 11.5807 18.5493 11.5807C18.3643 11.5807 18.2903 11.4889 18.2903 11.2791V10.125H18.5493V11.2529Z" fill="#003852"/>
<path d="M19.758 11.0691C19.758 11.397 19.5853 11.5806 19.277 11.5806C18.9687 11.5806 18.796 11.3838 18.796 11.0691C18.796 10.7543 18.9687 10.5576 19.277 10.5576C19.5853 10.5576 19.758 10.7543 19.758 11.0691ZM19.0673 11.0691C19.0673 11.2789 19.1413 11.3838 19.2893 11.3838C19.4373 11.3838 19.5113 11.2789 19.5113 11.0691C19.5113 10.8593 19.4373 10.7543 19.2893 10.7543C19.1413 10.7543 19.0673 10.8593 19.0673 11.0691Z" fill="#003852"/>
<path d="M20.831 11.6593C20.831 11.8691 20.6213 12.0002 20.3253 12.0002C20.0047 12.0002 19.869 11.8953 19.869 11.7511C19.869 11.6593 19.9307 11.5937 20.0417 11.5675C19.9677 11.5281 19.906 11.4625 19.906 11.3707C19.906 11.2658 19.9677 11.2002 20.054 11.174C19.9553 11.1216 19.906 11.0298 19.906 10.8986C19.906 10.6888 20.0663 10.5576 20.3377 10.5576C20.4117 10.5576 20.4733 10.5707 20.5227 10.5839C20.5473 10.4396 20.6337 10.3347 20.8063 10.3478L20.8433 10.5445C20.72 10.5314 20.6583 10.5707 20.6213 10.6363C20.7077 10.6888 20.757 10.7806 20.757 10.8986C20.757 11.1084 20.5967 11.2396 20.3253 11.2396C20.2637 11.2396 20.202 11.2396 20.1527 11.2265C20.1033 11.2396 20.0787 11.2658 20.0787 11.3183C20.0787 11.3707 20.1157 11.397 20.1897 11.397H20.5103C20.72 11.3839 20.831 11.4757 20.831 11.6593ZM20.6213 11.6855C20.6213 11.633 20.5843 11.6068 20.4857 11.6068H20.2267C20.1157 11.6068 20.0663 11.633 20.0663 11.6986C20.0663 11.7642 20.1527 11.8166 20.3377 11.8166C20.535 11.8035 20.6213 11.7511 20.6213 11.6855ZM20.165 10.8986C20.165 11.0035 20.239 11.0691 20.3377 11.0691C20.4363 11.0691 20.5103 11.0035 20.5103 10.8986C20.5103 10.7937 20.4363 10.7281 20.3377 10.7281C20.239 10.7281 20.165 10.7937 20.165 10.8986Z" fill="#003852"/>
<path d="M21.4723 11.6336C21.386 11.909 21.275 12.0008 21.0653 12.0008C20.9667 12.0008 20.8927 11.9746 20.831 11.9221L20.8927 11.7254C20.9297 11.7778 20.979 11.791 21.053 11.791C21.127 11.791 21.1763 11.7647 21.201 11.6729L21.238 11.5811L21.1393 11.3188L20.8557 10.5713H21.1393L21.312 11.1615L21.3613 11.3582L21.423 11.1483L21.5957 10.5713H21.8547L21.4723 11.6336Z" fill="#003852"/>
<path d="M23.051 11.5936C22.7057 11.5936 22.496 11.3313 22.496 10.9247C22.496 10.5182 22.718 10.2559 23.051 10.2559C23.2977 10.2559 23.458 10.3608 23.532 10.5837L23.4457 10.6231C23.384 10.4395 23.2607 10.3477 23.0633 10.3477C22.7797 10.3477 22.5947 10.5706 22.5947 10.9247C22.5947 11.2788 22.7797 11.5018 23.051 11.5018C23.2483 11.5018 23.3963 11.3968 23.4457 11.2001L23.5443 11.2395C23.4703 11.4624 23.2853 11.5936 23.051 11.5936Z" fill="#003852"/>
<path d="M24.5803 11.0691C24.5803 11.3838 24.4077 11.5806 24.1363 11.5806C23.865 11.5806 23.6923 11.3838 23.6923 11.0691C23.6923 10.7543 23.865 10.5576 24.1363 10.5576C24.4077 10.5576 24.5803 10.7543 24.5803 11.0691ZM23.791 11.0691C23.791 11.3314 23.9267 11.5019 24.1363 11.5019C24.3583 11.5019 24.4817 11.3445 24.4817 11.0691C24.4817 10.7937 24.346 10.6363 24.1363 10.6363C23.9143 10.6494 23.791 10.8068 23.791 11.0691Z" fill="#003852"/>
<path d="M26.2823 10.9246V11.5673H26.1837V10.9378C26.1837 10.741 26.0727 10.6492 25.9123 10.6492C25.7273 10.6492 25.5917 10.7935 25.5917 11.0033V11.5804H25.493V10.9509C25.493 10.7542 25.382 10.6624 25.2217 10.6624C25.049 10.6624 24.901 10.7935 24.901 11.0296V11.5935H24.8023V10.5968H24.8887V10.7935C24.9503 10.6492 25.086 10.5837 25.234 10.5837C25.3943 10.5837 25.5177 10.6624 25.567 10.8197C25.6163 10.6755 25.7643 10.5837 25.9247 10.5837C26.1343 10.5574 26.2823 10.6755 26.2823 10.9246Z" fill="#003852"/>
<path d="M27.4293 11.0693C27.4293 11.3972 27.269 11.5808 27.01 11.5808C26.8497 11.5808 26.7263 11.489 26.6647 11.3447V11.9742H26.566V10.584H26.6523V10.807C26.7017 10.6627 26.8373 10.5709 26.9977 10.5709C27.269 10.5578 27.4293 10.7545 27.4293 11.0693ZM27.343 11.0693C27.343 10.807 27.2197 10.6365 26.9977 10.6365C26.8003 10.6365 26.6647 10.7939 26.6647 11.0562V11.0824C26.6647 11.3447 26.8003 11.5021 26.9977 11.5021C27.2197 11.5021 27.343 11.3447 27.343 11.0693Z" fill="#003852"/>
<path d="M28.49 11.4893V11.568C28.4653 11.5811 28.4407 11.5942 28.4037 11.5942C28.3297 11.5942 28.2557 11.5549 28.2557 11.4237C28.194 11.5287 28.046 11.5942 27.9227 11.5942C27.7377 11.5942 27.6143 11.5024 27.6143 11.3451C27.6143 11.2008 27.7253 11.0959 27.972 11.0434L28.2557 10.991V10.8992C28.2557 10.7418 28.1693 10.65 27.9967 10.65C27.8487 10.65 27.75 10.7156 27.7007 10.8598L27.6267 10.8074C27.676 10.65 27.8117 10.5713 27.9967 10.5713C28.2063 10.5713 28.342 10.6762 28.342 10.8992V11.4106C28.342 11.4762 28.3667 11.5156 28.4283 11.5156C28.453 11.5024 28.4777 11.5024 28.49 11.4893ZM28.2433 11.2533V11.0697L27.9843 11.1221C27.787 11.1615 27.7007 11.227 27.7007 11.3451C27.7007 11.45 27.787 11.5156 27.9227 11.5156C28.0707 11.5024 28.2433 11.4237 28.2433 11.2533Z" fill="#003852"/>
<path d="M29.4397 10.9252V11.5679H29.3533V10.9515C29.3533 10.7285 29.2423 10.6367 29.082 10.6367C28.9093 10.6367 28.749 10.7679 28.749 11.0039V11.5679H28.6503V10.5712H28.7367V10.7679C28.7983 10.6236 28.934 10.5449 29.082 10.5449C29.2917 10.558 29.4397 10.6892 29.4397 10.9252Z" fill="#003852"/>
<path d="M30.0317 11.7515C29.9577 11.9351 29.8837 12.0007 29.7603 12.0007C29.674 12.0007 29.6247 11.9744 29.5877 11.922L29.6247 11.8302C29.6617 11.8826 29.711 11.8957 29.7603 11.8957C29.8467 11.8957 29.896 11.8564 29.9577 11.7121L30.0193 11.5548L29.9207 11.3056L29.6247 10.558H29.7357L30.0193 11.3056L30.0687 11.4367L30.118 11.2925L30.3893 10.5449H30.488L30.0317 11.7515Z" fill="#003852"/>
<path d="M28.6627 7.86872H26.2453V5.11462C26.2453 4.86544 26.0603 4.66872 25.826 4.66872C25.5917 4.66872 25.4067 4.86544 25.4067 5.11462V7.86872H22.94V1.31134C22.94 0.563802 23.5197 -0.0394762 24.235 -0.000131943C24.901 0.0260976 25.419 0.642491 25.419 1.35069V2.36052H26.0603C27.491 2.36052 28.6503 3.59331 28.6503 5.11462V7.86872H28.6627Z" fill="#F8931C"/>
<path d="M35.0513 5.1142C35.0513 3.59289 33.892 2.3601 32.4613 2.3601H31.82V1.36338C31.82 0.655186 31.302 0.0387929 30.636 0.0125634C29.933 -0.0267809 29.341 0.576498 29.341 1.32404V7.8683H31.8077V5.1142C31.8077 4.86502 31.9927 4.6683 32.227 4.6683C32.4613 4.6683 32.6463 4.86502 32.6463 5.1142V7.8683H35.0637V5.1142H35.0513Z" fill="#F8931C"/>
<path d="M19.2893 5.11445C19.2893 4.86527 19.4743 4.66855 19.7087 4.66855H22.2493V2.36035H19.8197C18.389 2.36035 17.2297 3.59314 17.2297 5.11445C17.2297 6.63576 18.389 7.86855 19.8197 7.86855H22.2493V5.56035H19.7087C19.4743 5.56035 19.2893 5.36363 19.2893 5.11445Z" fill="#F8931C"/>
<path d="M16.687 5.11445C16.687 3.59314 15.5277 2.36035 14.097 2.36035C12.6663 2.36035 11.507 3.59314 11.507 5.11445V7.86855H13.69V5.11445C13.69 4.86527 13.875 4.66855 14.1093 4.66855C14.3437 4.66855 14.5287 4.86527 14.5287 5.11445V7.86855H16.6993V5.11445H16.687Z" fill="#F8931C"/>
<path d="M8.74433 2.36035V5.11445C8.74433 5.36363 8.55933 5.56035 8.325 5.56035C8.09067 5.56035 7.90567 5.36363 7.90567 5.11445V2.36035H5.735V5.11445C5.735 6.63576 6.89433 7.86855 8.325 7.86855C9.75567 7.86855 10.915 6.63576 10.915 5.11445V2.36035H8.74433Z" fill="#F8931C"/>
<path d="M2.59 2.36035H0V4.66855H2.59C2.82433 4.66855 3.00933 4.86527 3.00933 5.11445C3.00933 5.36363 2.82433 5.56035 2.59 5.56035H0V8.90461C0 9.61281 0.518 10.2292 1.184 10.2554C1.887 10.2948 2.479 9.6915 2.479 8.94396V7.86855H2.59C4.02067 7.86855 5.18 6.63576 5.18 5.11445C5.18 3.59314 4.02067 2.36035 2.59 2.36035Z" fill="#F8931C"/>
<path d="M36.3587 7.86882C36.0133 7.86882 35.7173 7.56718 35.7173 7.18685C35.7173 6.80652 36.001 6.50488 36.3587 6.50488C36.7163 6.50488 37 6.80652 37 7.18685C37 7.56718 36.7163 7.86882 36.3587 7.86882ZM36.3587 6.62292C36.0627 6.62292 35.8407 6.84587 35.8407 7.18685C35.8407 7.51472 36.0627 7.75078 36.3587 7.75078C36.6547 7.75078 36.8767 7.52783 36.8767 7.18685C36.8767 6.85898 36.6547 6.62292 36.3587 6.62292ZM36.519 7.58029L36.3587 7.318C36.3217 7.26554 36.3093 7.23931 36.26 7.23931V7.58029H36.1243V6.79341H36.371C36.5313 6.79341 36.6177 6.89833 36.6177 7.01636C36.6177 7.13439 36.5437 7.19996 36.4327 7.22619C36.4573 7.25242 36.482 7.27865 36.519 7.33111L36.667 7.58029H36.519ZM36.3587 6.89833H36.26V7.12128H36.334C36.408 7.12128 36.482 7.10816 36.482 7.00324C36.482 6.95078 36.445 6.89833 36.3587 6.89833Z" fill="#F8931C"/>
</g>
<defs>
<clipPath id="clip0_1176_24286">
<rect width="37" height="12" fill="white"/>
</clipPath>
</defs>
</svg>
