<svg width="50" height="50" viewBox="0 0 50 50" fill="none" xmlns="http://www.w3.org/2000/svg">
<g id="Group 34047">
<path id="Vector" d="M24.975 0C11.175 0 0 11.2 0 25C0 38.8 11.175 50 24.975 50C38.8 50 50 38.8 50 25C50 11.2 38.8 0 24.975 0ZM35 35C34.7687 35.2318 34.494 35.4156 34.1916 35.5411C33.8891 35.6665 33.5649 35.7311 33.2375 35.7311C32.9101 35.7311 32.5859 35.6665 32.2834 35.5411C31.981 35.4156 31.7063 35.2318 31.475 35L23.25 26.775C23.0138 26.5435 22.8259 26.2674 22.6971 25.9627C22.5684 25.658 22.5014 25.3308 22.5 25V15C22.5 13.625 23.625 12.5 25 12.5C26.375 12.5 27.5 13.625 27.5 15V23.975L35 31.475C35.975 32.45 35.975 34.025 35 35Z" fill="#41BA55"/>
</g>
</svg>
