<svg width="20" height="21" viewBox="0 0 20 21" fill="none" xmlns="http://www.w3.org/2000/svg">
<path d="M7.31753 8.80792C7.37565 8.86596 7.42174 8.93489 7.4532 9.01077C7.48465 9.08664 7.50084 9.16797 7.50084 9.2501C7.50084 9.33224 7.48465 9.41357 7.4532 9.48944C7.42174 9.56531 7.37565 9.63425 7.31753 9.69229L4.81753 12.1923C4.75949 12.2504 4.69056 12.2965 4.61469 12.328C4.53881 12.3594 4.45748 12.3756 4.37535 12.3756C4.29321 12.3756 4.21188 12.3594 4.13601 12.328C4.06014 12.2965 3.99121 12.2504 3.93316 12.1923L2.68316 10.9423C2.62509 10.8842 2.57903 10.8153 2.5476 10.7394C2.51618 10.6635 2.5 10.5822 2.5 10.5001C2.5 10.3343 2.56588 10.1752 2.68316 10.0579C2.80044 9.94064 2.95949 9.87476 3.12535 9.87476C3.2912 9.87476 3.45026 9.94064 3.56753 10.0579L4.37535 10.8665L6.43316 8.80792C6.4912 8.74981 6.56014 8.70371 6.63601 8.67225C6.71188 8.6408 6.79321 8.62461 6.87535 8.62461C6.95748 8.62461 7.03881 8.6408 7.11468 8.67225C7.19056 8.70371 7.25949 8.74981 7.31753 8.80792ZM6.43316 3.80792L4.37535 5.86651L3.56753 5.05792C3.45026 4.94064 3.2912 4.87476 3.12535 4.87476C2.95949 4.87476 2.80044 4.94064 2.68316 5.05792C2.56588 5.17519 2.5 5.33425 2.5 5.5001C2.5 5.66596 2.56588 5.82502 2.68316 5.94229L3.93316 7.19229C3.99121 7.2504 4.06014 7.2965 4.13601 7.32795C4.21188 7.35941 4.29321 7.3756 4.37535 7.3756C4.45748 7.3756 4.53881 7.35941 4.61469 7.32795C4.69056 7.2965 4.75949 7.2504 4.81753 7.19229L7.31753 4.69229C7.43481 4.57502 7.50069 4.41596 7.50069 4.2501C7.50069 4.08425 7.43481 3.92519 7.31753 3.80792C7.20026 3.69064 7.0412 3.62476 6.87535 3.62476C6.70949 3.62476 6.55043 3.69064 6.43316 3.80792ZM6.43316 13.8079L4.37535 15.8665L3.56753 15.0579C3.50947 14.9998 3.44053 14.9538 3.36466 14.9224C3.28879 14.8909 3.20747 14.8748 3.12535 14.8748C3.04323 14.8748 2.96191 14.8909 2.88604 14.9224C2.81017 14.9538 2.74123 14.9998 2.68316 15.0579C2.62509 15.116 2.57903 15.1849 2.5476 15.2608C2.51618 15.3367 2.5 15.418 2.5 15.5001C2.5 15.5822 2.51618 15.6635 2.5476 15.7394C2.57903 15.8153 2.62509 15.8842 2.68316 15.9423L3.93316 17.1923C3.99121 17.2504 4.06014 17.2965 4.13601 17.328C4.21188 17.3594 4.29321 17.3756 4.37535 17.3756C4.45748 17.3756 4.53881 17.3594 4.61469 17.328C4.69056 17.2965 4.75949 17.2504 4.81753 17.1923L7.31753 14.6923C7.43481 14.575 7.50069 14.416 7.50069 14.2501C7.50069 14.0843 7.43481 13.9252 7.31753 13.8079C7.20026 13.6906 7.0412 13.6248 6.87535 13.6248C6.70949 13.6248 6.55043 13.6906 6.43316 13.8079ZM16.8753 4.2501H10.0003C9.83459 4.2501 9.67562 4.31595 9.55841 4.43316C9.4412 4.55037 9.37535 4.70934 9.37535 4.8751V6.1251C9.37535 6.29086 9.4412 6.44983 9.55841 6.56704C9.67562 6.68426 9.83459 6.7501 10.0003 6.7501H16.8753C17.0411 6.7501 17.2001 6.68426 17.3173 6.56704C17.4345 6.44983 17.5003 6.29086 17.5003 6.1251V4.8751C17.5003 4.70934 17.4345 4.55037 17.3173 4.43316C17.2001 4.31595 17.0411 4.2501 16.8753 4.2501ZM16.8753 14.2501H10.0003C9.83459 14.2501 9.67562 14.316 9.55841 14.4332C9.4412 14.5504 9.37535 14.7093 9.37535 14.8751V16.1251C9.37535 16.2909 9.4412 16.4498 9.55841 16.567C9.67562 16.6843 9.83459 16.7501 10.0003 16.7501H16.8753C17.0411 16.7501 17.2001 16.6843 17.3173 16.567C17.4345 16.4498 17.5003 16.2909 17.5003 16.1251V14.8751C17.5003 14.7093 17.4345 14.5504 17.3173 14.4332C17.2001 14.316 17.0411 14.2501 16.8753 14.2501ZM16.8753 9.2501H10.0003C9.83459 9.2501 9.67562 9.31595 9.55841 9.43316C9.4412 9.55037 9.37535 9.70934 9.37535 9.8751V11.1251C9.37535 11.2909 9.4412 11.4498 9.55841 11.567C9.67562 11.6843 9.83459 11.7501 10.0003 11.7501H16.8753C17.0411 11.7501 17.2001 11.6843 17.3173 11.567C17.4345 11.4498 17.5003 11.2909 17.5003 11.1251V9.8751C17.5003 9.70934 17.4345 9.55037 17.3173 9.43316C17.2001 9.31595 17.0411 9.2501 16.8753 9.2501Z" fill="#697586"/>
</svg>
