<svg width="32" height="33" viewBox="0 0 32 33" fill="none" xmlns="http://www.w3.org/2000/svg">
<path d="M27.9996 16.5001C27.9996 16.7653 27.8942 17.0196 27.7067 17.2072C27.5192 17.3947 27.2648 17.5001 26.9996 17.5001H15.9996C15.7344 17.5001 15.48 17.3947 15.2925 17.2072C15.1049 17.0196 14.9996 16.7653 14.9996 16.5001C14.9996 16.2349 15.1049 15.9805 15.2925 15.793C15.48 15.6054 15.7344 15.5001 15.9996 15.5001H26.9996C27.2648 15.5001 27.5192 15.6054 27.7067 15.793C27.8942 15.9805 27.9996 16.2349 27.9996 16.5001ZM15.9996 9.50007H26.9996C27.2648 9.50007 27.5192 9.39471 27.7067 9.20717C27.8942 9.01964 27.9996 8.76528 27.9996 8.50007C27.9996 8.23485 27.8942 7.9805 27.7067 7.79296C27.5192 7.60542 27.2648 7.50007 26.9996 7.50007H15.9996C15.7344 7.50007 15.48 7.60542 15.2925 7.79296C15.1049 7.9805 14.9996 8.23485 14.9996 8.50007C14.9996 8.76528 15.1049 9.01964 15.2925 9.20717C15.48 9.39471 15.7344 9.50007 15.9996 9.50007ZM26.9996 23.5001H15.9996C15.7344 23.5001 15.48 23.6054 15.2925 23.793C15.1049 23.9805 14.9996 24.2349 14.9996 24.5001C14.9996 24.7653 15.1049 25.0196 15.2925 25.2072C15.48 25.3947 15.7344 25.5001 15.9996 25.5001H26.9996C27.2648 25.5001 27.5192 25.3947 27.7067 25.2072C27.8942 25.0196 27.9996 24.7653 27.9996 24.5001C27.9996 24.2349 27.8942 23.9805 27.7067 23.793C27.5192 23.6054 27.2648 23.5001 26.9996 23.5001ZM10.2921 5.79257L6.99958 9.08632L5.70708 7.79257C5.51944 7.60493 5.26494 7.49951 4.99958 7.49951C4.73422 7.49951 4.47972 7.60493 4.29208 7.79257C4.10444 7.98021 3.99902 8.2347 3.99902 8.50007C3.99902 8.76543 4.10444 9.01993 4.29208 9.20757L6.29208 11.2076C6.38495 11.3005 6.49524 11.3743 6.61664 11.4246C6.73804 11.475 6.86816 11.5009 6.99958 11.5009C7.13099 11.5009 7.26112 11.475 7.38252 11.4246C7.50392 11.3743 7.61421 11.3005 7.70708 11.2076L11.7071 7.20757C11.8947 7.01993 12.0001 6.76543 12.0001 6.50007C12.0001 6.2347 11.8947 5.98021 11.7071 5.79257C11.5194 5.60493 11.2649 5.49951 10.9996 5.49951C10.7342 5.49951 10.4797 5.60493 10.2921 5.79257ZM10.2921 13.7926L6.99958 17.0863L5.70708 15.7926C5.51944 15.6049 5.26494 15.4995 4.99958 15.4995C4.73422 15.4995 4.47972 15.6049 4.29208 15.7926C4.10444 15.9802 3.99902 16.2347 3.99902 16.5001C3.99902 16.6315 4.0249 16.7616 4.07519 16.883C4.12547 17.0044 4.19917 17.1147 4.29208 17.2076L6.29208 19.2076C6.38495 19.3005 6.49524 19.3743 6.61664 19.4246C6.73804 19.475 6.86816 19.5009 6.99958 19.5009C7.13099 19.5009 7.26112 19.475 7.38252 19.4246C7.50392 19.3743 7.61421 19.3005 7.70708 19.2076L11.7071 15.2076C11.8947 15.0199 12.0001 14.7654 12.0001 14.5001C12.0001 14.2347 11.8947 13.9802 11.7071 13.7926C11.5194 13.6049 11.2649 13.4995 10.9996 13.4995C10.7342 13.4995 10.4797 13.6049 10.2921 13.7926ZM10.2921 21.7926L6.99958 25.0863L5.70708 23.7926C5.61417 23.6997 5.50387 23.626 5.38248 23.5757C5.26108 23.5254 5.13097 23.4995 4.99958 23.4995C4.86818 23.4995 4.73808 23.5254 4.61668 23.5757C4.49529 23.626 4.38499 23.6997 4.29208 23.7926C4.19917 23.8855 4.12547 23.9958 4.07519 24.1172C4.0249 24.2386 3.99902 24.3687 3.99902 24.5001C3.99902 24.6315 4.0249 24.7616 4.07519 24.883C4.12547 25.0044 4.19917 25.1147 4.29208 25.2076L6.29208 27.2076C6.38495 27.3005 6.49524 27.3743 6.61664 27.4246C6.73804 27.475 6.86816 27.5009 6.99958 27.5009C7.13099 27.5009 7.26112 27.475 7.38252 27.4246C7.50392 27.3743 7.61421 27.3005 7.70708 27.2076L11.7071 23.2076C11.8947 23.0199 12.0001 22.7654 12.0001 22.5001C12.0001 22.2347 11.8947 21.9802 11.7071 21.7926C11.5194 21.6049 11.2649 21.4995 10.9996 21.4995C10.7342 21.4995 10.4797 21.6049 10.2921 21.7926Z" fill="#697586"/>
</svg>
