<svg width="32" height="33" viewBox="0 0 32 33" fill="none" xmlns="http://www.w3.org/2000/svg">
<path d="M21.7075 12.7925C21.8005 12.8854 21.8742 12.9957 21.9246 13.1171C21.9749 13.2385 22.0008 13.3686 22.0008 13.5C22.0008 13.6314 21.9749 13.7615 21.9246 13.8829C21.8742 14.0043 21.8005 14.1146 21.7075 14.2075L14.7075 21.2075C14.6146 21.3005 14.5043 21.3742 14.3829 21.4246C14.2615 21.4749 14.1314 21.5008 14 21.5008C13.8686 21.5008 13.7385 21.4749 13.6171 21.4246C13.4957 21.3742 13.3854 21.3005 13.2925 21.2075L10.2925 18.2075C10.1049 18.0199 9.99945 17.7654 9.99945 17.5C9.99945 17.2346 10.1049 16.9801 10.2925 16.7925C10.4801 16.6049 10.7346 16.4994 11 16.4994C11.2654 16.4994 11.5199 16.6049 11.7075 16.7925L14 19.0863L20.2925 12.7925C20.3854 12.6995 20.4957 12.6258 20.6171 12.5754C20.7385 12.5251 20.8686 12.4992 21 12.4992C21.1314 12.4992 21.2615 12.5251 21.3829 12.5754C21.5043 12.6258 21.6146 12.6995 21.7075 12.7925ZM29 16.5C29 19.0712 28.2376 21.5846 26.8091 23.7224C25.3807 25.8603 23.3503 27.5265 20.9749 28.5104C18.5995 29.4944 15.9856 29.7518 13.4638 29.2502C10.9421 28.7486 8.6257 27.5105 6.80762 25.6924C4.98953 23.8743 3.75141 21.5579 3.2498 19.0362C2.74819 16.5144 3.00563 13.9006 3.98957 11.5251C4.97351 9.14968 6.63975 7.11935 8.77759 5.6909C10.9154 4.26244 13.4288 3.5 16 3.5C19.4467 3.50364 22.7512 4.87445 25.1884 7.31163C27.6256 9.74882 28.9964 13.0533 29 16.5ZM27 16.5C27 14.3244 26.3549 12.1977 25.1462 10.3887C23.9375 8.57979 22.2195 7.16989 20.2095 6.33733C18.1995 5.50476 15.9878 5.28692 13.854 5.71136C11.7202 6.1358 9.76021 7.18345 8.22183 8.72183C6.68345 10.2602 5.63581 12.2202 5.21137 14.354C4.78693 16.4878 5.00477 18.6995 5.83733 20.7095C6.66989 22.7195 8.07979 24.4375 9.88873 25.6462C11.6977 26.8549 13.8244 27.5 16 27.5C18.9164 27.4967 21.7123 26.3367 23.7745 24.2745C25.8367 22.2123 26.9967 19.4164 27 16.5Z" fill="#0CA678"/>
</svg>
