<svg width="14" height="14" viewBox="0 0 14 14" fill="none" xmlns="http://www.w3.org/2000/svg">
<path d="M13.0813 5.32044C13.0283 5.15713 12.9284 5.01302 12.7941 4.90606C12.6598 4.79909 12.497 4.73399 12.326 4.71888L9.07812 4.43888L7.805 1.41138C7.73872 1.25252 7.62691 1.11682 7.48366 1.02138C7.34042 0.925929 7.17213 0.875 7 0.875C6.82787 0.875 6.65958 0.925929 6.51634 1.02138C6.37309 1.11682 6.26128 1.25252 6.195 1.41138L4.9257 4.43888L1.67398 4.72052C1.50229 4.73494 1.33867 4.79974 1.20365 4.90679C1.06863 5.01384 0.968223 5.15836 0.915016 5.32225C0.861809 5.48613 0.858172 5.66208 0.904562 5.82802C0.950951 5.99396 1.0453 6.14251 1.17578 6.25505L3.64273 8.41083L2.90336 11.6122C2.86426 11.7798 2.87542 11.9551 2.93543 12.1163C2.99545 12.2776 3.10165 12.4175 3.24078 12.5187C3.3799 12.6199 3.54577 12.6778 3.71764 12.6853C3.88951 12.6927 4.05977 12.6493 4.20711 12.5605L6.99617 10.8652L9.79125 12.5605C9.93859 12.6493 10.1088 12.6927 10.2807 12.6853C10.4526 12.6778 10.6185 12.6199 10.7576 12.5187C10.8967 12.4175 11.0029 12.2776 11.0629 12.1163C11.1229 11.9551 11.1341 11.7798 11.095 11.6122L10.3562 8.40755L12.8226 6.25505C12.953 6.14212 13.0472 5.99315 13.0932 5.82686C13.1393 5.66056 13.1351 5.48437 13.0813 5.32044ZM12.2489 5.59388L9.7825 7.74638C9.66246 7.85079 9.57316 7.98596 9.52421 8.13734C9.47526 8.28872 9.46851 8.45059 9.50469 8.60552L10.2457 11.8124L7.45281 10.1171C7.31655 10.0341 7.16009 9.9902 7.00055 9.9902C6.84101 9.9902 6.68454 10.0341 6.54828 10.1171L3.75922 11.8124L4.49531 8.6077C4.53149 8.45277 4.52474 8.29091 4.47579 8.13953C4.42684 7.98815 4.33754 7.85298 4.2175 7.74856L1.75 5.59716C1.7498 5.59552 1.7498 5.59387 1.75 5.59224L5.00063 5.31114C5.15933 5.29715 5.3112 5.2401 5.43986 5.14613C5.56852 5.05217 5.66908 4.92486 5.7307 4.77794L7 1.75427L8.26875 4.77794C8.33037 4.92486 8.43093 5.05217 8.55959 5.14613C8.68825 5.2401 8.84012 5.29715 8.99883 5.31114L12.25 5.59224C12.25 5.59224 12.25 5.59552 12.25 5.59606L12.2489 5.59388Z" fill="#FFDB1C"/>
</svg>
