<svg width="20" height="20" viewBox="0 0 20 20" fill="none" xmlns="http://www.w3.org/2000/svg">
<g id="SunHorizon">
<path id="Vector" d="M18.75 11.8754H15.5898C15.6129 11.6679 15.6246 11.4592 15.625 11.2504C15.625 9.75856 15.0324 8.32782 13.9775 7.27292C12.9226 6.21803 11.4918 5.6254 10 5.6254C8.50816 5.6254 7.07742 6.21803 6.02252 7.27292C4.96763 8.32782 4.375 9.75856 4.375 11.2504C4.37535 11.4592 4.38709 11.6679 4.41016 11.8754H1.25C1.08424 11.8754 0.925268 11.9412 0.808058 12.0585C0.690848 12.1757 0.625 12.3346 0.625 12.5004C0.625 12.6662 0.690848 12.8251 0.808058 12.9423C0.925268 13.0596 1.08424 13.1254 1.25 13.1254H18.75C18.9158 13.1254 19.0747 13.0596 19.1919 12.9423C19.3092 12.8251 19.375 12.6662 19.375 12.5004C19.375 12.3346 19.3092 12.1757 19.1919 12.0585C19.0747 11.9412 18.9158 11.8754 18.75 11.8754ZM5.625 11.2504C5.62385 10.6488 5.74681 10.0534 5.98618 9.50139C6.22555 8.94943 6.57619 8.45276 7.01619 8.04244C7.45619 7.63211 7.97609 7.31695 8.54341 7.11665C9.11072 6.91634 9.71325 6.8352 10.3133 6.87829C10.9134 6.92138 11.4982 7.08778 12.0311 7.36709C12.5639 7.64639 13.0335 8.0326 13.4103 8.50158C13.7872 8.97056 14.0633 9.51223 14.2213 10.0927C14.3794 10.6732 14.416 11.2801 14.3289 11.8754H5.67109C5.64084 11.6684 5.62544 11.4596 5.625 11.2504ZM16.875 15.6254C16.875 15.7912 16.8092 15.9501 16.6919 16.0673C16.5747 16.1846 16.4158 16.2504 16.25 16.2504H3.75C3.58424 16.2504 3.42527 16.1846 3.30806 16.0673C3.19085 15.9501 3.125 15.7912 3.125 15.6254C3.125 15.4596 3.19085 15.3007 3.30806 15.1835C3.42527 15.0662 3.58424 15.0004 3.75 15.0004H16.25C16.4158 15.0004 16.5747 15.0662 16.6919 15.1835C16.8092 15.3007 16.875 15.4596 16.875 15.6254ZM5.69062 3.40509C5.61645 3.25673 5.60424 3.08499 5.65669 2.92763C5.70914 2.77028 5.82196 2.6402 5.97031 2.56603C6.11867 2.49185 6.29041 2.47964 6.44777 2.53209C6.60512 2.58455 6.7352 2.69736 6.80938 2.84571L7.43438 4.09571C7.4711 4.16917 7.493 4.24914 7.49883 4.33107C7.50465 4.41299 7.49428 4.49526 7.46831 4.57317C7.44234 4.65108 7.40127 4.72312 7.34746 4.78516C7.29365 4.84721 7.22815 4.89805 7.15469 4.93478C7.08123 4.9715 7.00126 4.99341 6.91933 4.99923C6.83741 5.00505 6.75515 4.99468 6.67723 4.96871C6.59932 4.94274 6.52728 4.90167 6.46524 4.84786C6.40319 4.79405 6.35235 4.72855 6.31562 4.65509L5.69062 3.40509ZM1.31563 7.22071C1.35238 7.14729 1.40325 7.08182 1.46532 7.02806C1.52739 6.9743 1.59944 6.9333 1.67736 6.9074C1.75529 6.88149 1.83755 6.8712 1.91945 6.87711C2.00135 6.88301 2.08129 6.905 2.15469 6.94181L3.40469 7.56681C3.55294 7.64098 3.66565 7.77102 3.71803 7.9283C3.77041 8.08558 3.75816 8.25723 3.68398 8.40548C3.60981 8.55373 3.47977 8.66644 3.32249 8.71882C3.16521 8.7712 2.99356 8.75895 2.84531 8.68478L1.59531 8.05978C1.52182 8.02309 1.45628 7.97227 1.40244 7.91023C1.34859 7.84819 1.30751 7.77615 1.28154 7.69822C1.25556 7.62029 1.2452 7.53801 1.25105 7.45607C1.2569 7.37414 1.27884 7.29416 1.31563 7.22071ZM16.3156 8.40509C16.2416 8.25683 16.2295 8.08524 16.2819 7.92804C16.3344 7.77084 16.4471 7.64091 16.5953 7.56681L17.8453 6.94181C17.9187 6.90508 17.9986 6.88317 18.0805 6.87733C18.1624 6.87148 18.2446 6.88183 18.3225 6.90776C18.4004 6.9337 18.4724 6.97472 18.5344 7.02848C18.5964 7.08224 18.6473 7.1477 18.684 7.2211C18.7207 7.29451 18.7426 7.37443 18.7485 7.45631C18.7543 7.53818 18.744 7.62041 18.718 7.69828C18.6921 7.77616 18.6511 7.84817 18.5973 7.91019C18.5435 7.97222 18.4781 8.02305 18.4047 8.05978L17.1547 8.68478C17.0812 8.72156 17.0013 8.7435 16.9193 8.74935C16.8374 8.7552 16.7551 8.74484 16.6772 8.71886C16.5992 8.69289 16.5272 8.65181 16.4652 8.59797C16.4031 8.54412 16.3523 8.47858 16.3156 8.40509ZM12.5656 4.09571L13.1906 2.84571C13.2648 2.69736 13.3949 2.58455 13.5522 2.53209C13.7096 2.47964 13.8813 2.49185 14.0297 2.56603C14.178 2.6402 14.2909 2.77028 14.3433 2.92763C14.3958 3.08499 14.3836 3.25673 14.3094 3.40509L13.6844 4.65509C13.6102 4.80344 13.4801 4.91626 13.3228 4.96871C13.1654 5.02116 12.9937 5.00895 12.8453 4.93478C12.697 4.8606 12.5841 4.73052 12.5317 4.57317C12.4792 4.41581 12.4914 4.24407 12.5656 4.09571Z" fill="#202939"/>
</g>
</svg>
