<svg width="32" height="33" viewBox="0 0 32 33" fill="none" xmlns="http://www.w3.org/2000/svg">
<path d="M16 5.5C13.6266 5.5 11.3066 6.20379 9.33316 7.52236C7.35977 8.84094 5.8217 10.7151 4.91345 12.9078C4.0052 15.1005 3.76756 17.5133 4.23058 19.8411C4.6936 22.1689 5.83649 24.3071 7.51472 25.9853C9.19295 27.6635 11.3312 28.8064 13.6589 29.2694C15.9867 29.7324 18.3995 29.4948 20.5922 28.5866C22.7849 27.6783 24.6591 26.1402 25.9776 24.1668C27.2962 22.1935 28 19.8734 28 17.5C27.9964 14.3185 26.7309 11.2684 24.4813 9.01874C22.2316 6.76909 19.1815 5.50364 16 5.5ZM16 27.5C14.0222 27.5 12.0888 26.9135 10.4443 25.8147C8.79981 24.7159 7.51809 23.1541 6.76121 21.3268C6.00433 19.4996 5.8063 17.4889 6.19215 15.5491C6.578 13.6093 7.53041 11.8275 8.92894 10.4289C10.3275 9.03041 12.1093 8.078 14.0491 7.69215C15.9889 7.30629 17.9996 7.50433 19.8268 8.2612C21.6541 9.01808 23.2159 10.2998 24.3147 11.9443C25.4135 13.5888 26 15.5222 26 17.5C25.997 20.1513 24.9425 22.6931 23.0678 24.5678C21.1931 26.4425 18.6513 27.497 16 27.5ZM21.7075 11.7925C21.8005 11.8854 21.8742 11.9957 21.9246 12.1171C21.9749 12.2385 22.0008 12.3686 22.0008 12.5C22.0008 12.6314 21.9749 12.7615 21.9246 12.8829C21.8742 13.0043 21.8005 13.1146 21.7075 13.2075L16.7075 18.2075C16.6146 18.3004 16.5043 18.3741 16.3829 18.4244C16.2615 18.4747 16.1314 18.5006 16 18.5006C15.8686 18.5006 15.7385 18.4747 15.6171 18.4244C15.4957 18.3741 15.3854 18.3004 15.2925 18.2075C15.1996 18.1146 15.1259 18.0043 15.0756 17.8829C15.0253 17.7615 14.9994 17.6314 14.9994 17.5C14.9994 17.3686 15.0253 17.2385 15.0756 17.1171C15.1259 16.9957 15.1996 16.8854 15.2925 16.7925L20.2925 11.7925C20.3854 11.6995 20.4957 11.6258 20.6171 11.5754C20.7385 11.5251 20.8686 11.4992 21 11.4992C21.1314 11.4992 21.2615 11.5251 21.3829 11.5754C21.5043 11.6258 21.6146 11.6995 21.7075 11.7925ZM12 2.5C12 2.23478 12.1054 1.98043 12.2929 1.79289C12.4804 1.60536 12.7348 1.5 13 1.5H19C19.2652 1.5 19.5196 1.60536 19.7071 1.79289C19.8946 1.98043 20 2.23478 20 2.5C20 2.76522 19.8946 3.01957 19.7071 3.20711C19.5196 3.39464 19.2652 3.5 19 3.5H13C12.7348 3.5 12.4804 3.39464 12.2929 3.20711C12.1054 3.01957 12 2.76522 12 2.5Z" fill="#E19E05"/>
</svg>
