<svg width="20" height="21" viewBox="0 0 20 21" fill="none" xmlns="http://www.w3.org/2000/svg">
<path d="M10 3.625C8.51664 3.625 7.0666 4.06487 5.83323 4.88898C4.59986 5.71309 3.63856 6.88443 3.07091 8.25487C2.50325 9.62532 2.35472 11.1333 2.64411 12.5882C2.9335 14.043 3.64781 15.3794 4.6967 16.4283C5.7456 17.4772 7.08197 18.1915 8.53683 18.4809C9.99168 18.7703 11.4997 18.6218 12.8701 18.0541C14.2406 17.4864 15.4119 16.5251 16.236 15.2918C17.0601 14.0584 17.5 12.6084 17.5 11.125C17.4977 9.13657 16.7068 7.23024 15.3008 5.82421C13.8948 4.41818 11.9884 3.62727 10 3.625ZM13.5672 8.44219L10.4422 11.5672C10.3841 11.6253 10.3152 11.6713 10.2393 11.7027C10.1634 11.7342 10.0821 11.7503 10 11.7503C9.91788 11.7503 9.83656 11.7342 9.76069 11.7027C9.68482 11.6713 9.61588 11.6253 9.55782 11.5672C9.49975 11.5091 9.45368 11.4402 9.42226 11.3643C9.39083 11.2884 9.37466 11.2071 9.37466 11.125C9.37466 11.0429 9.39083 10.9616 9.42226 10.8857C9.45368 10.8098 9.49975 10.7409 9.55782 10.6828L12.6828 7.55781C12.7409 7.49974 12.8098 7.45368 12.8857 7.42225C12.9616 7.39083 13.0429 7.37465 13.125 7.37465C13.2071 7.37465 13.2884 7.39083 13.3643 7.42225C13.4402 7.45368 13.5091 7.49974 13.5672 7.55781C13.6253 7.61588 13.6713 7.68482 13.7027 7.76069C13.7342 7.83656 13.7504 7.91788 13.7504 8C13.7504 8.08212 13.7342 8.16344 13.7027 8.23931C13.6713 8.31518 13.6253 8.38412 13.5672 8.44219ZM7.5 1.75C7.5 1.58424 7.56585 1.42527 7.68306 1.30806C7.80027 1.19085 7.95924 1.125 8.125 1.125H11.875C12.0408 1.125 12.1997 1.19085 12.3169 1.30806C12.4342 1.42527 12.5 1.58424 12.5 1.75C12.5 1.91576 12.4342 2.07473 12.3169 2.19194C12.1997 2.30915 12.0408 2.375 11.875 2.375H8.125C7.95924 2.375 7.80027 2.30915 7.68306 2.19194C7.56585 2.07473 7.5 1.91576 7.5 1.75Z" fill="#E19E05"/>
</svg>
