<svg width="200" height="200" viewBox="0 0 200 200" fill="none" xmlns="http://www.w3.org/2000/svg">
<path d="M163.599 102.036C128.235 81.6358 71.0865 81.6358 35.9505 102.036C0.814532 122.436 1.01853 155.56 36.3985 175.976C71.7785 196.392 128.911 196.396 164.047 175.976C199.183 155.556 198.979 122.456 163.599 102.036Z" fill="#FAFAFA"/>
<path d="M175.92 156.86C177.056 157.516 177.06 158.58 175.92 159.236L171.28 161.912C170.646 162.236 169.944 162.404 169.232 162.404C168.52 162.404 167.818 162.236 167.184 161.912L116.324 132.54C115.188 131.888 115.18 130.824 116.324 130.168L120.96 127.492C121.595 127.169 122.297 127 123.01 127C123.722 127 124.425 127.169 125.06 127.492L175.92 156.86Z" fill="#F0F0F0"/>
<path d="M161.648 161.076C162.788 161.736 162.792 162.796 161.648 163.452L157.008 166.128C156.373 166.452 155.671 166.62 154.958 166.62C154.246 166.62 153.543 166.452 152.908 166.128L109.468 141.036C108.332 140.38 108.324 139.316 109.468 138.66L114.108 135.984C114.743 135.661 115.446 135.492 116.158 135.492C116.871 135.492 117.573 135.661 118.208 135.984L161.648 161.076Z" fill="#F0F0F0"/>
<path d="M36.0886 159.104C32.9726 157.304 27.9326 157.304 24.8326 159.104C21.7326 160.904 21.7526 163.824 24.8686 165.624C27.9846 167.424 33.0286 167.424 36.1246 165.624C39.2206 163.824 39.2006 160.904 36.0886 159.104Z" fill="#F0F0F0"/>
<path d="M51.7161 154.88C61.3441 149.32 76.9161 149.32 86.4761 154.88C96.0361 160.44 95.9921 169.456 86.3601 175.016C76.7281 180.576 61.1601 180.576 51.6001 175.016C42.0401 169.456 42.0841 160.44 51.7161 154.88Z" fill="#F0F0F0"/>
<path d="M40.2653 137.04L60.9533 125.096C61.0957 125.017 61.2144 124.901 61.2969 124.76C61.3795 124.619 61.4231 124.459 61.4231 124.296C61.4231 124.133 61.3795 123.973 61.2969 123.832C61.2144 123.692 61.0957 123.576 60.9533 123.496L42.7213 112.916C42.582 112.836 42.424 112.793 42.2633 112.793C42.1025 112.793 41.9445 112.836 41.8053 112.916L20.6613 125.124C20.5188 125.204 20.4002 125.32 20.3176 125.46C20.235 125.601 20.1914 125.761 20.1914 125.924C20.1914 126.087 20.235 126.247 20.3176 126.388C20.4002 126.529 20.5188 126.645 20.6613 126.724L38.4333 137.052C38.7129 137.211 39.0294 137.293 39.3509 137.291C39.6724 137.289 39.9877 137.202 40.2653 137.04Z" fill="#F0F0F0"/>
<path d="M104.659 97.1762C99.7794 94.3762 91.8914 94.3762 87.0594 97.1762C82.2274 99.9762 82.2354 104.564 87.1154 107.38C91.9954 110.196 99.8834 110.2 104.715 107.38C109.547 104.56 109.539 100 104.659 97.1762Z" fill="#F0F0F0"/>
<path d="M64.0539 34.7557L62.4859 33.8438L45.9219 43.3717V45.1837L64.0539 34.7557Z" fill="#F5F5F5"/>
<path d="M64.0539 34.7559L45.9219 45.1839V47.2559L64.0579 36.8359L64.0539 34.7559Z" fill="#E0E0E0"/>
<path d="M36.4485 50.6356L34.8805 49.7236L18.3125 59.2516V61.0676L36.4485 50.6356Z" fill="#F5F5F5"/>
<path d="M36.4485 50.6357L18.3125 61.0677V63.1357L36.4525 52.7157L36.4485 50.6357Z" fill="#E0E0E0"/>
<path d="M63.9664 17.3436L62.3984 16.4316L62.4904 63.3396L64.0584 64.2516L63.9664 17.3436Z" fill="#F0F0F0"/>
<path d="M64.0573 64.2518L62.4893 63.3398L44.4453 73.6998L46.0133 74.6118L64.0573 64.2518Z" fill="#F5F5F5"/>
<path d="M65.8654 65.284L44.2134 77.724L44.1094 26.672L65.7614 14.228L65.8654 65.284ZM46.0014 74.612L64.0454 64.252L63.9534 17.344L45.9214 27.7L46.0014 74.612Z" fill="#E0E0E0"/>
<path d="M65.763 14.2278L64.199 13.3198L42.543 25.7598L44.111 26.6718L65.763 14.2278Z" fill="#F5F5F5"/>
<path d="M44.111 26.6718L42.543 25.7598L42.647 76.8118L44.215 77.7238L44.111 26.6718Z" fill="#F0F0F0"/>
<path d="M36.361 33.224L34.793 32.312L34.885 79.224L36.453 80.136L36.361 33.224Z" fill="#F0F0F0"/>
<path d="M36.4518 80.1356L34.8838 79.2236L16.8398 89.5796L18.4038 90.4916L36.4518 80.1356Z" fill="#F5F5F5"/>
<path d="M38.2599 81.1639L16.6079 93.5999L16.5039 42.5479L38.1559 30.1079L38.2599 81.1639ZM18.3999 90.4919L36.4479 80.1359L36.3599 33.2239L18.3119 43.5999L18.3999 90.4919Z" fill="#E0E0E0"/>
<path d="M38.1575 30.1117L36.5895 29.1997L14.9375 41.6397L16.5055 42.5517L38.1575 30.1117Z" fill="#F5F5F5"/>
<path d="M16.5055 42.5516L14.9375 41.6396L15.0415 92.6957L16.6095 93.6036L16.5055 42.5516Z" fill="#F0F0F0"/>
<path d="M56.3477 123.588L58.1117 124.616L58.1077 122.572L56.3477 123.588Z" fill="#E6E6E6"/>
<path d="M58.0357 102.736L40.8438 112.664L58.0357 102.736Z" fill="#CFCFCF"/>
<path d="M58.1085 122.572V124.616L59.9485 123.552L59.8805 99.5522L38.9805 111.6L39.0485 135.62L40.8885 134.556V132.512L56.3485 123.6L58.1085 122.572ZM40.8445 112.664L58.0445 102.736L58.0685 110.528L40.8685 120.456L40.8445 112.664ZM40.8725 122.588L58.0725 112.66V112.684L58.0965 120.448L40.8965 130.376L40.8725 122.588Z" fill="#E6E6E6"/>
<path d="M58.0871 120.448L58.0631 112.68V112.66L40.8711 122.588L40.8911 130.376L58.0871 120.448Z" fill="#E0E0E0"/>
<path d="M58.0597 110.528L58.0357 102.736L40.8438 112.664L40.8638 120.456L58.0597 110.528Z" fill="#E0E0E0"/>
<path d="M38.9786 111.604L20.7266 100.996L20.7946 125.016L39.0466 135.624L38.9786 111.604Z" fill="#E0E0E0"/>
<path d="M38.9786 111.604L59.8826 99.5322L41.6346 88.9282L20.7266 100.996L38.9786 111.604Z" fill="#E0E0E0"/>
<path d="M56.3477 123.588L58.1117 124.616L58.1077 122.572L56.3477 123.588Z" fill="#E6E6E6"/>
<path d="M58.0357 102.736L40.8438 112.664L58.0357 102.736Z" fill="#CFCFCF"/>
<path opacity="0.8" d="M58.0871 120.448L58.0631 112.68V112.66L40.8711 122.588L40.8911 130.376L58.0871 120.448Z" fill="white"/>
<path opacity="0.8" d="M58.0597 110.528L58.0357 102.736L40.8438 112.664L40.8638 120.456L58.0597 110.528Z" fill="white"/>
<path d="M52.4288 108.872L52.4208 107.796L46.4648 111.232L46.4728 112.308L52.4288 108.872Z" fill="#E0E0E0"/>
<path d="M52.4288 118.656L52.4208 117.58L46.4648 121.016L46.4728 122.092L52.4288 118.656Z" fill="#E0E0E0"/>
<path d="M38.9786 111.604L20.7266 100.996L20.7946 125.016L39.0466 135.624L38.9786 111.604Z" fill="#EBEBEB"/>
<path d="M38.9786 111.604L59.8826 99.5322L41.6346 88.9282L20.7266 100.996L38.9786 111.604Z" fill="#F0F0F0"/>
<path opacity="0.1" d="M100.658 35.2961C100.361 34.7745 99.9212 34.3485 99.3903 34.0681C97.4383 32.9441 94.2823 32.9441 92.3423 34.0681C91.8156 34.3486 91.3809 34.7749 91.0903 35.2961C90.6023 36.2761 91.0263 37.3801 92.3663 38.1521C94.3183 39.2801 97.4743 39.2801 99.4143 38.1521C100.746 37.3801 101.158 36.2761 100.658 35.2961Z" fill="black"/>
<path d="M100.858 101.792C100.826 102.5 100.346 103.204 99.4144 103.744C97.4744 104.872 94.3184 104.872 92.3664 103.744C91.4264 103.204 90.9424 102.5 90.8984 101.792V103.364C90.8984 104.104 91.3904 104.844 92.3664 105.408C94.3184 106.532 97.4744 106.532 99.4144 105.408C100.386 104.844 100.866 104.104 100.858 103.364V101.792Z" fill="#E0E0E0"/>
<path d="M92.3645 103.744C94.3165 104.872 97.4725 104.872 99.4125 103.744C100.344 103.204 100.824 102.5 100.856 101.792C100.87 101.478 100.801 101.167 100.656 100.888C100.359 100.366 99.9194 99.9403 99.3885 99.6599C97.4365 98.5359 94.2805 98.5359 92.3405 99.6599C91.8133 99.9378 91.3783 100.363 91.0885 100.884C90.9481 101.164 90.882 101.475 90.8965 101.788C90.9405 102.5 91.4245 103.2 92.3645 103.744Z" fill="#F0F0F0"/>
<path d="M92.1168 49.8203H91.9688V62.9603H92.1168V49.8203Z" fill="#E0E0E0"/>
<path d="M92.3999 63.1042C92.3999 63.1762 92.3785 63.2466 92.3385 63.3065C92.2985 63.3663 92.2417 63.413 92.1752 63.4405C92.1087 63.4681 92.0355 63.4753 91.9649 63.4612C91.8943 63.4472 91.8294 63.4125 91.7785 63.3616C91.7276 63.3107 91.6929 63.2459 91.6789 63.1752C91.6648 63.1046 91.672 63.0314 91.6996 62.9649C91.7271 62.8984 91.7738 62.8416 91.8336 62.8016C91.8935 62.7616 91.9639 62.7402 92.0359 62.7402C92.1324 62.7402 92.225 62.7786 92.2933 62.8468C92.3615 62.9151 92.3999 63.0077 92.3999 63.1042Z" fill="#F0F0F0"/>
<path d="M96.7725 45.084H94.9805V101.272C94.987 101.351 95.0146 101.427 95.0603 101.491C95.106 101.556 95.1682 101.607 95.2405 101.64C95.4367 101.74 95.654 101.793 95.8745 101.793C96.0949 101.793 96.3122 101.74 96.5085 101.64C96.5807 101.608 96.6428 101.557 96.6879 101.492C96.7331 101.427 96.7595 101.351 96.7645 101.272L96.7725 45.084Z" fill="#E0E0E0"/>
<path d="M106.17 47.5043C105.022 43.5043 100.65 35.3003 100.65 35.3003C101.15 36.2803 100.738 37.3843 99.4061 38.1563C97.4661 39.2843 94.31 39.2843 92.358 38.1563C91.018 37.3843 90.5941 36.2803 91.0821 35.3003C91.0821 35.3003 86.71 43.5243 85.566 47.5043C84.79 49.5043 85.742 51.6643 88.422 53.2123C92.562 55.6123 99.254 55.6123 103.37 53.2123C106.038 51.6603 106.966 49.4883 106.17 47.5043Z" fill="#F0F0F0"/>
<path d="M100.658 35.2961C100.361 34.7745 99.9212 34.3485 99.3903 34.0681C97.4383 32.9441 94.2823 32.9441 92.3423 34.0681C91.8156 34.3486 91.3809 34.7749 91.0903 35.2961C90.6023 36.2761 91.0263 37.3801 92.3663 38.1521C94.3183 39.2801 97.4743 39.2801 99.4143 38.1521C100.746 37.3801 101.158 36.2761 100.658 35.2961Z" fill="#E0E0E0"/>
<path opacity="0.05" d="M36.554 96.4884C38.878 95.1484 42.626 95.1484 44.954 96.4884C47.282 97.8284 47.246 100 44.926 101.34C42.606 102.68 38.854 102.68 36.526 101.34C34.198 100 34.234 97.8284 36.554 96.4884Z" fill="black"/>
<path d="M34.5403 88.0522L40.9083 88.2402L47.2763 88.0522C47.5523 92.3562 46.7123 96.7362 45.5523 98.8762C45.279 99.427 44.8378 99.8766 44.2923 100.16C42.4123 101.244 39.3763 101.244 37.4923 100.16C36.9405 99.8714 36.4991 99.4089 36.2363 98.8442C35.0963 96.6922 34.2683 92.3322 34.5403 88.0522Z" fill="white"/>
<path d="M36.423 85.4442C33.927 86.8882 33.915 89.2202 36.395 90.6442C38.875 92.0682 42.903 92.0882 45.399 90.6442C47.895 89.2002 47.907 86.8682 45.427 85.4442C42.947 84.0202 38.919 84.0002 36.423 85.4442Z" fill="#EBEBEB"/>
<path d="M37.4099 86.0202C35.4619 87.1442 35.4499 88.9642 37.3859 90.0882C39.3219 91.2122 42.4659 91.2122 44.4099 90.0882C46.3539 88.9642 46.3699 87.1442 44.4339 86.0202C42.4979 84.8962 39.3539 84.8962 37.4099 86.0202Z" fill="#E0E0E0"/>
<g opacity="0.15">
<path d="M37.4099 86.0202C35.4619 87.1442 35.4499 88.9642 37.3859 90.0882C39.3219 91.2122 42.4659 91.2122 44.4099 90.0882C46.3539 88.9642 46.3699 87.1442 44.4339 86.0202C42.4979 84.8962 39.3539 84.8962 37.4099 86.0202Z" fill="black"/>
</g>
<path d="M41.4419 88.2322C40.9316 88.6606 40.3266 88.9614 39.6769 89.1095C39.0272 89.2577 38.3516 89.249 37.706 89.0842C37.0843 88.8948 36.5196 88.5536 36.0628 88.0912C35.6061 87.6289 35.2717 87.0601 35.09 86.4362C35.8441 86.0774 36.5345 85.5977 37.134 85.0162C36.1779 84.7788 35.1745 84.8148 34.2379 85.1202C33.9791 84.7128 33.824 84.2482 33.7863 83.767C33.7487 83.2859 33.8296 82.8028 34.022 82.3602C35.1086 81.8766 36.3309 81.7917 37.4739 82.1202C37.0011 81.7093 36.449 81.3997 35.8519 81.2105C35.2547 81.0213 34.6251 80.9566 34.0019 81.0202C33.9117 79.1948 34.1976 77.3704 34.8419 75.6602C37.2139 75.7802 39.518 76.8042 40.294 77.5402C40.3303 78.3899 40.2414 79.2403 40.0299 80.0642C40.3363 79.9069 40.5981 79.6749 40.7911 79.3896C40.9841 79.1044 41.102 78.7751 41.134 78.4322C42.618 78.8042 43.254 79.5442 43.4859 80.1122C43.2718 81.1676 42.7865 82.1491 42.078 82.9602C43.474 82.5402 44.0419 80.9842 44.0419 80.9842C45.3939 84.2362 45.1299 87.9162 41.4419 88.2322Z" fill="#B5EB2E"/>
<path opacity="0.2" d="M41.4419 88.2322C40.9316 88.6606 40.3266 88.9614 39.6769 89.1095C39.0272 89.2577 38.3516 89.249 37.706 89.0842C37.0843 88.8948 36.5196 88.5536 36.0628 88.0912C35.6061 87.6289 35.2717 87.0601 35.09 86.4362C35.8441 86.0774 36.5345 85.5977 37.134 85.0162C36.1779 84.7788 35.1745 84.8148 34.2379 85.1202C33.9791 84.7128 33.824 84.2482 33.7863 83.767C33.7487 83.2859 33.8296 82.8028 34.022 82.3602C35.1086 81.8766 36.3309 81.7917 37.4739 82.1202C37.0011 81.7093 36.449 81.3997 35.8519 81.2105C35.2547 81.0213 34.6251 80.9566 34.0019 81.0202C33.9117 79.1948 34.1976 77.3704 34.8419 75.6602C37.2139 75.7802 39.518 76.8042 40.294 77.5402C40.3303 78.3899 40.2414 79.2403 40.0299 80.0642C40.3363 79.9069 40.5981 79.6749 40.7911 79.3896C40.9841 79.1044 41.102 78.7751 41.134 78.4322C42.618 78.8042 43.254 79.5442 43.4859 80.1122C43.2718 81.1676 42.7865 82.1491 42.078 82.9602C43.474 82.5402 44.0419 80.9842 44.0419 80.9842C45.3939 84.2362 45.1299 87.9162 41.4419 88.2322Z" fill="black"/>
<path opacity="0.3" d="M41.4419 88.2322C40.9316 88.6606 40.3266 88.9614 39.6769 89.1095C39.0272 89.2577 38.3516 89.249 37.706 89.0842C37.0843 88.8948 36.5196 88.5536 36.0628 88.0912C35.6061 87.6289 35.2717 87.0601 35.09 86.4362C35.8441 86.0774 36.5345 85.5977 37.134 85.0162C36.1779 84.7788 35.1745 84.8148 34.2379 85.1202C33.9791 84.7128 33.824 84.2482 33.7863 83.767C33.7487 83.2859 33.8296 82.8028 34.022 82.3602C35.1086 81.8766 36.3309 81.7917 37.4739 82.1202C37.0011 81.7093 36.449 81.3997 35.8519 81.2105C35.2547 81.0213 34.6251 80.9566 34.0019 81.0202C33.9117 79.1948 34.1976 77.3704 34.8419 75.6602C37.2139 75.7802 39.518 76.8042 40.294 77.5402C40.3303 78.3899 40.2414 79.2403 40.0299 80.0642C40.3363 79.9069 40.5981 79.6749 40.7911 79.3896C40.9841 79.1044 41.102 78.7751 41.134 78.4322C42.618 78.8042 43.254 79.5442 43.4859 80.1122C43.2718 81.1676 42.7865 82.1491 42.078 82.9602C43.474 82.5402 44.0419 80.9842 44.0419 80.9842C45.3939 84.2362 45.1299 87.9162 41.4419 88.2322Z" fill="white"/>
<path d="M41.5271 88.5841C41.545 88.583 41.5625 88.5785 41.5786 88.5707C41.5947 88.5629 41.6091 88.552 41.621 88.5386C41.6329 88.5252 41.642 88.5097 41.6479 88.4927C41.6537 88.4758 41.6562 88.4579 41.6551 88.4401C41.4271 85.4401 39.7111 80.4921 35.6231 76.4081C35.6111 76.392 35.5957 76.3787 35.5781 76.3691C35.5605 76.3595 35.541 76.3538 35.521 76.3524C35.501 76.351 35.4809 76.3539 35.4621 76.3609C35.4433 76.3679 35.4263 76.3789 35.4121 76.3931C35.3979 76.4072 35.3869 76.4243 35.3799 76.4431C35.3729 76.4619 35.37 76.482 35.3714 76.502C35.3729 76.522 35.3786 76.5415 35.3882 76.5591C35.3978 76.5767 35.411 76.592 35.4271 76.6041C39.4671 80.6321 41.1591 85.508 41.3791 88.46C41.3831 88.4958 41.4007 88.5286 41.4283 88.5516C41.4558 88.5747 41.4912 88.5863 41.5271 88.5841Z" fill="#F5F5F5"/>
<path d="M40.4005 89.8404C40.8766 90.2286 41.4377 90.4989 42.038 90.6292C42.6384 90.7595 43.261 90.7461 43.8552 90.5901C44.4494 90.4342 44.9984 90.1401 45.4574 89.7317C45.9164 89.3234 46.2724 88.8124 46.4965 88.2404C45.8145 87.9302 45.1908 87.5054 44.6525 86.9844C45.5555 86.7686 46.4996 86.7962 47.3885 87.0644C47.6595 86.7226 47.8386 86.3171 47.9086 85.8865C47.9786 85.4559 47.9373 85.0145 47.7885 84.6044C46.7537 84.179 45.6068 84.1101 44.5285 84.4084C45.4876 83.6585 46.6958 83.301 47.9085 83.4084C48.116 81.7944 47.9602 80.1544 47.4525 78.6084C45.1885 78.7444 42.9485 79.6804 42.1725 80.3444C42.0844 81.0912 42.1154 81.8473 42.2645 82.5844C41.9901 82.4545 41.7571 82.2513 41.5912 81.9971C41.4253 81.7429 41.333 81.4478 41.3245 81.1444C39.9085 81.4884 39.2685 82.1524 39.0165 82.6524C39.1526 83.5823 39.5492 84.4546 40.1605 85.1684C38.8805 84.8044 38.4445 83.4324 38.4445 83.4324C36.9565 86.3204 36.9765 89.5644 40.4005 89.8404Z" fill="#B5EB2E"/>
<path opacity="0.3" d="M40.4005 89.8404C40.8766 90.2286 41.4377 90.4989 42.038 90.6292C42.6384 90.7595 43.261 90.7461 43.8552 90.5901C44.4494 90.4342 44.9984 90.1401 45.4574 89.7317C45.9164 89.3234 46.2724 88.8124 46.4965 88.2404C45.8145 87.9302 45.1908 87.5054 44.6525 86.9844C45.5555 86.7686 46.4996 86.7962 47.3885 87.0644C47.6595 86.7226 47.8386 86.3171 47.9086 85.8865C47.9786 85.4559 47.9373 85.0145 47.7885 84.6044C46.7537 84.179 45.6068 84.1101 44.5285 84.4084C45.4876 83.6585 46.6958 83.301 47.9085 83.4084C48.116 81.7944 47.9602 80.1544 47.4525 78.6084C45.1885 78.7444 42.9485 79.6804 42.1725 80.3444C42.0844 81.0912 42.1154 81.8473 42.2645 82.5844C41.9901 82.4545 41.7571 82.2513 41.5912 81.9971C41.4253 81.7429 41.333 81.4478 41.3245 81.1444C39.9085 81.4884 39.2685 82.1524 39.0165 82.6524C39.1526 83.5823 39.5492 84.4546 40.1605 85.1684C38.8805 84.8044 38.4445 83.4324 38.4445 83.4324C36.9565 86.3204 36.9765 89.5644 40.4005 89.8404Z" fill="white"/>
<path d="M40.3098 90.1641C40.3427 90.1644 40.3746 90.1529 40.3996 90.1315C40.4246 90.1102 40.441 90.0806 40.4458 90.0481C40.8458 87.4361 42.7338 83.1041 46.7978 79.4841C46.8226 79.4574 46.8363 79.4224 46.8363 79.3861C46.8363 79.3497 46.8226 79.3147 46.7978 79.2881C46.7717 79.2624 46.7365 79.248 46.6998 79.248C46.6632 79.248 46.628 79.2624 46.6018 79.2881C42.4858 82.9561 40.5618 87.3601 40.1658 90.0161C40.16 90.0516 40.1686 90.088 40.1896 90.1172C40.2106 90.1465 40.2423 90.1662 40.2778 90.1721L40.3098 90.1641Z" fill="white"/>
<path d="M38.0248 148.744L30.4768 148.964L22.9248 148.744C22.6008 153.844 23.5968 159.036 24.9688 161.576C25.2945 162.228 25.8182 162.76 26.4648 163.096C28.6928 164.384 32.2928 164.384 34.5048 163.096C35.1611 162.754 35.6868 162.206 36.0008 161.536C37.3648 158.984 38.3488 153.816 38.0248 148.744Z" fill="white"/>
<path d="M35.7983 145.652C38.7543 147.36 38.7703 150.128 35.8343 151.836C32.8983 153.544 28.1143 153.544 25.1543 151.836C22.1943 150.128 22.1823 147.36 25.1223 145.652C28.0623 143.944 32.8423 143.944 35.7983 145.652Z" fill="#EBEBEB"/>
<path d="M34.6286 146.332C36.9366 147.664 36.9486 149.824 34.6526 151.156C32.3566 152.488 28.6526 152.488 26.3246 151.156C23.9966 149.824 24.0046 147.664 26.2966 146.332C28.5886 145 32.3206 145 34.6286 146.332Z" fill="#E0E0E0"/>
<g opacity="0.15">
<path d="M34.6286 146.332C36.9366 147.664 36.9486 149.824 34.6526 151.156C32.3566 152.488 28.6526 152.488 26.3246 151.156C23.9966 149.824 24.0046 147.664 26.2966 146.332C28.5886 145 32.3206 145 34.6286 146.332Z" fill="black"/>
</g>
<path d="M42.8902 116.528C25.8783 122.1 25.7222 133.48 29.5582 141.6C30.5262 143.244 33.4542 144.124 36.0022 134.044L31.5302 134.6L36.7302 131.96L38.0862 127.916L33.7422 128.24L39.2542 125.92C40.2727 122.718 41.487 119.581 42.8902 116.528Z" fill="#91BC25"/>
<path opacity="0.2" d="M42.8902 116.528C25.8783 122.1 25.7222 133.48 29.5582 141.6C30.5262 143.244 33.4542 144.124 36.0022 134.044L31.5302 134.6L36.7302 131.96L38.0862 127.916L33.7422 128.24L39.2542 125.92C40.2727 122.718 41.487 119.581 42.8902 116.528Z" fill="black"/>
<path opacity="0.2" d="M42.8902 116.528C25.8783 122.1 25.7222 133.48 29.5582 141.6C30.5262 143.244 33.4542 144.124 36.0022 134.044L31.5302 134.6L36.7302 131.96L38.0862 127.916L33.7422 128.24L39.2542 125.92C40.2727 122.718 41.487 119.581 42.8902 116.528Z" fill="white"/>
<path d="M38.0799 119.376C29.1079 126.176 28.2959 133.992 30.8319 142.14C29.9359 134.964 28.9679 127.708 38.0799 119.376Z" fill="white"/>
<path d="M14.0742 128.088C30.8422 130.452 32.8742 141.024 30.6542 149.212C30.0262 150.9 27.4542 152.208 23.3982 143.244L27.6542 143.032L22.3662 141.432L20.4342 137.892L24.5302 137.472L19.0142 136.228C17.5364 133.416 15.8866 130.697 14.0742 128.088Z" fill="#91BC25"/>
<path opacity="0.2" d="M14.0742 128.088C30.8422 130.452 32.8742 141.024 30.6542 149.212C30.0262 150.9 27.4542 152.208 23.3982 143.244L27.6542 143.032L22.3662 141.432L20.4342 137.892L24.5302 137.472L19.0142 136.228C17.5364 133.416 15.8866 130.697 14.0742 128.088Z" fill="white"/>
<path d="M19.0273 129.94C28.5153 134.792 30.5673 141.94 29.5593 149.94C29.1993 143.108 28.8993 136.188 19.0273 129.94Z" fill="white"/>
<path opacity="0.1" d="M14.0742 128.088C30.8422 130.452 32.8742 141.024 30.6542 149.212C30.0262 150.9 27.4542 152.208 23.3982 143.244L27.6542 143.032L22.3662 141.432L20.4342 137.892L24.5302 137.472L19.0142 136.228C17.5364 133.416 15.8866 130.697 14.0742 128.088Z" fill="black"/>
<path d="M47.7983 132.052C32.4183 132.304 29.3983 141.608 30.4903 149.252C30.8663 150.852 33.0463 152.308 37.6903 144.684L33.8863 144L38.8303 143.156L40.9663 140.184L37.3223 139.344L42.4343 138.84C44.0817 136.469 45.8731 134.202 47.7983 132.052Z" fill="#91BC25"/>
<path d="M43.1266 133.168C34.0306 136.476 31.3865 142.68 31.3945 150C32.4825 143.896 33.5306 137.692 43.1266 133.168Z" fill="white"/>
<path opacity="0.2" d="M47.7983 132.052C32.4183 132.304 29.3983 141.608 30.4903 149.252C30.8663 150.852 33.0463 152.308 37.6903 144.684L33.8863 144L38.8303 143.156L40.9663 140.184L37.3223 139.344L42.4343 138.84C44.0817 136.469 45.8731 134.202 47.7983 132.052Z" fill="white"/>
<path d="M176.696 41.9999C176.285 41.1593 175.629 40.4623 174.816 39.9999L125.916 12.1799C125.687 12.0926 125.445 12.0452 125.2 12.0399C122.68 11.9879 120.152 14.3599 119.796 15.6039C119.715 15.7611 119.673 15.9352 119.672 16.1119V121.848C119.672 122.673 119.89 123.484 120.304 124.198C120.719 124.912 121.315 125.503 122.032 125.912L170.936 153.78C170.997 153.809 171.06 153.835 171.124 153.856C174.04 155.092 177.148 152.52 177.148 149.828V44.0639C177.157 43.3504 177.002 42.6444 176.696 41.9999Z" fill="#37474F"/>
<path d="M119.812 15.6001C120.168 14.3561 122.696 12.0001 125.216 12.0361C125.456 12.0428 125.694 12.0901 125.92 12.1761L174.8 40C175.519 40.4094 176.119 40.9998 176.54 41.7127C176.961 42.4256 177.189 43.2362 177.2 44.0641V149.84C177.2 152.532 174.092 155.104 171.176 153.868C171.111 153.847 171.048 153.821 170.988 153.792L122.048 125.912C121.33 125.503 120.734 124.912 120.32 124.198C119.905 123.484 119.687 122.673 119.688 121.848V16.1161C119.687 15.9366 119.729 15.7596 119.812 15.6001Z" fill="#455A64"/>
<path d="M170.359 55.2443C170.363 54.8316 170.258 54.4253 170.054 54.0664C169.85 53.7075 169.556 53.4087 169.199 53.2003L123.775 27.3803C123.597 27.2784 123.396 27.2252 123.19 27.2261C122.985 27.227 122.784 27.2819 122.607 27.3853C122.429 27.4887 122.283 27.6369 122.181 27.8151C122.079 27.9933 122.026 28.1951 122.027 28.4003V113.688C122.026 114.1 122.134 114.505 122.34 114.862C122.546 115.219 122.842 115.515 123.199 115.72L168.611 141.6C168.789 141.702 168.991 141.755 169.195 141.754C169.4 141.754 169.601 141.699 169.778 141.596C169.955 141.493 170.102 141.346 170.204 141.168C170.306 140.99 170.36 140.789 170.359 140.584V55.2443Z" fill="#BADBF7"/>
<path opacity="0.2" d="M170.359 55.2443C170.363 54.8316 170.258 54.4253 170.054 54.0664C169.85 53.7075 169.556 53.4087 169.199 53.2003L123.775 27.3803C123.597 27.2784 123.396 27.2252 123.19 27.2261C122.985 27.227 122.784 27.2819 122.607 27.3853C122.429 27.4887 122.283 27.6369 122.181 27.8151C122.079 27.9933 122.026 28.1951 122.027 28.4003V113.688C122.026 114.1 122.134 114.505 122.34 114.862C122.546 115.219 122.842 115.515 123.199 115.72L168.611 141.6C168.789 141.702 168.991 141.755 169.195 141.754C169.4 141.754 169.601 141.699 169.778 141.596C169.955 141.493 170.102 141.346 170.204 141.168C170.306 140.99 170.36 140.789 170.359 140.584V55.2443Z" fill="black"/>
<path opacity="0.3" d="M177.2 44.0639V149.84C177.2 152.532 174.092 155.104 171.176 153.868C171.351 153.931 171.54 153.952 171.725 153.927C171.91 153.903 172.086 153.834 172.239 153.727C172.392 153.62 172.517 153.478 172.604 153.312C172.69 153.147 172.735 152.963 172.736 152.776V46.9879C172.731 46.0664 172.452 45.1671 171.936 44.4039L176.736 42.0039C177.045 42.6463 177.204 43.3509 177.2 44.0639Z" fill="black"/>
<path opacity="0.1" d="M125.201 12.0401C125.441 12.0468 125.679 12.0941 125.905 12.1801L174.8 40C175.614 40.4625 176.269 41.1595 176.681 42L171.881 44.4001C171.481 43.7893 170.942 43.2821 170.308 42.9201L121.436 15.1001C121.298 15.0216 121.145 14.9722 120.987 14.9549C120.829 14.9377 120.669 14.9529 120.517 14.9998C120.365 15.0466 120.224 15.124 120.103 15.2272C119.982 15.3304 119.883 15.4573 119.812 15.6001C120.164 14.3601 122.693 12.0001 125.201 12.0401Z" fill="white"/>
<path d="M140.167 32.568C139.823 32.368 139.539 32.524 139.535 32.92C139.548 33.1366 139.612 33.3471 139.721 33.5346C139.83 33.7222 139.981 33.8816 140.163 34L149.763 39.54C150.107 39.74 150.383 39.572 150.387 39.176C150.375 38.9617 150.313 38.7532 150.205 38.5676C150.098 38.3819 149.947 38.2245 149.767 38.108L140.167 32.568Z" fill="#263238"/>
<path d="M152.225 39.5283C151.881 39.3323 151.605 39.4883 151.605 39.8843C151.615 40.1002 151.676 40.3108 151.783 40.4986C151.89 40.6863 152.041 40.846 152.221 40.9643C152.565 41.1603 152.849 41.0003 152.849 40.6043C152.838 40.3884 152.775 40.1783 152.667 39.9913C152.558 39.8042 152.407 39.6456 152.225 39.5283Z" fill="#263238"/>
<path d="M146.084 31.7641C145.396 31.3641 144.844 31.6801 144.84 32.4721C144.862 32.9027 144.985 33.3221 145.2 33.696C145.415 34.07 145.715 34.3879 146.076 34.6241C146.76 35.0241 147.332 34.6961 147.332 33.9081C147.307 33.4777 147.181 33.0593 146.964 32.6867C146.748 32.3142 146.446 31.9981 146.084 31.7641Z" fill="#263238"/>
<path d="M146.079 131.34C144.683 130.54 143.555 131.176 143.551 132.78C143.592 133.66 143.841 134.517 144.278 135.282C144.714 136.047 145.326 136.698 146.063 137.18C147.459 137.98 148.619 137.324 148.623 135.72C148.573 134.842 148.316 133.987 147.874 133.226C147.432 132.465 146.817 131.819 146.079 131.34Z" fill="#263238"/>
<path d="M162.686 58.1603C162.63 58.0123 162.566 57.8643 162.498 57.7203C162.219 57.1513 161.819 56.6502 161.326 56.2523C161.156 56.1196 160.977 55.9993 160.79 55.8923L116.402 30.6403C116.329 30.6075 116.252 30.5833 116.174 30.5683C116.042 30.5407 115.908 30.5234 115.774 30.5163C114.346 30.4883 112.914 31.3163 111.962 32.2163C111.481 32.634 111.106 33.1606 110.87 33.7523C110.837 33.8234 110.81 33.8969 110.79 33.9723C110.769 34.052 110.758 34.134 110.758 34.2163V130.188C110.758 130.937 110.956 131.673 111.334 132.32C111.427 132.48 111.53 132.634 111.642 132.78C111.986 133.225 112.414 133.597 112.902 133.876L157.302 159.168C157.356 159.196 157.412 159.22 157.47 159.24C157.47 159.24 157.47 159.24 157.49 159.24C160.138 160.36 162.958 158.04 162.958 155.58V59.6003C162.951 59.1082 162.859 58.6209 162.686 58.1603Z" fill="#3498DB"/>
<path d="M110.862 33.7519C111.186 32.6199 113.482 30.4679 115.766 30.5159C115.986 30.5202 116.204 30.5621 116.41 30.6399L160.81 55.8919C161.458 56.2669 161.998 56.8048 162.375 57.4524C162.751 58.0999 162.952 58.8347 162.958 59.5839V155.6C162.958 158.048 160.158 160.38 157.49 159.26C157.49 159.26 157.49 159.26 157.47 159.26C157.412 159.239 157.356 159.215 157.302 159.188L112.902 133.896C112.251 133.525 111.71 132.988 111.334 132.34C110.957 131.693 110.759 130.957 110.758 130.208V34.2159C110.756 34.0553 110.792 33.8965 110.862 33.7519Z" fill="#3498DB"/>
<path opacity="0.2" d="M162.937 59.6V155.6C162.937 158.048 160.137 160.38 157.469 159.26C157.469 159.26 157.469 159.26 157.449 159.26C157.609 159.318 157.78 159.336 157.948 159.314C158.117 159.292 158.277 159.229 158.416 159.132C158.555 159.035 158.669 158.905 158.748 158.755C158.827 158.605 158.868 158.438 158.869 158.268V62.268C158.866 61.4327 158.615 60.6171 158.149 59.9239L162.497 57.752C162.782 58.3267 162.932 58.9586 162.937 59.6Z" fill="white"/>
<path opacity="0.4" d="M115.763 30.5159C115.983 30.5202 116.201 30.5621 116.407 30.6399L160.807 55.8919C161.547 56.316 162.142 56.953 162.515 57.7199L158.167 59.8919C157.804 59.3371 157.315 58.8765 156.739 58.5479L112.339 33.2919C112.213 33.2211 112.074 33.1768 111.93 33.1617C111.786 33.1467 111.64 33.1611 111.502 33.2041C111.364 33.2472 111.236 33.318 111.126 33.4122C111.016 33.5064 110.927 33.622 110.863 33.7519C111.203 32.6199 113.479 30.4679 115.763 30.5159Z" fill="white"/>
<path opacity="0.3" d="M110.862 33.7519C111.186 32.6199 113.482 30.4679 115.766 30.5159C115.986 30.5202 116.204 30.5621 116.41 30.6399L160.81 55.8919C161.458 56.2669 161.998 56.8048 162.375 57.4524C162.751 58.0999 162.952 58.8347 162.958 59.5839V155.6C162.958 158.048 160.158 160.38 157.49 159.26C157.49 159.26 157.49 159.26 157.47 159.26C157.412 159.239 157.356 159.215 157.302 159.188L112.902 133.896C112.251 133.525 111.71 132.988 111.334 132.34C110.957 131.693 110.759 130.957 110.758 130.208V34.2159C110.756 34.0553 110.792 33.8965 110.862 33.7519Z" fill="white"/>
<path d="M154.312 79.6437L114.752 56.7997C114.372 56.5797 114.064 56.7557 114.064 57.1997L114 101.788C114.012 102.028 114.08 102.262 114.2 102.47C114.319 102.679 114.487 102.856 114.688 102.988L154.244 125.828C154.624 126.044 154.932 125.872 154.936 125.428L154.992 80.8357C154.981 80.5974 154.914 80.3651 154.795 80.1579C154.677 79.9506 154.512 79.7744 154.312 79.6437Z" fill="#3498DB"/>
<path d="M116.566 41.9839L117.038 42.2559L117.042 40.2359L116.574 39.9639L116.566 41.9839Z" fill="white"/>
<path d="M115.758 41.5158L116.226 41.7878L116.234 40.1518L115.762 39.8838L115.758 41.5158Z" fill="white"/>
<path d="M114.949 41.0479L115.417 41.3199L115.421 40.1079L114.953 39.8359L114.949 41.0479Z" fill="white"/>
<path d="M114.141 40.5842L114.609 40.8522L114.613 40.0362L114.141 39.7642V40.5842Z" fill="white"/>
<path d="M118.316 42.9919L121.192 44.6559L121.196 42.9599L118.32 41.2959L118.316 42.9919Z" fill="white"/>
<path d="M122.625 45.4801L124.065 46.3121L124.069 44.6161L122.629 43.7881L122.625 45.4801Z" fill="white"/>
<path d="M152.328 62.4198L152.332 61.0518L153.876 61.9438L152.332 61.0518L152.328 62.4198Z" fill="white"/>
<path d="M152.328 62.4198L153.876 63.3118V61.9438L152.332 61.0518L152.328 62.4198Z" fill="#3498DB"/>
<path d="M154.967 62.8001V62.2641L152.051 60.5801V62.5801L154.967 64.2641V63.7321L155.339 63.9481V62.9961L154.967 62.8001ZM153.879 63.3321L152.331 62.4401V61.0721L153.879 61.9641V63.3321Z" fill="white"/>
<path d="M147.871 60.0241L150.747 61.6841L150.755 59.9881L147.875 58.3281L147.871 60.0241Z" fill="white"/>
<path d="M134.133 51.9919L137.009 53.6559L137.017 51.9599L134.137 50.2959L134.133 51.9919Z" fill="white"/>
<path d="M127.402 124.096L127.398 125.788L134.774 130.048L134.782 128.356L127.402 124.096Z" fill="#3498DB"/>
<path d="M138.162 124.78L130.571 120.392L130.562 122.084L138.159 126.468L138.162 124.78Z" fill="#3498DB"/>
<path d="M114.699 115.56L124.023 120.98L124.027 119.292L114.703 113.872L114.699 115.56Z" fill="#3498DB"/>
<path d="M128.527 119.216L114.711 111.2L114.707 112.888L128.523 120.904L128.527 119.216Z" fill="#3498DB"/>
<path d="M126.059 122.156L142.883 131.868L142.887 130.18L126.067 120.468L126.059 122.156Z" fill="#3498DB"/>
<path d="M125.611 123.064L114.711 116.772L114.707 118.46L125.607 124.752L125.611 123.064Z" fill="#3498DB"/>
<path d="M140.117 127.6L153.561 135.364L153.569 133.672L140.121 125.908L140.117 127.6Z" fill="#3498DB"/>
<path d="M144.844 133L153.56 138.032L153.564 136.344L144.852 131.312L144.844 133Z" fill="#3498DB"/>
<path d="M114.707 124.268L131.531 133.98L131.535 132.292L114.711 122.576L114.707 124.268Z" fill="#3498DB"/>
<path d="M114.711 126.568L114.707 128.26L125.611 134.552V132.86L114.711 126.568Z" fill="#3498DB"/>
<path d="M134.027 137.716L127.379 133.88V135.572L134.023 139.408L134.027 137.716Z" fill="#3498DB"/>
<path d="M115.715 105.872C115.613 105.797 115.493 105.751 115.367 105.738C115.241 105.725 115.114 105.747 114.999 105.8C114.599 106.024 114.599 106.756 114.999 107.436L115.227 107.836L116.651 110.3L118.083 109.5L118.315 109.368C118.715 109.144 118.715 108.408 118.315 107.728C118.147 107.415 117.902 107.151 117.603 106.96C117.5 106.887 117.38 106.842 117.255 106.829C117.129 106.816 117.003 106.837 116.887 106.888L116.655 107.02L116.427 106.62C116.258 106.314 116.013 106.056 115.715 105.872Z" fill="white"/>
<path d="M121.651 109.38C122.162 109.712 122.588 110.161 122.893 110.689C123.198 111.218 123.374 111.811 123.407 112.42C123.418 112.728 123.334 113.033 123.167 113.292L123.399 114.44L122.519 113.664C122.208 113.675 121.902 113.592 121.639 113.428C121.128 113.095 120.703 112.646 120.399 112.118C120.094 111.589 119.919 110.997 119.887 110.388C119.891 109.268 120.679 108.82 121.651 109.38Z" fill="white"/>
<path d="M136.72 73.4998L138.764 77.2358L141.736 78.2718L142.992 82.1598L145.996 84.3038L146.344 87.9598L149.088 91.0038L148.484 94.0718L150.7 97.7118L149.212 99.8918L150.684 103.78L148.456 104.856L149.036 108.608L146.284 108.476L145.92 111.724L142.912 110.396L141.64 112.824L138.672 110.428L136.612 111.8L133.976 108.576L131.332 108.752L129.284 105.012L126.316 103.98L125.06 100.088L122.056 97.9478L121.712 94.2878L118.968 91.2478L119.568 88.1758L117.352 84.5358L118.84 82.3558L117.368 78.4678L119.6 77.3918L119.016 73.6398L121.768 73.7758L122.132 70.5278L125.14 71.8518L126.416 69.4238L129.38 71.8198L131.44 70.4518L134.076 73.6758L136.72 73.4998Z" fill="#3498DB"/>
<g opacity="0.4">
<path d="M136.72 73.4998L138.764 77.2358L141.736 78.2718L142.992 82.1598L145.996 84.3038L146.344 87.9598L149.088 91.0038L148.484 94.0718L150.7 97.7118L149.212 99.8918L150.684 103.78L148.456 104.856L149.036 108.608L146.284 108.476L145.92 111.724L142.912 110.396L141.64 112.824L138.672 110.428L136.612 111.8L133.976 108.576L131.332 108.752L129.284 105.012L126.316 103.98L125.06 100.088L122.056 97.9478L121.712 94.2878L118.968 91.2478L119.568 88.1758L117.352 84.5358L118.84 82.3558L117.368 78.4678L119.6 77.3918L119.016 73.6398L121.768 73.7758L122.132 70.5278L125.14 71.8518L126.416 69.4238L129.38 71.8198L131.44 70.4518L134.076 73.6758L136.72 73.4998Z" fill="white"/>
</g>
<path d="M134.064 76.5238C141.08 80.5758 146.748 90.3958 146.724 98.4598C146.7 106.524 140.996 109.772 134 105.724C127.004 101.676 121.316 91.8518 121.336 83.7878C121.356 75.7238 127.044 72.4758 134.064 76.5238Z" fill="#3498DB"/>
<g opacity="0.2">
<path d="M134.064 76.5238C141.08 80.5758 146.748 90.3958 146.724 98.4598C146.7 106.524 140.996 109.772 134 105.724C127.004 101.676 121.316 91.8518 121.336 83.7878C121.356 75.7238 127.044 72.4758 134.064 76.5238Z" fill="white"/>
</g>
<path d="M142.706 89.2001C143.014 89.3761 143.198 89.9561 142.922 90.0561C140.398 90.9761 135.05 93.1801 131.786 96.3481C131.671 96.4363 131.531 96.4841 131.386 96.4841C131.241 96.4841 131.101 96.4363 130.986 96.3481C130.638 96.1365 130.36 95.8278 130.186 95.4601C128.687 92.4432 127.008 89.5192 125.158 86.7041C124.822 86.1921 125.038 85.7081 125.438 85.9401C125.471 85.9582 125.502 85.9797 125.53 86.0041C127.546 87.6995 129.312 89.6725 130.774 91.8641C135.718 88.6881 140.206 88.7721 142.574 89.1521C142.62 89.1602 142.665 89.1764 142.706 89.2001Z" fill="white"/>
<path d="M117.385 50.4719C118.129 50.9561 118.748 51.6092 119.191 52.378C119.635 53.1468 119.89 54.0096 119.937 54.8959C119.937 56.5199 118.781 57.1759 117.369 56.3599C116.622 55.8776 116 55.2252 115.554 54.4563C115.107 53.6874 114.849 52.8237 114.801 51.9359C114.821 50.3119 115.969 49.6559 117.385 50.4719Z" fill="white"/>
<path d="M136.09 63.1679L122.274 55.1519L122.27 56.8439L136.086 64.8599L136.09 63.1679Z" fill="white"/>
<path d="M74.4414 66.02H74.8414C77.4414 66.052 80.7254 67.82 82.3334 72.356L88.5774 84.444L81.4374 87.6L77.5374 76.188L74.4414 66.02Z" fill="#F9D9BA"/>
<path d="M79.4451 74.048C79.9411 75.476 79.9731 77.016 80.0531 78.524C80.1331 80.032 80.3051 81.86 80.9971 83.204C81.7588 82.6769 82.6706 82.4104 83.5963 82.4443C84.522 82.4782 85.4119 82.8106 86.1331 83.392C86.6509 83.8257 87.0489 84.3848 87.2891 85.016L81.4371 87.6L77.5371 76.188L75.6211 69.896C76.5028 70.2986 77.2952 70.8733 77.9519 71.5863C78.6085 72.2993 79.1162 73.1362 79.4451 74.048Z" fill="#FCBAB1"/>
<path d="M81.3725 85.4284C81.6432 84.7551 82.0815 84.1621 82.6457 83.7057C83.21 83.2493 83.8814 82.9445 84.5965 82.8204C86.0205 82.5924 87.6405 83.3364 88.5645 84.4484C89.3405 85.3884 89.2205 86.6604 88.7285 87.7764C88.3185 88.644 87.6205 89.3425 86.7533 89.7532C85.8861 90.1638 84.9034 90.2611 83.9725 90.0284C82.1325 89.5164 80.6765 87.2004 81.3725 85.4284Z" fill="#F9D9BA"/>
<path d="M58.6804 163.376C58.5215 163.696 58.2742 163.963 57.968 164.147C57.6617 164.331 57.3093 164.423 56.9523 164.412C56.6355 164.352 56.3401 164.209 56.0958 163.998C55.8515 163.788 55.6668 163.517 55.5603 163.212C55.3496 162.607 55.2532 161.968 55.2763 161.328C55.2337 159.195 55.2843 157.069 55.4283 154.952C56.8922 155.261 58.3843 155.416 59.8804 155.416L59.1963 161.316C59.1601 162.03 58.9848 162.73 58.6804 163.376Z" fill="#F9D9BA"/>
<path d="M54.0343 160.316C54.5863 158.544 55.1903 156.716 55.0623 154.88L55.4303 154.968C55.2863 157.088 55.2356 159.214 55.2783 161.344C55.2552 161.985 55.3515 162.623 55.5623 163.228C55.6688 163.533 55.8534 163.804 56.0978 164.015C56.3421 164.225 56.6375 164.368 56.9543 164.428C57.3112 164.439 57.6637 164.347 57.9699 164.163C58.2762 163.98 58.5234 163.712 58.6823 163.392C58.9868 162.746 59.1621 162.046 59.1983 161.332L59.8823 155.448H60.3543C59.9543 157.648 60.2383 159.908 60.3783 162.144C60.5183 164.38 60.4943 166.708 59.5343 168.728C59.3124 169.274 58.9338 169.742 58.4463 170.072C58.1779 170.218 57.8827 170.307 57.5788 170.334C57.2748 170.362 56.9684 170.327 56.6783 170.232C56.0996 170.038 55.5739 169.712 55.1423 169.28C54.1637 168.343 53.5118 167.116 53.2823 165.78C52.9703 163.944 53.4823 162.084 54.0343 160.316Z" fill="#455A64"/>
<path d="M77.2291 158.62L76.8651 160.812C75.1251 159.98 74.5651 159.048 74.5651 159.048C74.5211 157.368 74.5411 155.636 74.5651 154.792C75.0291 155.816 76.0411 156.508 76.6731 157.452C76.9058 157.817 77.0925 158.209 77.2291 158.62Z" fill="#455A64"/>
<path d="M77.7912 160.572L76.8672 160.812L77.2312 158.62C77.4592 159.248 77.5992 159.92 77.7912 160.572Z" fill="#455A64"/>
<path opacity="0.2" d="M77.2291 158.62L76.8651 160.812C75.1251 159.98 74.5651 159.048 74.5651 159.048C74.5211 157.368 74.5411 155.636 74.5651 154.792C75.0291 155.816 76.0411 156.508 76.6731 157.452C76.9058 157.817 77.0925 158.209 77.2291 158.62Z" fill="black"/>
<path opacity="0.3" d="M77.7912 160.572L76.8672 160.812L77.2312 158.62C77.4592 159.248 77.5992 159.92 77.7912 160.572Z" fill="black"/>
<path d="M74.4705 152.36C74.6546 151.78 74.8958 151.22 75.1905 150.688C75.2158 151.589 75.4929 152.465 75.9905 153.216C76.6145 154.224 77.4505 155.092 78.0545 156.12C78.7865 157.368 79.1665 158.836 80.1265 159.916C80.6001 160.439 81.1889 160.845 81.8464 161.101C82.5038 161.357 83.2119 161.457 83.9145 161.392C84.4419 161.373 84.9411 161.149 85.3065 160.768C85.4527 160.579 85.5328 160.347 85.5345 160.108C86.0079 160.616 86.5319 161.074 87.0985 161.476C87.7305 161.916 88.4905 162.38 88.5945 163.144C88.611 163.464 88.5339 163.781 88.3726 164.057C88.2113 164.334 87.9729 164.557 87.6865 164.7C87.1064 164.969 86.4738 165.106 85.8345 165.1C84.4659 165.219 83.087 165.102 81.7585 164.752C80.424 164.388 79.2687 163.549 78.5105 162.392C78.1851 161.816 77.9401 161.198 77.7825 160.556C77.6025 159.904 77.4505 159.232 77.2225 158.604C77.0821 158.193 76.8913 157.8 76.6545 157.436C76.0225 156.492 75.0105 155.8 74.5465 154.776C74.5225 154.72 74.4945 154.668 74.4705 154.612C74.2338 153.88 74.2338 153.092 74.4705 152.36Z" fill="#455A64"/>
<path d="M83.9232 161.392C83.2206 161.457 82.5126 161.357 81.8551 161.101C81.1977 160.845 80.6088 160.439 80.1352 159.916C79.1752 158.836 78.7952 157.368 78.0632 156.12C77.4592 155.092 76.6232 154.224 75.9992 153.216C75.5017 152.465 75.2245 151.589 75.1992 150.688L75.4272 150.264C77.3192 150.6 79.3912 150.72 81.2112 151.336C81.7723 153.249 82.4866 155.114 83.3472 156.912C83.9305 158.076 84.6722 159.152 85.5512 160.112C85.5495 160.351 85.4694 160.583 85.3232 160.772C84.9552 161.153 84.4529 161.376 83.9232 161.392Z" fill="#F9D9BA"/>
<path d="M78.7968 82.4403C78.9008 84.0403 79.0035 85.6403 79.1048 87.2403C82.7248 102.164 81.6448 124.46 81.6448 124.46L81.5328 151.66C81.0199 151.997 80.4452 152.228 79.8421 152.34C79.239 152.452 78.6196 152.442 78.0202 152.312C77.4207 152.182 76.8531 151.934 76.3505 151.583C75.8479 151.231 75.4204 150.783 75.0928 150.264C74.4768 143.58 71.3688 133.064 72.2928 124.868C71.0408 118.4 70.1088 109.2 70.1088 109.2L67.0648 125.112L60.7248 155.82C57.9248 157.02 55.4408 156.196 54.6328 155.108C55.2808 138.168 55.0048 130.024 57.6168 122.192C56.8168 101.18 56.5608 91.6843 61.6808 84.4643L61.6168 81.7363L78.7968 82.4403Z" fill="#3498DB"/>
<path opacity="0.3" d="M78.7968 82.4403C78.9008 84.0403 79.0035 85.6403 79.1048 87.2403C82.7248 102.164 81.6448 124.46 81.6448 124.46L81.5328 151.66C81.0199 151.997 80.4452 152.228 79.8421 152.34C79.239 152.452 78.6196 152.442 78.0202 152.312C77.4207 152.182 76.8531 151.934 76.3505 151.583C75.8479 151.231 75.4204 150.783 75.0928 150.264C74.4768 143.58 71.3688 133.064 72.2928 124.868C71.0408 118.4 70.1088 109.2 70.1088 109.2L67.0648 125.112L60.7248 155.82C57.9248 157.02 55.4408 156.196 54.6328 155.108C55.2808 138.168 55.0048 130.024 57.6168 122.192C56.8168 101.18 56.5608 91.6843 61.6808 84.4643L61.6168 81.7363L78.7968 82.4403Z" fill="black"/>
<path opacity="0.2" d="M70.7971 105.652C72.6927 105.309 74.4769 104.511 75.9971 103.328C75.7059 104.17 75.2043 104.923 74.5398 105.516C73.8754 106.109 73.0703 106.522 72.2011 106.716L70.6011 113.348L70.1211 109.244L70.7971 105.652Z" fill="black"/>
<path d="M72.4775 65.7402L74.3135 65.8762C74.6664 65.9024 75.0088 66.0081 75.315 66.1855C75.6212 66.3628 75.8832 66.6072 76.0815 66.9002L80.3215 73.1802C80.9454 74.0987 81.2514 75.196 81.1929 76.3048C81.1344 77.4135 80.7146 78.4726 79.9975 79.3202C79.7293 79.6361 79.5303 80.0047 79.4132 80.4022C79.296 80.7997 79.2635 81.2174 79.3175 81.6282L80.7655 95.9602C72.4295 102.148 61.0615 98.4362 57.2695 96.4162C57.4135 93.3082 58.7295 89.2562 60.3055 86.4882C60.8104 85.6082 61.1351 84.6365 61.2608 83.6298C61.3865 82.623 61.3106 81.6014 61.0375 80.6242L59.8375 76.3162L61.5735 66.0602L72.4775 65.7402Z" fill="#455A64"/>
<path d="M79.4172 51.2002C79.5612 51.9722 80.1692 54.2962 79.5612 55.6002C79.2692 56.2202 78.9412 56.5962 79.1612 57.2482C79.3812 57.9002 80.2972 58.2762 80.4212 58.9962C80.5252 59.5762 80.0692 60.0802 79.7892 60.5962C79.5924 60.9637 79.4794 61.3702 79.4581 61.7865C79.4368 62.2029 79.5078 62.6188 79.6661 63.0045C79.8243 63.3901 80.0659 63.7361 80.3734 64.0175C80.681 64.2989 81.047 64.5088 81.4452 64.6322C80.9111 64.5983 80.391 64.4475 79.9217 64.1903C79.4523 63.9332 79.0452 63.5761 78.7292 63.1442C78.446 62.7109 78.2656 62.2185 78.2019 61.7048C78.1381 61.1911 78.1926 60.6696 78.3612 60.1802C78.4853 59.9028 78.5753 59.6113 78.6292 59.3122C78.6772 58.7202 78.2812 58.1962 77.9692 57.6882C77.2668 56.5875 76.971 55.2759 77.1332 53.9802C77.3132 52.6802 78.2692 51.7842 79.4172 51.2002Z" fill="#263238"/>
<path d="M79.5634 52.6604C79.5581 51.414 79.2448 50.1883 78.6514 49.0924C77.0514 45.9924 73.7794 43.7364 70.2954 43.6844C68.6503 43.6362 67.0352 44.131 65.6994 45.0924C64.2434 46.1804 63.2994 47.8484 62.7754 49.5884C62.2146 51.2383 62.1451 53.0157 62.5754 54.7044C63.0594 56.3644 64.2754 57.8644 65.9154 58.4164C66.9937 58.7198 68.1248 58.7866 69.2314 58.6124C71.6091 58.3593 73.9451 57.8056 76.1834 56.9644C77.0234 56.6484 77.8754 56.4044 78.4474 55.6884C79.1441 54.8303 79.5366 53.7654 79.5634 52.6604Z" fill="#263238"/>
<path d="M72.4777 62.0003V66.0723C72.4777 66.0723 75.8017 68.1963 74.4017 69.3203C71.7617 71.4443 66.0977 66.0483 66.0977 66.0483V59.2563L72.4777 62.0003Z" fill="#F9D9BA"/>
<path d="M66.0977 59.2563C66.8777 62.8243 70.6457 65.0203 72.4777 65.4643V62.0003L66.0977 59.2563Z" fill="#FCBAB1"/>
<path d="M61.8264 55.3002C62.0651 54.8512 62.466 54.5099 62.9474 54.3459C63.4289 54.1819 63.9547 54.2075 64.418 54.4175C64.8812 54.6274 65.2471 55.006 65.4411 55.4761C65.6351 55.9463 65.6427 56.4727 65.4624 56.9482C65.6363 57.0193 65.8249 57.0466 66.0118 57.0278C66.1987 57.009 66.3782 56.9446 66.5344 56.8402C66.8554 56.6178 67.0966 56.2981 67.2224 55.9282C67.3416 55.4308 67.4258 54.9255 67.4744 54.4162C68.4904 54.2562 69.0744 52.5842 69.0744 52.4162C69.3224 52.4642 74.0344 52.6802 75.5544 49.9482C77.6064 50.2962 78.3024 52.7002 78.3544 52.6882C78.5095 53.535 78.5751 54.3957 78.5504 55.2562C78.4748 57.0236 78.1613 58.7727 77.6184 60.4562C77.2184 61.7882 76.8664 63.1482 75.5144 63.8402C74.7263 64.214 73.8473 64.3529 72.9824 64.2402C69.8104 63.9162 66.8184 61.4722 65.3824 58.6922C65.1304 58.9971 64.7795 59.2041 64.3907 59.2772C64.002 59.3503 63.5999 59.2848 63.2544 59.0922C62.6676 58.6503 62.1934 58.076 61.8704 57.4162C61.709 57.0881 61.6214 56.7287 61.6138 56.3631C61.6062 55.9976 61.6788 55.6348 61.8264 55.3002Z" fill="#F9D9BA"/>
<path d="M74.1713 55.5361L75.8113 58.5721L73.6953 58.8801L74.1713 55.5361Z" fill="#FCBAB1"/>
<path d="M71.6298 59.8203L73.1938 60.6603C73.0498 60.8362 72.8524 60.9602 72.6314 61.0136C72.4105 61.0671 72.1782 61.0469 71.9698 60.9563C71.7912 60.8348 71.66 60.6556 71.5981 60.4487C71.5361 60.2418 71.5473 60.0199 71.6298 59.8203Z" fill="#FCBAB1"/>
<path opacity="0.3" d="M71.6298 59.8203L73.1938 60.6603C73.0498 60.8362 72.8524 60.9602 72.6314 61.0136C72.4105 61.0671 72.1782 61.0469 71.9698 60.9563C71.7912 60.8348 71.66 60.6556 71.5981 60.4487C71.5361 60.2418 71.5473 60.0199 71.6298 59.8203Z" fill="black"/>
<path d="M72.521 61.0321C72.3335 61.0605 72.1418 61.0341 71.969 60.9561C71.8245 60.8696 71.7092 60.7419 71.638 60.5893C71.5667 60.4368 71.5427 60.2664 71.569 60.1001C71.816 60.1041 72.052 60.2032 72.2278 60.3768C72.4037 60.5504 72.5058 60.7851 72.513 61.0321H72.521Z" fill="#FCBAB1"/>
<path d="M71.1233 55.5284C71.1063 55.6467 71.1248 55.7673 71.1764 55.875C71.2279 55.9828 71.3103 56.0728 71.413 56.1337C71.5158 56.1947 71.6343 56.2238 71.7535 56.2174C71.8728 56.211 71.9875 56.1694 72.0831 56.0978C72.1788 56.0262 72.251 55.9279 72.2908 55.8153C72.3305 55.7026 72.336 55.5807 72.3065 55.465C72.2769 55.3492 72.2138 55.2448 72.1249 55.165C72.0361 55.0852 71.9255 55.0335 71.8073 55.0164C71.7288 55.0051 71.6488 55.0094 71.5719 55.029C71.495 55.0486 71.4228 55.0832 71.3592 55.1307C71.2957 55.1783 71.2422 55.2379 71.2017 55.3061C71.1612 55.3743 71.1346 55.4499 71.1233 55.5284Z" fill="#263238"/>
<path d="M76.1657 56.048C76.1496 56.1662 76.1687 56.2865 76.2209 56.3938C76.273 56.5011 76.3558 56.5906 76.4587 56.6509C76.5616 56.7113 76.6801 56.7398 76.7992 56.7329C76.9183 56.7259 77.0327 56.6839 77.1279 56.6121C77.2232 56.5402 77.295 56.4418 77.3343 56.3291C77.3737 56.2165 77.3788 56.0948 77.3491 55.9792C77.3193 55.8637 77.256 55.7596 77.1671 55.68C77.0783 55.6004 76.9678 55.5489 76.8497 55.532C76.7709 55.5207 76.6906 55.5251 76.6135 55.545C76.5364 55.5648 76.464 55.5997 76.4004 55.6477C76.3368 55.6957 76.2834 55.7557 76.2431 55.8244C76.2028 55.8931 76.1765 55.9691 76.1657 56.048Z" fill="#263238"/>
<path d="M77.0859 53.7483L78.2859 54.8523C78.3673 54.6968 78.3987 54.52 78.3758 54.3461C78.3528 54.1721 78.2768 54.0094 78.1579 53.8803C78.0093 53.7606 77.8302 53.6848 77.6408 53.6615C77.4513 53.6382 77.2592 53.6682 77.0859 53.7483Z" fill="#263238"/>
<path d="M71.9984 52.952L70.5424 53.684C70.5097 53.5106 70.5305 53.3313 70.6019 53.1699C70.6733 53.0085 70.7921 52.8725 70.9424 52.78C71.1173 52.7095 71.3083 52.6882 71.4944 52.7185C71.6806 52.7488 71.8549 52.8296 71.9984 52.952Z" fill="#263238"/>
<path d="M67.4097 54.0881C67.6417 54.9361 67.8697 55.8761 67.4737 56.6641C67.2337 57.1401 66.7857 57.4921 66.5457 57.9681C66.3091 58.5217 66.2476 59.1345 66.3697 59.7241C66.491 60.3094 66.5673 60.9031 66.5977 61.5001C66.5894 61.9447 66.4911 62.3831 66.3087 62.7887C66.1263 63.1943 65.8637 63.5587 65.5366 63.86C65.2095 64.1613 64.8248 64.3932 64.4056 64.5417C63.9864 64.6902 63.5415 64.7523 63.0977 64.7241C63.7777 64.8201 64.6017 64.2001 64.9537 63.6081C65.2802 62.9956 65.4048 62.2956 65.3097 61.6081C65.2457 60.9241 65.0577 60.2561 64.9377 59.5801C64.7796 58.9079 64.7796 58.2082 64.9377 57.5361C65.1337 56.8521 65.5937 56.1961 65.4537 55.5001C65.3777 55.1201 65.1297 54.7881 65.0897 54.4041C65.071 54.1528 65.1407 53.903 65.2868 53.6977C65.4329 53.4924 65.6461 53.3447 65.8897 53.2801C66.3977 53.1681 67.2737 53.6001 67.4097 54.0881Z" fill="#263238"/>
<path opacity="0.3" d="M72.8626 45.9202C72.4965 46.3462 72.0543 46.7002 71.5586 46.9642C69.7874 47.9736 67.7674 48.463 65.7306 48.3762C65.3194 48.3809 64.9114 48.3034 64.5306 48.1482C64.2708 48.018 64.0465 47.8265 63.8772 47.5903C63.7078 47.354 63.5985 47.0801 63.5586 46.7922C64.0813 45.8308 64.8259 45.008 65.7306 44.3922C67.0459 43.5651 68.5774 43.1474 70.1306 43.1922C71.0519 43.2088 71.9657 43.3611 72.8426 43.6442C73.0533 43.8679 73.1998 44.1443 73.2666 44.4442C73.3086 44.7048 73.2942 44.9714 73.2246 45.226C73.1549 45.4806 73.0314 45.7173 72.8626 45.9202Z" fill="black"/>
<path d="M74.0777 41.9442C73.8817 40.3162 72.5297 38.9962 70.9817 38.4402C69.4285 37.9144 67.7383 37.9626 66.2177 38.5762C64.7073 39.1984 63.3969 40.2237 62.4297 41.5402C61.7257 42.4722 61.1617 43.6082 61.2977 44.7722C61.4497 46.1242 62.5657 47.2402 63.8657 47.6562C65.1981 48.0316 66.6105 48.0149 67.9337 47.6082C68.8057 47.3522 71.5937 46.2322 72.2937 45.4882C73.1977 44.5202 74.2337 43.2402 74.0777 41.9442Z" fill="#263238"/>
<path opacity="0.2" d="M65.0078 77.4282C65.8814 78.6811 67.1561 79.5985 68.6216 80.0291C70.087 80.4596 71.6554 80.3775 73.0678 79.7962C72.4692 80.3772 71.7345 80.7988 70.9309 81.0224C70.1273 81.246 69.2804 81.2645 68.4678 81.0762C66.8638 80.6642 65.4878 79.0122 65.0078 77.4282Z" fill="black"/>
<path d="M76.0307 95.5441C76.0283 95.5533 76.0283 95.5629 76.0307 95.5721C76.0264 95.5837 76.0264 95.5965 76.0307 95.6081L76.6707 96.3401C76.6684 96.3242 76.6684 96.3081 76.6707 96.2921C76.6947 96.4041 76.8627 96.4001 77.1387 96.2441L82.5027 93.2281C82.9178 92.9887 83.2701 92.6542 83.5307 92.2521L88.1947 83.5681C88.2707 83.4241 88.2667 83.3401 88.1947 83.3001H88.2147L87.5987 82.5681C87.5753 82.548 87.5456 82.5366 87.5147 82.5361H87.4787H87.4467H87.4147H87.3867H87.3587H87.3307H87.3027H87.2747H87.2427H87.2147H87.1867H87.1547L81.7907 85.5521H81.7627H81.7307L81.7027 85.5721H81.6787H81.6547H81.6347L81.5667 85.6321V85.6521V85.6721L81.5467 85.6961L81.5267 85.7201V85.7481L81.5067 85.7761V85.8041L81.4867 85.8321L81.4667 85.8601V85.8881V85.9121V85.9361L76.8027 94.6201V94.6441C76.801 94.652 76.801 94.6602 76.8027 94.6681V94.6921C76.801 94.7 76.801 94.7082 76.8027 94.7161C76.8013 94.7241 76.8013 94.7322 76.8027 94.7401C76.6961 94.6378 76.5532 94.5819 76.4054 94.5849C76.2576 94.5879 76.1171 94.6495 76.0147 94.7561C75.9123 94.8628 75.8565 95.0057 75.8595 95.1534C75.8625 95.3012 75.9241 95.4418 76.0307 95.5441ZM88.0707 83.2841C88.0707 83.2841 88.0907 83.2841 88.1067 83.2841C88.0947 83.2833 88.0827 83.2833 88.0707 83.2841ZM81.8307 86.8841C81.8747 86.8401 81.9267 86.8001 81.9787 86.7561C81.9267 86.8001 81.8747 86.8281 81.8307 86.8721V86.8841ZM76.6747 96.2561C76.6731 96.2469 76.6731 96.2374 76.6747 96.2281C76.6728 96.2427 76.6728 96.2575 76.6747 96.2721C76.6747 96.2721 76.6747 96.2481 76.6747 96.2441V96.2561Z" fill="#E0E0E0"/>
<path opacity="0.2" d="M76.0307 95.5441C76.0283 95.5533 76.0283 95.5629 76.0307 95.5721C76.0264 95.5837 76.0264 95.5965 76.0307 95.6081L76.6707 96.3401C76.6684 96.3242 76.6684 96.3081 76.6707 96.2921C76.6947 96.4041 76.8627 96.4001 77.1387 96.2441L82.5027 93.2281C82.9178 92.9887 83.2701 92.6542 83.5307 92.2521L88.1947 83.5681C88.2707 83.4241 88.2667 83.3401 88.1947 83.3001H88.2147L87.5987 82.5681C87.5753 82.548 87.5456 82.5366 87.5147 82.5361H87.4787H87.4467H87.4147H87.3867H87.3587H87.3307H87.3027H87.2747H87.2427H87.2147H87.1867H87.1547L81.7907 85.5521H81.7627H81.7307L81.7027 85.5721H81.6787H81.6547H81.6347L81.5667 85.6321V85.6521V85.6721L81.5467 85.6961L81.5267 85.7201V85.7481L81.5067 85.7761V85.8041L81.4867 85.8321L81.4667 85.8601V85.8881V85.9121V85.9361L76.8027 94.6201V94.6441C76.801 94.652 76.801 94.6602 76.8027 94.6681V94.6921C76.801 94.7 76.801 94.7082 76.8027 94.7161C76.8013 94.7241 76.8013 94.7322 76.8027 94.7401C76.6961 94.6378 76.5532 94.5819 76.4054 94.5849C76.2576 94.5879 76.1171 94.6495 76.0147 94.7561C75.9123 94.8628 75.8565 95.0057 75.8595 95.1534C75.8625 95.3012 75.9241 95.4418 76.0307 95.5441ZM88.0707 83.2841C88.0707 83.2841 88.0907 83.2841 88.1067 83.2841C88.0947 83.2833 88.0827 83.2833 88.0707 83.2841ZM81.8307 86.8841C81.8747 86.8401 81.9267 86.8001 81.9787 86.7561C81.9267 86.8001 81.8747 86.8281 81.8307 86.8721V86.8841ZM76.6747 96.2561C76.6731 96.2469 76.6731 96.2374 76.6747 96.2281C76.6728 96.2427 76.6728 96.2575 76.6747 96.2721C76.6747 96.2721 76.6747 96.2481 76.6747 96.2441V96.2561Z" fill="black"/>
<path opacity="0.15" d="M76.0326 95.5203C76.0312 95.5124 76.0312 95.5043 76.0326 95.4963C76.0308 95.4884 76.0308 95.4802 76.0326 95.4723V95.4483C76.0308 95.4404 76.0308 95.4322 76.0326 95.4243V95.4003L80.6966 86.7163L81.3366 87.4483L76.7326 96.0803C76.7036 96.1298 76.6833 96.184 76.6726 96.2403C76.6681 96.2568 76.6676 96.274 76.671 96.2907C76.6745 96.3074 76.6819 96.323 76.6926 96.3363L76.0526 95.6043C76.0483 95.5927 76.0483 95.5799 76.0526 95.5683C76.0502 95.5591 76.0502 95.5495 76.0526 95.5403C76.0442 95.5356 76.0372 95.5287 76.0326 95.5203Z" fill="white"/>
<path opacity="0.2" d="M80.7697 86.6402V86.6162V86.5882L80.7897 86.5602L80.8097 86.5322V86.5042L80.8297 86.4762V86.4482L80.8497 86.4242L80.8697 86.4002V86.3802V86.3602L80.9377 86.3002H80.9577H80.9817H81.0057L81.0337 86.2802H81.0657H81.0937L86.4577 83.2642H86.4897H86.5177H86.5457H86.5777H86.6057H86.6337H86.6617H86.6897H86.7177H86.7497H86.7817H86.8177C86.8486 83.2647 86.8783 83.276 86.9017 83.2962L87.5377 84.0282C87.5111 83.9962 87.4591 83.9882 87.3817 84.0042C87.2786 84.0301 87.18 84.072 87.0897 84.1282L82.4297 86.4002C82.323 86.4598 82.2213 86.528 82.1257 86.6042C82.0238 86.6827 81.9263 86.7668 81.8337 86.8562C81.7432 86.9404 81.6577 87.0299 81.5777 87.1242C81.5124 87.2047 81.4536 87.2903 81.4017 87.3802L80.7617 86.6482L80.7697 86.6402Z" fill="white"/>
<path d="M57.3866 70.0361C57.8306 66.8361 60.0466 66.1761 61.5546 66.0601C61.5546 66.0601 63.4466 67.3601 63.4466 73.1521L63.2866 87.6441L64.3506 88.0881C67.3429 89.3667 70.469 90.3059 73.6706 90.8881C75.3413 89.5632 77.4186 88.8566 79.5506 88.8881L78.7506 90.3641C80.2506 91.3241 83.6386 89.5921 83.6386 89.5921C83.8866 91.7041 82.5186 93.8961 80.7026 95.0081C78.8866 96.1201 61.5626 94.4881 57.9026 92.1081C55.4786 90.5641 56.4506 76.8361 57.3866 70.0361Z" fill="#F9D9BA"/>
<path d="M87.3023 85.2402C87.4189 85.8106 87.4845 86.3902 87.4983 86.9722C87.3654 88.3569 86.779 89.6589 85.8303 90.6762C85.6328 90.899 85.3864 91.0729 85.1103 91.1842C84.9716 91.2374 84.8214 91.2532 84.6747 91.23C84.528 91.2068 84.3899 91.1455 84.2743 91.0522C84.0713 90.8085 83.9684 90.4969 83.9863 90.1802C83.9414 89.7111 83.967 89.2378 84.0623 88.7762C84.1564 88.3078 84.4181 87.8896 84.7983 87.6002C85.0941 87.4317 85.4081 87.2975 85.7343 87.2002C86.0559 87.0641 86.3429 86.8577 86.5743 86.5962L87.3023 85.2402Z" fill="#F9D9BA"/>
<path d="M88.4722 51.6358L99.3843 45.3718C100.34 44.8238 102.584 45.5678 102.584 47.1038C102.584 46.9795 102.551 46.8574 102.488 46.7498C102.426 46.6422 102.337 46.5528 102.229 46.4905C102.121 46.4282 101.999 46.3952 101.875 46.3947C101.751 46.3942 101.628 46.4263 101.52 46.4878L90.6042 52.7518C90.2461 52.9607 89.958 53.2711 89.7763 53.6438L87.6562 52.4438C87.8481 52.104 88.1306 51.8243 88.4722 51.6358Z" fill="#0CA678"/>
<path d="M89.798 53.6439C89.6438 53.9393 89.5616 54.2668 89.558 54.5999V62.7039C89.5577 62.8282 89.5901 62.9503 89.6519 63.058C89.7137 63.1658 89.8028 63.2554 89.9102 63.3178C90.0176 63.3802 90.1396 63.4133 90.2638 63.4136C90.388 63.414 90.5102 63.3817 90.618 63.3199C90.3036 63.512 89.9443 63.6182 89.5761 63.6278C89.2078 63.6374 88.8435 63.5502 88.5195 63.3749C88.1955 63.1995 87.9233 62.9422 87.73 62.6286C87.5367 62.315 87.4291 61.9562 87.418 61.5879V53.4839C87.4183 53.118 87.5134 52.7583 87.694 52.4399L89.798 53.6439Z" fill="#0CA678"/>
<path opacity="0.4" d="M88.4722 51.6358L99.3843 45.3718C100.34 44.8238 102.584 45.5678 102.584 47.1038C102.584 46.9795 102.551 46.8574 102.488 46.7498C102.426 46.6422 102.337 46.5528 102.229 46.4905C102.121 46.4282 101.999 46.3952 101.875 46.3947C101.751 46.3942 101.628 46.4263 101.52 46.4878L90.6042 52.7518C90.2461 52.9607 89.958 53.2711 89.7763 53.6438L87.6562 52.4438C87.8481 52.104 88.1306 51.8243 88.4722 51.6358Z" fill="white"/>
<path opacity="0.2" d="M89.798 53.6439C89.6438 53.9393 89.5616 54.2668 89.558 54.5999V62.7039C89.5577 62.8282 89.5901 62.9503 89.6519 63.058C89.7137 63.1658 89.8028 63.2554 89.9102 63.3178C90.0176 63.3802 90.1396 63.4133 90.2638 63.4136C90.388 63.414 90.5102 63.3817 90.618 63.3199C90.3036 63.512 89.9443 63.6182 89.5761 63.6278C89.2078 63.6374 88.8435 63.5502 88.5195 63.3749C88.1955 63.1995 87.9233 62.9422 87.73 62.6286C87.5367 62.315 87.4291 61.9562 87.418 61.5879V53.4839C87.4183 53.118 87.5134 52.7583 87.694 52.4399L89.798 53.6439Z" fill="white"/>
<path d="M101.543 46.4876L90.6266 52.7516C90.3019 52.9386 90.0322 53.2079 89.8447 53.5324C89.6572 53.8568 89.5585 54.2249 89.5586 54.5996V62.7036C89.5583 62.8279 89.5907 62.95 89.6525 63.0577C89.7144 63.1655 89.8035 63.2551 89.9109 63.3175C90.0183 63.3799 90.1402 63.413 90.2644 63.4133C90.3887 63.4137 90.5108 63.3814 90.6186 63.3196L101.535 57.0836C101.86 56.8968 102.13 56.6277 102.318 56.3033C102.506 55.9789 102.606 55.6107 102.607 55.2356V47.1036C102.606 46.9793 102.573 46.8572 102.511 46.7496C102.448 46.642 102.359 46.5527 102.251 46.4903C102.144 46.428 102.022 46.395 101.897 46.3945C101.773 46.3941 101.651 46.4262 101.543 46.4876Z" fill="#0CA678"/>
<path d="M86.9296 58.7319L89.5536 59.2239V55.8599L86.8376 58.4239C86.8134 58.4468 86.796 58.4759 86.7874 58.5081C86.7788 58.5403 86.7792 58.5743 86.7888 58.6062C86.7983 58.6381 86.8165 58.6668 86.8414 58.689C86.8663 58.7112 86.8968 58.726 86.9296 58.7319Z" fill="#0CA678"/>
<path d="M89.5531 55.8599L87.4011 54.6279L84.6891 57.2199C84.6686 57.2393 84.6529 57.2633 84.6434 57.2899C84.6338 57.3165 84.6307 57.345 84.6342 57.373C84.6377 57.4011 84.6478 57.4279 84.6636 57.4513C84.6794 57.4748 84.7005 57.4942 84.7251 57.5079L86.8691 58.7079L89.5531 55.8599Z" fill="#0CA678"/>
<path opacity="0.2" d="M89.5531 55.8599L87.4011 54.6279L84.6891 57.2199C84.6686 57.2393 84.6529 57.2633 84.6434 57.2899C84.6338 57.3165 84.6307 57.345 84.6342 57.373C84.6377 57.4011 84.6478 57.4279 84.6636 57.4513C84.6794 57.4748 84.7005 57.4942 84.7251 57.5079L86.8691 58.7079L89.5531 55.8599Z" fill="white"/>
<path d="M99.8815 49.1078C100.149 48.9518 100.337 49.2598 100.093 49.6478C98.3378 52.4192 96.8024 55.3241 95.5015 58.3358C95.368 58.6757 95.1299 58.9643 94.8215 59.1598C94.7269 59.2344 94.6099 59.275 94.4895 59.275C94.369 59.275 94.252 59.2344 94.1575 59.1598C93.5099 58.5441 92.8024 57.9947 92.0455 57.5198C91.8375 57.3878 92.0095 56.9038 92.2775 56.7478C92.3096 56.7286 92.3448 56.7151 92.3815 56.7078C93.172 56.551 93.9833 56.528 94.7815 56.6398C96.1121 53.9805 97.7689 51.4974 99.7135 49.2478C99.7607 49.1915 99.8176 49.1441 99.8815 49.1078Z" fill="white"/>
</svg>
